{
.appVersion = "1286";
DisplayStrings = (
"VIVITA FONT",
Keita,
keita,
"/tcaron",
"/tcedilla",
"/tcommaaccent",
"/tbar"
);
copyright = "VIVITA, Inc.";
date = "2020-05-01 21:52:03 +0000";
designer = "Keita Imatomi";
designerURL = "https://imatomix.com";
familyName = VIVITA;
fontMaster = (
{
ascender = 800;
capHeight = 700;
descender = -200;
id = "BB68A3FB-67CF-46D6-8942-4DAFE6725C7A";
visible = 1;
weight = Bold;
weightValue = 700;
xHeight = 500;
},
{
ascender = 800;
capHeight = 700;
descender = -200;
id = "43EC01B8-31A0-4C9A-A12D-FF1A612D1D03";
visible = 1;
weight = Light;
weightValue = 300;
xHeight = 500;
}
);
glyphs = (
{
glyphname = A;
lastChange = "2020-04-30 09:18:36 +0000";
layers = (
{
layerId = "BB68A3FB-67CF-46D6-8942-4DAFE6725C7A";
paths = (
{
closed = 1;
nodes = (
"229 0 LINE",
"368 304 LINE",
"507 0 LINE",
"716 0 LINE",
"368 724 LINE",
"20 0 LINE"
);
}
);
width = 736;
},
{
layerId = "43EC01B8-31A0-4C9A-A12D-FF1A612D1D03";
paths = (
{
closed = 1;
nodes = (
"90 0 LINE",
"320 560 LINE",
"550 0 LINE",
"620 0 LINE",
"320 724 LINE",
"20 0 LINE"
);
}
);
width = 640;
}
);
leftKerningGroup = A;
rightKerningGroup = A;
unicode = 0041;
},
{
glyphname = Aogonek;
lastChange = "2019-12-17 05:04:31 +0000";
layers = (
{
layerId = "BB68A3FB-67CF-46D6-8942-4DAFE6725C7A";
paths = (
{
closed = 1;
nodes = (
"229 0 LINE",
"368 304 LINE",
"507 0 LINE",
"530 0 LINE",
"482 -32 OFFCURVE",
"454 -87 OFFCURVE",
"473 -133 CURVE SMOOTH",
"493 -180 OFFCURVE",
"541 -200 OFFCURVE",
"603 -200 CURVE SMOOTH",
"668 -200 OFFCURVE",
"716 -158 OFFCURVE",
"716 -158 CURVE",
"667 -82 LINE",
"667 -82 OFFCURVE",
"648 -91 OFFCURVE",
"632 -91 CURVE SMOOTH",
"623 -91 OFFCURVE",
"611 -85 OFFCURVE",
"611 -73 CURVE SMOOTH",
"611 -48 OFFCURVE",
"658 -28 OFFCURVE",
"716 0 CURVE",
"368 724 LINE",
"20 0 LINE"
);
}
);
width = 736;
},
{
layerId = "43EC01B8-31A0-4C9A-A12D-FF1A612D1D03";
paths = (
{
closed = 1;
nodes = (
"90 0 LINE",
"320 560 LINE",
"550 0 LINE",
"550 0 LINE",
"486 -30 OFFCURVE",
"461 -85 OFFCURVE",
"473 -122 CURVE SMOOTH",
"482 -150 OFFCURVE",
"513 -177 OFFCURVE",
"555 -177 CURVE SMOOTH",
"593 -177 OFFCURVE",
"620 -163 OFFCURVE",
"620 -163 CURVE",
"594 -119 LINE",
"594 -119 OFFCURVE",
"576 -126 OFFCURVE",
"558 -125 CURVE SMOOTH",
"544 -124 OFFCURVE",
"528 -113 OFFCURVE",
"526 -99 CURVE SMOOTH",
"521 -69 OFFCURVE",
"542 -40 OFFCURVE",
"620 0 CURVE",
"320 724 LINE",
"20 0 LINE"
);
}
);
width = 640;
}
);
leftKerningGroup = A;
rightKerningGroup = A;
unicode = 0104;
},
{
glyphname = AE;
lastChange = "2020-04-30 09:22:35 +0000";
layers = (
{
layerId = "BB68A3FB-67CF-46D6-8942-4DAFE6725C7A";
paths = (
{
closed = 1;
nodes = (
"229 0 LINE",
"505 406 LINE",
"505 0 LINE",
"993 0 LINE",
"993 164 LINE",
"691 164 LINE",
"691 281 LINE",
"978 281 LINE",
"978 432 LINE",
"691 432 LINE",
"691 537 LINE",
"993 537 LINE",
"993 700 LINE",
"505 700 LINE",
"20 0 LINE"
);
}
);
width = 1038;
},
{
layerId = "43EC01B8-31A0-4C9A-A12D-FF1A612D1D03";
paths = (
{
closed = 1;
nodes = (
"169 0 LINE",
"553 596 LINE",
"554 0 LINE",
"974 0 LINE",
"974 58 LINE",
"619 58 LINE",
"619 338 LINE",
"959 338 LINE",
"959 396 LINE",
"619 396 LINE",
"619 641 LINE",
"974 641 LINE",
"974 700 LINE",
"554 700 LINE",
"99 0 LINE"
);
}
);
width = 1019;
}
);
leftKerningGroup = A;
unicode = 00C6;
},
{
glyphname = B;
lastChange = "2016-11-15 11:56:21 +0000";
layers = (
{
layerId = "BB68A3FB-67CF-46D6-8942-4DAFE6725C7A";
paths = (
{
closed = 1;
nodes = (
"542 413 OFFCURVE",
"553 450 OFFCURVE",
"553 490 CURVE SMOOTH",
"553 606 OFFCURVE",
"459 700 OFFCURVE",
"344 700 CURVE SMOOTH",
"65 700 LINE",
"65 0 LINE",
"384 0 LINE SMOOTH",
"503 0 OFFCURVE",
"599 97 OFFCURVE",
"599 216 CURVE SMOOTH",
"599 282 OFFCURVE",
"569 341 OFFCURVE",
"523 381 CURVE"
);
},
{
closed = 1;
nodes = (
"341 548 OFFCURVE",
"367 522 OFFCURVE",
"367 490 CURVE SMOOTH",
"367 458 OFFCURVE",
"341 432 OFFCURVE",
"309 432 CURVE SMOOTH",
"251 432 LINE",
"251 548 LINE",
"309 548 LINE SMOOTH"
);
},
{
closed = 1;
nodes = (
"251 163 LINE",
"251 280 LINE",
"355 280 LINE SMOOTH",
"387 280 OFFCURVE",
"413 254 OFFCURVE",
"413 222 CURVE SMOOTH",
"413 189 OFFCURVE",
"387 163 OFFCURVE",
"355 163 CURVE SMOOTH"
);
}
);
width = 639;
},
{
layerId = "43EC01B8-31A0-4C9A-A12D-FF1A612D1D03";
paths = (
{
closed = 1;
nodes = (
"459 419 OFFCURVE",
"485 469 OFFCURVE",
"485 525 CURVE",
"485 622 OFFCURVE",
"407 700 OFFCURVE",
"310 700 CURVE",
"65 700 LINE",
"65 0 LINE",
"328 0 LINE",
"441 0 OFFCURVE",
"532 91 OFFCURVE",
"532 204 CURVE",
"532 285 OFFCURVE",
"486 354 OFFCURVE",
"418 387 CURVE"
);
},
{
closed = 1;
nodes = (
"367 642 OFFCURVE",
"420 589 OFFCURVE",
"420 525 CURVE",
"420 461 OFFCURVE",
"367 408 OFFCURVE",
"303 408 CURVE",
"130 408 LINE",
"130 642 LINE",
"303 642 LINE"
);
},
{
closed = 1;
nodes = (
"130 58 LINE",
"130 350 LINE",
"324 350 LINE",
"404 350 OFFCURVE",
"469 285 OFFCURVE",
"469 204 CURVE",
"469 124 OFFCURVE",
"404 58 OFFCURVE",
"324 58 CURVE"
);
}
);
width = 572;
}
);
rightKerningGroup = B;
unicode = 0042;
},
{
glyphname = C;
lastChange = "2019-12-16 06:20:34 +0000";
layers = (
{
layerId = "BB68A3FB-67CF-46D6-8942-4DAFE6725C7A";
paths = (
{
closed = 1;
nodes = (
"541 198 OFFCURVE",
"483 163 OFFCURVE",
"416 163 CURVE SMOOTH",
"314 163 OFFCURVE",
"231 247 OFFCURVE",
"231 350 CURVE SMOOTH",
"231 453 OFFCURVE",
"314 537 OFFCURVE",
"416 537 CURVE SMOOTH",
"483 537 OFFCURVE",
"541 502 OFFCURVE",
"574 449 CURVE",
"731 548 LINE",
"666 653 OFFCURVE",
"549 723 OFFCURVE",
"416 723 CURVE SMOOTH",
"211 723 OFFCURVE",
"45 556 OFFCURVE",
"45 350 CURVE SMOOTH",
"45 144 OFFCURVE",
"211 -23 OFFCURVE",
"416 -23 CURVE SMOOTH",
"549 -23 OFFCURVE",
"666 47 OFFCURVE",
"731 152 CURVE",
"574 251 LINE"
);
}
);
width = 776;
},
{
layerId = "43EC01B8-31A0-4C9A-A12D-FF1A612D1D03";
paths = (
{
closed = 1;
nodes = (
"629 97 OFFCURVE",
"531 39 OFFCURVE",
"420 39 CURVE SMOOTH",
"248 39 OFFCURVE",
"108 178 OFFCURVE",
"108 350 CURVE SMOOTH",
"108 523 OFFCURVE",
"248 662 OFFCURVE",
"420 662 CURVE SMOOTH",
"531 662 OFFCURVE",
"629 604 OFFCURVE",
"684 516 CURVE",
"735 548 LINE",
"669 653 OFFCURVE",
"552 723 OFFCURVE",
"418 723 CURVE SMOOTH",
"212 723 OFFCURVE",
"45 556 OFFCURVE",
"45 350 CURVE SMOOTH",
"45 144 OFFCURVE",
"212 -23 OFFCURVE",
"418 -23 CURVE SMOOTH",
"552 -23 OFFCURVE",
"669 47 OFFCURVE",
"735 153 CURVE",
"684 184 LINE"
);
}
);
width = 780;
}
);
leftKerningGroup = C;
rightKerningGroup = C;
unicode = 0043;
},
{
glyphname = D;
lastChange = "2016-11-15 12:16:56 +0000";
layers = (
{
layerId = "BB68A3FB-67CF-46D6-8942-4DAFE6725C7A";
paths = (
{
closed = 1;
nodes = (
"65 0 LINE",
"296 0 LINE",
"488 0 OFFCURVE",
"643 141 OFFCURVE",
"643 350 CURVE",
"643 559 OFFCURVE",
"488 700 OFFCURVE",
"296 700 CURVE",
"65 700 LINE"
);
},
{
closed = 1;
nodes = (
"296 514 LINE",
"386 514 OFFCURVE",
"459 440 OFFCURVE",
"459 350 CURVE",
"459 260 OFFCURVE",
"386 187 OFFCURVE",
"296 187 CURVE",
"250 187 LINE",
"250 514 LINE"
);
}
);
width = 693;
},
{
layerId = "43EC01B8-31A0-4C9A-A12D-FF1A612D1D03";
paths = (
{
closed = 1;
nodes = (
"65 0 LINE",
"251 0 LINE",
"445 0 OFFCURVE",
"601 140 OFFCURVE",
"601 350 CURVE",
"601 560 OFFCURVE",
"445 700 OFFCURVE",
"251 700 CURVE",
"65 700 LINE"
);
},
{
closed = 1;
nodes = (
"245 641 LINE",
"406 641 OFFCURVE",
"537 511 OFFCURVE",
"537 350 CURVE",
"537 188 OFFCURVE",
"406 58 OFFCURVE",
"245 58 CURVE",
"129 58 LINE",
"129 641 LINE"
);
}
);
width = 651;
}
);
rightKerningGroup = D;
unicode = 0044;
},
{
glyphname = Dcroat;
lastChange = "2020-05-02 07:20:17 +0000";
layers = (
{
layerId = "BB68A3FB-67CF-46D6-8942-4DAFE6725C7A";
paths = (
{
closed = 1;
nodes = (
"126 286 LINE",
"126 0 LINE",
"357 0 LINE SMOOTH",
"549 0 OFFCURVE",
"704 141 OFFCURVE",
"704 350 CURVE SMOOTH",
"704 559 OFFCURVE",
"549 700 OFFCURVE",
"357 700 CURVE SMOOTH",
"126 700 LINE",
"126 414 LINE",
"66 414 LINE",
"66 286 LINE"
);
},
{
closed = 1;
nodes = (
"311 286 LINE",
"418 286 LINE",
"418 414 LINE",
"311 414 LINE",
"311 514 LINE",
"357 514 LINE SMOOTH",
"447 514 OFFCURVE",
"520 440 OFFCURVE",
"520 350 CURVE SMOOTH",
"520 260 OFFCURVE",
"447 187 OFFCURVE",
"357 187 CURVE SMOOTH",
"311 187 LINE"
);
}
);
width = 754;
},
{
layerId = "43EC01B8-31A0-4C9A-A12D-FF1A612D1D03";
paths = (
{
closed = 1;
nodes = (
"115 321 LINE",
"115 0 LINE",
"301 0 LINE SMOOTH",
"495 0 OFFCURVE",
"651 140 OFFCURVE",
"651 350 CURVE SMOOTH",
"651 560 OFFCURVE",
"495 700 OFFCURVE",
"301 700 CURVE SMOOTH",
"115 700 LINE",
"115 379 LINE",
"55 379 LINE",
"55 321 LINE"
);
},
{
closed = 1;
nodes = (
"179 321 LINE",
"350 321 LINE",
"350 379 LINE",
"179 379 LINE",
"179 641 LINE",
"295 641 LINE SMOOTH",
"456 641 OFFCURVE",
"587 511 OFFCURVE",
"587 350 CURVE SMOOTH",
"587 188 OFFCURVE",
"456 58 OFFCURVE",
"295 58 CURVE SMOOTH",
"179 58 LINE"
);
}
);
width = 701;
}
);
rightKerningGroup = D;
unicode = 0110;
},
{
glyphname = E;
lastChange = "2019-12-16 06:56:22 +0000";
layers = (
{
layerId = "BB68A3FB-67CF-46D6-8942-4DAFE6725C7A";
paths = (
{
closed = 1;
nodes = (
"553 700 LINE",
"65 700 LINE",
"65 0 LINE",
"553 0 LINE",
"553 164 LINE",
"251 164 LINE",
"251 281 LINE",
"538 281 LINE",
"538 432 LINE",
"251 432 LINE",
"251 537 LINE",
"553 537 LINE"
);
}
);
width = 618;
},
{
layerId = "43EC01B8-31A0-4C9A-A12D-FF1A612D1D03";
paths = (
{
closed = 1;
nodes = (
"485 700 LINE",
"65 700 LINE",
"65 0 LINE",
"485 0 LINE",
"485 58 LINE",
"130 58 LINE",
"130 338 LINE",
"470 338 LINE",
"470 396 LINE",
"130 396 LINE",
"130 641 LINE",
"485 641 LINE"
);
}
);
width = 550;
}
);
unicode = 0045;
},
{
glyphname = Eogonek;
lastChange = "2019-12-17 04:51:29 +0000";
layers = (
{
layerId = "BB68A3FB-67CF-46D6-8942-4DAFE6725C7A";
paths = (
{
closed = 1;
nodes = (
"319 -32 OFFCURVE",
"291 -87 OFFCURVE",
"310 -133 CURVE SMOOTH",
"330 -180 OFFCURVE",
"378 -200 OFFCURVE",
"440 -200 CURVE SMOOTH",
"505 -200 OFFCURVE",
"553 -158 OFFCURVE",
"553 -158 CURVE",
"504 -82 LINE",
"504 -82 OFFCURVE",
"485 -91 OFFCURVE",
"469 -91 CURVE SMOOTH",
"460 -91 OFFCURVE",
"448 -85 OFFCURVE",
"448 -73 CURVE SMOOTH",
"448 -48 OFFCURVE",
"495 -28 OFFCURVE",
"553 0 CURVE",
"553 164 LINE",
"251 164 LINE",
"251 281 LINE",
"538 281 LINE",
"538 432 LINE",
"251 432 LINE",
"251 537 LINE",
"553 537 LINE",
"553 700 LINE",
"65 700 LINE",
"65 0 LINE",
"367 0 LINE"
);
}
);
width = 618;
},
{
layerId = "43EC01B8-31A0-4C9A-A12D-FF1A612D1D03";
paths = (
{
closed = 1;
nodes = (
"351 -30 OFFCURVE",
"326 -85 OFFCURVE",
"338 -122 CURVE SMOOTH",
"347 -150 OFFCURVE",
"378 -177 OFFCURVE",
"420 -177 CURVE SMOOTH",
"458 -177 OFFCURVE",
"485 -163 OFFCURVE",
"485 -163 CURVE",
"459 -119 LINE",
"459 -119 OFFCURVE",
"441 -126 OFFCURVE",
"423 -125 CURVE SMOOTH",
"409 -124 OFFCURVE",
"393 -113 OFFCURVE",
"391 -99 CURVE SMOOTH",
"386 -69 OFFCURVE",
"407 -40 OFFCURVE",
"485 0 CURVE",
"485 58 LINE",
"130 58 LINE",
"130 338 LINE",
"470 338 LINE",
"470 396 LINE",
"130 396 LINE",
"130 641 LINE",
"485 641 LINE",
"485 700 LINE",
"65 700 LINE",
"65 0 LINE",
"415 0 LINE"
);
}
);
width = 550;
}
);
unicode = 0118;
},
{
glyphname = F;
lastChange = "2016-11-21 01:43:56 +0000";
layers = (
{
layerId = "BB68A3FB-67CF-46D6-8942-4DAFE6725C7A";
paths = (
{
closed = 1;
nodes = (
"553 701 LINE",
"65 701 LINE",
"65 -1 LINE",
"251 -1 LINE",
"251 281 LINE",
"553 281 LINE",
"553 432 LINE",
"251 432 LINE",
"251 537 LINE",
"553 537 LINE"
);
}
);
width = 613;
},
{
layerId = "43EC01B8-31A0-4C9A-A12D-FF1A612D1D03";
paths = (
{
closed = 1;
nodes = (
"485 700 LINE",
"65 700 LINE",
"65 0 LINE",
"130 0 LINE",
"130 338 LINE",
"485 338 LINE",
"485 396 LINE",
"130 396 LINE",
"130 641 LINE",
"485 641 LINE"
);
}
);
width = 545;
}
);
unicode = 0046;
},
{
glyphname = G;
lastChange = "2016-11-21 01:50:39 +0000";
layers = (
{
layerId = "BB68A3FB-67CF-46D6-8942-4DAFE6725C7A";
paths = (
{
closed = 1;
nodes = (
"533 175 LINE",
"499 160 OFFCURVE",
"459 153 OFFCURVE",
"417 153 CURVE",
"314 153 OFFCURVE",
"231 241 OFFCURVE",
"231 350 CURVE",
"231 460 OFFCURVE",
"314 548 OFFCURVE",
"417 548 CURVE",
"474 548 OFFCURVE",
"499 541 OFFCURVE",
"533 527 CURVE",
"533 711 LINE",
"496 719 OFFCURVE",
"457 723 OFFCURVE",
"417 723 CURVE",
"211 723 OFFCURVE",
"45 556 OFFCURVE",
"45 350 CURVE",
"45 145 OFFCURVE",
"211 -23 OFFCURVE",
"416 -23 CURVE",
"524 -23 OFFCURVE",
"621 8 OFFCURVE",
"695 63 CURVE",
"695 396 LINE",
"416 396 LINE",
"416 246 LINE",
"533 246 LINE"
);
}
);
width = 745;
},
{
layerId = "43EC01B8-31A0-4C9A-A12D-FF1A612D1D03";
paths = (
{
closed = 1;
nodes = (
"633 99 LINE",
"576 55 OFFCURVE",
"507 39 OFFCURVE",
"421 39 CURVE",
"248 39 OFFCURVE",
"109 178 OFFCURVE",
"109 350 CURVE",
"109 523 OFFCURVE",
"248 662 OFFCURVE",
"421 662 CURVE",
"461 662 OFFCURVE",
"499 654 OFFCURVE",
"534 641 CURVE",
"534 704 LINE",
"500 716 OFFCURVE",
"458 723 OFFCURVE",
"418 723 CURVE",
"212 723 OFFCURVE",
"45 556 OFFCURVE",
"45 350 CURVE",
"45 144 OFFCURVE",
"212 -23 OFFCURVE",
"418 -23 CURVE",
"526 -23 OFFCURVE",
"623 7 OFFCURVE",
"697 63 CURVE",
"697 362 LINE",
"418 362 LINE",
"418 303 LINE",
"633 303 LINE"
);
}
);
width = 747;
}
);
leftKerningGroup = C;
rightKerningGroup = G;
unicode = 0047;
},
{
glyphname = H;
lastChange = "2016-11-15 12:01:12 +0000";
layers = (
{
layerId = "BB68A3FB-67CF-46D6-8942-4DAFE6725C7A";
paths = (
{
closed = 1;
nodes = (
"459 432 LINE",
"250 432 LINE",
"250 700 LINE",
"65 700 LINE",
"65 0 LINE",
"250 0 LINE",
"250 281 LINE",
"459 281 LINE",
"459 0 LINE",
"645 0 LINE",
"645 700 LINE",
"459 700 LINE"
);
}
);
width = 710;
},
{
layerId = "43EC01B8-31A0-4C9A-A12D-FF1A612D1D03";
paths = (
{
closed = 1;
nodes = (
"491 397 LINE",
"130 397 LINE",
"130 700 LINE",
"65 700 LINE",
"65 0 LINE",
"130 0 LINE",
"130 338 LINE",
"491 338 LINE",
"491 0 LINE",
"555 0 LINE",
"555 700 LINE",
"491 700 LINE"
);
}
);
width = 620;
}
);
unicode = 0048;
},
{
glyphname = I;
lastChange = "2019-12-16 07:11:01 +0000";
layers = (
{
layerId = "BB68A3FB-67CF-46D6-8942-4DAFE6725C7A";
paths = (
{
closed = 1;
nodes = (
"65 0 LINE",
"65 700 LINE",
"251 700 LINE",
"251 0 LINE"
);
}
);
width = 316;
},
{
layerId = "43EC01B8-31A0-4C9A-A12D-FF1A612D1D03";
paths = (
{
closed = 1;
nodes = (
"65 0 LINE",
"65 700 LINE",
"129 700 LINE",
"129 0 LINE"
);
}
);
width = 194;
}
);
rightKerningGroup = I;
unicode = 0049;
},
{
glyphname = Iogonek;
lastChange = "2019-12-17 05:05:03 +0000";
layers = (
{
layerId = "BB68A3FB-67CF-46D6-8942-4DAFE6725C7A";
paths = (
{
closed = 1;
nodes = (
"50 -32 OFFCURVE",
"22 -87 OFFCURVE",
"41 -133 CURVE SMOOTH",
"61 -180 OFFCURVE",
"109 -200 OFFCURVE",
"171 -200 CURVE SMOOTH",
"236 -200 OFFCURVE",
"284 -158 OFFCURVE",
"284 -158 CURVE",
"235 -82 LINE",
"235 -82 OFFCURVE",
"216 -91 OFFCURVE",
"200 -91 CURVE SMOOTH",
"191 -91 OFFCURVE",
"179 -85 OFFCURVE",
"179 -73 CURVE SMOOTH",
"179 -48 OFFCURVE",
"226 -28 OFFCURVE",
"284 0 CURVE",
"284 700 LINE",
"98 700 LINE",
"98 0 LINE"
);
}
);
width = 349;
},
{
layerId = "43EC01B8-31A0-4C9A-A12D-FF1A612D1D03";
paths = (
{
closed = 1;
nodes = (
"2 -28 OFFCURVE",
"-24 -85 OFFCURVE",
"-13 -122 CURVE",
"-4 -150 OFFCURVE",
"28 -177 OFFCURVE",
"70 -177 CURVE",
"107 -177 OFFCURVE",
"135 -163 OFFCURVE",
"135 -163 CURVE",
"109 -119 LINE",
"109 -119 OFFCURVE",
"91 -126 OFFCURVE",
"73 -125 CURVE",
"59 -124 OFFCURVE",
"43 -113 OFFCURVE",
"41 -99 CURVE",
"36 -69 OFFCURVE",
"56 -40 OFFCURVE",
"135 0 CURVE",
"135 700 LINE",
"71 700 LINE",
"71 0 LINE"
);
}
);
width = 200;
}
);
rightKerningGroup = I;
unicode = 012E;
},
{
glyphname = J;
lastChange = "2016-11-18 08:33:34 +0000";
layers = (
{
layerId = "BB68A3FB-67CF-46D6-8942-4DAFE6725C7A";
paths = (
{
closed = 1;
nodes = (
"406 700 LINE",
"220 700 LINE",
"220 326 LINE",
"221 236 OFFCURVE",
"148 163 OFFCURVE",
"58 163 CURVE",
"50 163 OFFCURVE",
"42 164 OFFCURVE",
"35 165 CURVE",
"35 -23 LINE",
"42 -24 OFFCURVE",
"51 -24 OFFCURVE",
"59 -24 CURVE",
"251 -24 OFFCURVE",
"407 133 OFFCURVE",
"407 326 CURVE"
);
}
);
width = 467;
},
{
layerId = "43EC01B8-31A0-4C9A-A12D-FF1A612D1D03";
paths = (
{
closed = 1;
nodes = (
"409 700 LINE",
"344 700 LINE",
"344 326 LINE",
"344 168 OFFCURVE",
"216 40 OFFCURVE",
"58 40 CURVE",
"50 40 OFFCURVE",
"43 41 OFFCURVE",
"35 41 CURVE",
"35 -23 LINE",
"43 -24 OFFCURVE",
"50 -24 OFFCURVE",
"58 -24 CURVE",
"252 -24 OFFCURVE",
"409 133 OFFCURVE",
"409 326 CURVE"
);
}
);
width = 469;
}
);
leftKerningGroup = J;
rightKerningGroup = J;
unicode = 004A;
},
{
glyphname = K;
lastChange = "2016-11-15 12:04:28 +0000";
layers = (
{
layerId = "BB68A3FB-67CF-46D6-8942-4DAFE6725C7A";
paths = (
{
closed = 1;
nodes = (
"65 0 LINE",
"250 0 LINE",
"250 700 LINE",
"65 700 LINE"
);
},
{
closed = 1;
nodes = (
"436 0 LINE",
"645 0 LINE",
"459 373 LINE",
"645 700 LINE",
"436 700 LINE",
"250 373 LINE"
);
}
);
width = 670;
},
{
layerId = "43EC01B8-31A0-4C9A-A12D-FF1A612D1D03";
paths = (
{
closed = 1;
nodes = (
"65 0 LINE",
"129 0 LINE",
"129 700 LINE",
"65 700 LINE"
);
},
{
closed = 1;
nodes = (
"450 0 LINE",
"531 0 LINE",
"216 373 LINE",
"531 700 LINE",
"450 700 LINE",
"129 373 LINE"
);
}
);
width = 556;
}
);
rightKerningGroup = K;
unicode = 004B;
},
{
glyphname = L;
lastChange = "2020-05-01 01:13:52 +0000";
layers = (
{
layerId = "BB68A3FB-67CF-46D6-8942-4DAFE6725C7A";
paths = (
{
closed = 1;
nodes = (
"251 700 LINE",
"65 700 LINE",
"65 0 LINE",
"599 0 LINE",
"599 165 LINE",
"251 165 LINE"
);
}
);
width = 624;
},
{
layerId = "43EC01B8-31A0-4C9A-A12D-FF1A612D1D03";
paths = (
{
closed = 1;
nodes = (
"129 700 LINE",
"65 700 LINE",
"65 0 LINE",
"531 0 LINE",
"531 58 LINE",
"129 58 LINE"
);
}
);
width = 556;
}
);
rightKerningGroup = L;
unicode = 004C;
},
{
glyphname = Lcaron;
lastChange = "2020-05-02 05:53:18 +0000";
layers = (
{
components = (
{
name = L;
}
);
layerId = "BB68A3FB-67CF-46D6-8942-4DAFE6725C7A";
paths = (
{
closed = 1;
nodes = (
"287 533 LINE",
"373 533 LINE",
"443 700 LINE",
"305 700 LINE"
);
}
);
width = 624;
},
{
components = (
{
name = L;
}
);
layerId = "43EC01B8-31A0-4C9A-A12D-FF1A612D1D03";
paths = (
{
closed = 1;
nodes = (
"165 533 LINE",
"201 533 LINE",
"255 700 LINE",
"193 700 LINE"
);
}
);
width = 556;
}
);
rightKerningGroup = L;
unicode = 013D;
},
{
glyphname = Lslash;
lastChange = "2020-05-02 07:25:54 +0000";
layers = (
{
layerId = "BB68A3FB-67CF-46D6-8942-4DAFE6725C7A";
paths = (
{
closed = 1;
nodes = (
"300 350 LINE",
"406 395 LINE",
"406 523 LINE",
"300 478 LINE",
"300 700 LINE",
"114 700 LINE",
"114 398 LINE",
"55 373 LINE",
"55 245 LINE",
"114 270 LINE",
"114 0 LINE",
"648 0 LINE",
"648 165 LINE",
"300 165 LINE"
);
}
);
width = 673;
},
{
layerId = "43EC01B8-31A0-4C9A-A12D-FF1A612D1D03";
paths = (
{
closed = 1;
nodes = (
"178 334 LINE",
"368 415 LINE",
"368 473 LINE",
"178 392 LINE",
"178 700 LINE",
"114 700 LINE",
"114 364 LINE",
"55 339 LINE",
"55 281 LINE",
"114 306 LINE",
"114 0 LINE",
"580 0 LINE",
"580 58 LINE",
"178 58 LINE"
);
}
);
width = 605;
}
);
rightKerningGroup = L;
unicode = 0141;
},
{
glyphname = M;
lastChange = "2016-12-14 02:14:36 +0000";
layers = (
{
layerId = "BB68A3FB-67CF-46D6-8942-4DAFE6725C7A";
paths = (
{
closed = 1;
nodes = (
"413 422 LINE",
"65 725 LINE",
"65 0 LINE",
"250 0 LINE",
"250 330 LINE",
"413 188 LINE",
"575 330 LINE",
"575 0 LINE",
"761 0 LINE",
"761 725 LINE"
);
}
);
width = 826;
},
{
layerId = "43EC01B8-31A0-4C9A-A12D-FF1A612D1D03";
paths = (
{
closed = 1;
nodes = (
"415 350 LINE",
"65 724 LINE",
"65 0 LINE",
"129 0 LINE",
"129 562 LINE",
"415 257 LINE",
"701 562 LINE",
"701 0 LINE",
"765 0 LINE",
"765 724 LINE"
);
}
);
width = 830;
}
);
unicode = 004D;
},
{
glyphname = N;
lastChange = "2016-11-15 11:06:20 +0000";
layers = (
{
layerId = "BB68A3FB-67CF-46D6-8942-4DAFE6725C7A";
paths = (
{
closed = 1;
nodes = (
"460 374 LINE",
"65 724 LINE",
"65 0 LINE",
"251 0 LINE",
"251 326 LINE",
"645 -24 LINE",
"645 700 LINE",
"460 700 LINE"
);
}
);
width = 710;
},
{
layerId = "43EC01B8-31A0-4C9A-A12D-FF1A612D1D03";
paths = (
{
closed = 1;
nodes = (
"584 151 LINE",
"65 724 LINE",
"65 0 LINE",
"129 0 LINE",
"129 547 LINE",
"648 -24 LINE",
"648 700 LINE",
"584 700 LINE"
);
}
);
width = 713;
}
);
unicode = 004E;
},
{
glyphname = Eng;
lastChange = "2020-05-02 04:24:23 +0000";
layers = (
{
layerId = "BB68A3FB-67CF-46D6-8942-4DAFE6725C7A";
paths = (
{
closed = 1;
nodes = (
"460 374 LINE",
"65 724 LINE",
"65 0 LINE",
"251 0 LINE",
"251 326 LINE",
"460 140 LINE",
"460 0 LINE",
"460 -34 OFFCURVE",
"434 -73 OFFCURVE",
"388 -73 CURVE",
"380 -73 OFFCURVE",
"372 -72 OFFCURVE",
"365 -70 CURVE",
"365 -228 LINE",
"380 -231 OFFCURVE",
"395 -233 OFFCURVE",
"411 -233 CURVE",
"540 -233 OFFCURVE",
"645 -129 OFFCURVE",
"645 0 CURVE",
"645 700 LINE",
"460 700 LINE"
);
}
);
width = 710;
},
{
layerId = "43EC01B8-31A0-4C9A-A12D-FF1A612D1D03";
paths = (
{
closed = 1;
nodes = (
"564 151 LINE",
"45 724 LINE",
"45 0 LINE",
"109 0 LINE",
"109 547 LINE",
"564 46 LINE",
"564 0 LINE",
"564 -74 OFFCURVE",
"530 -129 OFFCURVE",
"470 -162 CURVE",
"463 -167 OFFCURVE",
"455 -171 OFFCURVE",
"448 -174 CURVE",
"448 -223 LINE",
"455 -221 OFFCURVE",
"463 -220 OFFCURVE",
"470 -217 CURVE",
"562 -185 OFFCURVE",
"628 -102 OFFCURVE",
"628 0 CURVE",
"628 700 LINE",
"564 700 LINE"
);
}
);
width = 673;
}
);
unicode = 014A;
},
{
glyphname = O;
lastChange = "2020-04-28 03:22:32 +0000";
layers = (
{
layerId = "BB68A3FB-67CF-46D6-8942-4DAFE6725C7A";
paths = (
{
closed = 1;
nodes = (
"211 724 OFFCURVE",
"45 557 OFFCURVE",
"45 350 CURVE",
"45 143 OFFCURVE",
"211 -24 OFFCURVE",
"417 -24 CURVE",
"623 -24 OFFCURVE",
"789 143 OFFCURVE",
"789 350 CURVE",
"789 557 OFFCURVE",
"623 724 OFFCURVE",
"417 724 CURVE"
);
},
{
closed = 1;
nodes = (
"314 162 OFFCURVE",
"231 247 OFFCURVE",
"231 350 CURVE",
"231 453 OFFCURVE",
"314 538 OFFCURVE",
"417 538 CURVE",
"520 538 OFFCURVE",
"603 453 OFFCURVE",
"603 350 CURVE",
"603 247 OFFCURVE",
"520 162 OFFCURVE",
"417 162 CURVE"
);
}
);
width = 834;
},
{
layerId = "43EC01B8-31A0-4C9A-A12D-FF1A612D1D03";
paths = (
{
closed = 1;
nodes = (
"212 724 OFFCURVE",
"45 556 OFFCURVE",
"45 350 CURVE",
"45 144 OFFCURVE",
"212 -24 OFFCURVE",
"418 -24 CURVE",
"624 -24 OFFCURVE",
"791 144 OFFCURVE",
"791 350 CURVE",
"791 556 OFFCURVE",
"624 724 OFFCURVE",
"418 724 CURVE"
);
},
{
closed = 1;
nodes = (
"246 40 OFFCURVE",
"107 178 OFFCURVE",
"107 350 CURVE",
"107 522 OFFCURVE",
"246 660 OFFCURVE",
"418 660 CURVE",
"590 660 OFFCURVE",
"729 522 OFFCURVE",
"729 350 CURVE",
"729 178 OFFCURVE",
"590 40 OFFCURVE",
"418 40 CURVE"
);
}
);
width = 836;
}
);
leftKerningGroup = C;
rightKerningGroup = O;
unicode = 004F;
},
{
glyphname = Oslash;
lastChange = "2020-05-02 07:47:05 +0000";
layers = (
{
layerId = "BB68A3FB-67CF-46D6-8942-4DAFE6725C7A";
paths = (
{
closed = 1;
nodes = (
"626 742 LINE",
"584 684 LINE",
"534 709 OFFCURVE",
"477 724 OFFCURVE",
"417 724 CURVE SMOOTH",
"211 724 OFFCURVE",
"45 557 OFFCURVE",
"45 350 CURVE SMOOTH",
"45 250 OFFCURVE",
"83 160 OFFCURVE",
"146 93 CURVE",
"45 -43 LINE",
"208 -43 LINE",
"251 15 LINE",
"301 -10 OFFCURVE",
"357 -24 OFFCURVE",
"417 -24 CURVE SMOOTH",
"623 -24 OFFCURVE",
"789 143 OFFCURVE",
"789 350 CURVE SMOOTH",
"789 449 OFFCURVE",
"751 539 OFFCURVE",
"688 606 CURVE",
"789 742 LINE"
);
},
{
closed = 1;
nodes = (
"242 278 OFFCURVE",
"231 312 OFFCURVE",
"231 350 CURVE SMOOTH",
"231 453 OFFCURVE",
"314 538 OFFCURVE",
"417 538 CURVE SMOOTH",
"435 538 OFFCURVE",
"453 535 OFFCURVE",
"469 530 CURVE",
"261 248 LINE"
);
},
{
closed = 1;
nodes = (
"592 422 OFFCURVE",
"603 387 OFFCURVE",
"603 350 CURVE SMOOTH",
"603 247 OFFCURVE",
"520 162 OFFCURVE",
"417 162 CURVE SMOOTH",
"399 162 OFFCURVE",
"382 164 OFFCURVE",
"365 169 CURVE",
"574 451 LINE"
);
}
);
width = 834;
},
{
layerId = "43EC01B8-31A0-4C9A-A12D-FF1A612D1D03";
paths = (
{
closed = 1;
nodes = (
"674 742 LINE",
"617 666 LINE",
"559 703 OFFCURVE",
"491 724 OFFCURVE",
"418 724 CURVE SMOOTH",
"212 724 OFFCURVE",
"45 556 OFFCURVE",
"45 350 CURVE SMOOTH",
"45 238 OFFCURVE",
"95 136 OFFCURVE",
"173 68 CURVE",
"92 -42 LINE",
"162 -42 LINE",
"218 34 LINE",
"276 -3 OFFCURVE",
"344 -24 OFFCURVE",
"418 -24 CURVE SMOOTH",
"624 -24 OFFCURVE",
"791 144 OFFCURVE",
"791 350 CURVE SMOOTH",
"791 463 OFFCURVE",
"741 564 OFFCURVE",
"662 632 CURVE",
"744 742 LINE"
);
},
{
closed = 1;
nodes = (
"147 175 OFFCURVE",
"107 258 OFFCURVE",
"107 350 CURVE SMOOTH",
"107 522 OFFCURVE",
"246 660 OFFCURVE",
"418 660 CURVE SMOOTH",
"477 660 OFFCURVE",
"532 644 OFFCURVE",
"579 615 CURVE",
"211 118 LINE"
);
},
{
closed = 1;
nodes = (
"689 525 OFFCURVE",
"729 443 OFFCURVE",
"729 350 CURVE SMOOTH",
"729 178 OFFCURVE",
"590 40 OFFCURVE",
"418 40 CURVE SMOOTH",
"358 40 OFFCURVE",
"303 57 OFFCURVE",
"256 85 CURVE",
"625 582 LINE"
);
}
);
width = 836;
}
);
unicode = 00D8;
},
{
glyphname = OE;
lastChange = "2020-05-02 04:52:12 +0000";
layers = (
{
layerId = "BB68A3FB-67CF-46D6-8942-4DAFE6725C7A";
paths = (
{
closed = 1;
nodes = (
"1091 700 LINE",
"603 700 LINE",
"603 674 LINE",
"549 706 OFFCURVE",
"485 724 OFFCURVE",
"417 724 CURVE",
"211 724 OFFCURVE",
"45 557 OFFCURVE",
"45 350 CURVE",
"45 143 OFFCURVE",
"211 -24 OFFCURVE",
"417 -24 CURVE",
"485 -24 OFFCURVE",
"549 -6 OFFCURVE",
"603 26 CURVE",
"603 0 LINE",
"1091 0 LINE",
"1091 164 LINE",
"789 164 LINE",
"789 281 LINE",
"1076 281 LINE",
"1076 432 LINE",
"789 432 LINE",
"789 537 LINE",
"1091 537 LINE"
);
},
{
closed = 1;
nodes = (
"314 162 OFFCURVE",
"231 247 OFFCURVE",
"231 350 CURVE",
"231 453 OFFCURVE",
"314 538 OFFCURVE",
"417 538 CURVE",
"520 538 OFFCURVE",
"603 453 OFFCURVE",
"603 350 CURVE",
"603 247 OFFCURVE",
"520 162 OFFCURVE",
"417 162 CURVE"
);
}
);
width = 1156;
},
{
layerId = "43EC01B8-31A0-4C9A-A12D-FF1A612D1D03";
paths = (
{
closed = 1;
nodes = (
"1149 700 LINE",
"729 700 LINE",
"729 556 LINE",
"663 657 OFFCURVE",
"548 724 OFFCURVE",
"418 724 CURVE",
"212 724 OFFCURVE",
"45 556 OFFCURVE",
"45 350 CURVE",
"45 144 OFFCURVE",
"212 -24 OFFCURVE",
"418 -24 CURVE",
"548 -24 OFFCURVE",
"663 43 OFFCURVE",
"729 144 CURVE",
"729 0 LINE",
"1149 0 LINE",
"1149 58 LINE",
"794 58 LINE",
"794 338 LINE",
"1134 338 LINE",
"1134 396 LINE",
"794 396 LINE",
"794 641 LINE",
"1149 641 LINE"
);
},
{
closed = 1;
nodes = (
"246 40 OFFCURVE",
"107 178 OFFCURVE",
"107 350 CURVE",
"107 522 OFFCURVE",
"246 660 OFFCURVE",
"418 660 CURVE",
"590 660 OFFCURVE",
"729 522 OFFCURVE",
"729 350 CURVE",
"729 178 OFFCURVE",
"590 40 OFFCURVE",
"418 40 CURVE"
);
}
);
width = 1214;
}
);
leftKerningGroup = C;
unicode = 0152;
},
{
glyphname = P;
lastChange = "2016-11-18 08:22:42 +0000";
layers = (
{
layerId = "BB68A3FB-67CF-46D6-8942-4DAFE6725C7A";
paths = (
{
closed = 1;
nodes = (
"65 0 LINE",
"251 0 LINE",
"251 234 LINE",
"413 234 LINE",
"541 234 OFFCURVE",
"645 338 OFFCURVE",
"645 467 CURVE",
"645 596 OFFCURVE",
"541 700 OFFCURVE",
"413 700 CURVE",
"65 700 LINE"
);
},
{
closed = 1;
nodes = (
"390 537 LINE",
"428 537 OFFCURVE",
"460 505 OFFCURVE",
"460 467 CURVE",
"460 428 OFFCURVE",
"428 397 OFFCURVE",
"390 397 CURVE",
"251 397 LINE",
"251 537 LINE"
);
}
);
width = 680;
},
{
layerId = "43EC01B8-31A0-4C9A-A12D-FF1A612D1D03";
paths = (
{
closed = 1;
nodes = (
"65 0 LINE",
"129 0 LINE",
"129 303 LINE",
"356 303 LINE SMOOTH",
"466 303 OFFCURVE",
"555 392 OFFCURVE",
"555 502 CURVE SMOOTH",
"555 611 OFFCURVE",
"466 700 OFFCURVE",
"356 700 CURVE SMOOTH",
"65 700 LINE"
);
},
{
closed = 1;
nodes = (
"351 642 LINE SMOOTH",
"428 642 OFFCURVE",
"491 579 OFFCURVE",
"491 502 CURVE SMOOTH",
"491 424 OFFCURVE",
"428 362 OFFCURVE",
"351 362 CURVE SMOOTH",
"129 362 LINE",
"129 642 LINE"
);
}
);
width = 590;
}
);
rightKerningGroup = P;
unicode = 0050;
},
{
glyphname = Thorn;
lastChange = "2020-05-02 07:38:41 +0000";
layers = (
{
layerId = "BB68A3FB-67CF-46D6-8942-4DAFE6725C7A";
paths = (
{
closed = 1;
nodes = (
"390 420 LINE",
"428 420 OFFCURVE",
"460 389 OFFCURVE",
"460 350 CURVE",
"460 312 OFFCURVE",
"428 280 OFFCURVE",
"390 280 CURVE",
"251 280 LINE",
"251 420 LINE"
);
},
{
closed = 1;
nodes = (
"251 117 LINE",
"413 117 LINE",
"541 117 OFFCURVE",
"645 221 OFFCURVE",
"645 350 CURVE",
"645 479 OFFCURVE",
"541 583 OFFCURVE",
"413 583 CURVE",
"251 583 LINE",
"251 700 LINE",
"65 700 LINE",
"65 0 LINE",
"251 0 LINE"
);
}
);
width = 680;
},
{
layerId = "43EC01B8-31A0-4C9A-A12D-FF1A612D1D03";
paths = (
{
closed = 1;
nodes = (
"351 490 LINE",
"428 490 OFFCURVE",
"491 428 OFFCURVE",
"491 350 CURVE",
"491 273 OFFCURVE",
"428 210 OFFCURVE",
"351 210 CURVE",
"129 210 LINE",
"129 490 LINE"
);
},
{
closed = 1;
nodes = (
"129 152 LINE",
"356 152 LINE",
"466 152 OFFCURVE",
"555 241 OFFCURVE",
"555 350 CURVE",
"555 460 OFFCURVE",
"466 549 OFFCURVE",
"356 549 CURVE",
"129 549 LINE",
"129 700 LINE",
"65 700 LINE",
"65 0 LINE",
"129 0 LINE"
);
}
);
width = 590;
}
);
unicode = 00DE;
},
{
glyphname = Q;
lastChange = "2016-11-15 12:08:47 +0000";
layers = (
{
layerId = "BB68A3FB-67CF-46D6-8942-4DAFE6725C7A";
paths = (
{
closed = 1;
nodes = (
"792 556 OFFCURVE",
"626 723 OFFCURVE",
"421 723 CURVE",
"216 723 OFFCURVE",
"50 556 OFFCURVE",
"50 350 CURVE",
"50 144 OFFCURVE",
"216 -24 OFFCURVE",
"421 -24 CURVE",
"478 -24 OFFCURVE",
"532 -11 OFFCURVE",
"580 12 CURVE",
"607 -23 LINE",
"792 -23 LINE",
"699 102 LINE",
"757 168 OFFCURVE",
"792 255 OFFCURVE",
"792 350 CURVE"
);
},
{
closed = 1;
nodes = (
"318 163 OFFCURVE",
"235 247 OFFCURVE",
"235 350 CURVE",
"235 453 OFFCURVE",
"318 537 OFFCURVE",
"421 537 CURVE",
"524 537 OFFCURVE",
"607 453 OFFCURVE",
"607 350 CURVE",
"607 316 OFFCURVE",
"598 285 OFFCURVE",
"582 257 CURVE",
"582 257 LINE",
"398 257 LINE",
"464 168 LINE",
"450 165 OFFCURVE",
"436 163 OFFCURVE",
"421 163 CURVE"
);
}
);
width = 842;
},
{
layerId = "43EC01B8-31A0-4C9A-A12D-FF1A612D1D03";
paths = (
{
closed = 1;
nodes = (
"796 555 OFFCURVE",
"629 723 OFFCURVE",
"423 723 CURVE",
"217 723 OFFCURVE",
"50 555 OFFCURVE",
"50 350 CURVE",
"50 144 OFFCURVE",
"218 -24 OFFCURVE",
"423 -24 CURVE",
"490 -24 OFFCURVE",
"553 -6 OFFCURVE",
"607 24 CURVE",
"645 -24 LINE",
"726 -24 LINE",
"660 61 LINE",
"743 129 OFFCURVE",
"796 234 OFFCURVE",
"796 350 CURVE"
);
},
{
closed = 1;
nodes = (
"251 40 OFFCURVE",
"112 178 OFFCURVE",
"112 350 CURVE",
"112 521 OFFCURVE",
"252 659 OFFCURVE",
"423 659 CURVE",
"595 659 OFFCURVE",
"735 521 OFFCURVE",
"735 350 CURVE",
"735 254 OFFCURVE",
"691 167 OFFCURVE",
"623 110 CURVE",
"528 232 LINE",
"447 232 LINE",
"569 74 LINE",
"525 51 OFFCURVE",
"476 40 OFFCURVE",
"423 40 CURVE"
);
}
);
width = 846;
}
);
leftKerningGroup = C;
rightKerningGroup = Q;
unicode = 0051;
},
{
glyphname = R;
lastChange = "2016-11-16 00:44:41 +0000";
layers = (
{
layerId = "BB68A3FB-67CF-46D6-8942-4DAFE6725C7A";
paths = (
{
closed = 1;
nodes = (
"65 0 LINE",
"251 0 LINE",
"251 233 LINE",
"342 233 LINE",
"438 0 LINE",
"648 0 LINE",
"532 281 LINE",
"589 324 OFFCURVE",
"625 391 OFFCURVE",
"625 467 CURVE",
"625 596 OFFCURVE",
"520 700 OFFCURVE",
"391 700 CURVE",
"65 700 LINE"
);
},
{
closed = 1;
nodes = (
"368 537 LINE",
"407 537 OFFCURVE",
"438 505 OFFCURVE",
"438 467 CURVE",
"438 428 OFFCURVE",
"407 397 OFFCURVE",
"368 397 CURVE",
"251 397 LINE",
"251 537 LINE"
);
}
);
width = 683;
},
{
layerId = "43EC01B8-31A0-4C9A-A12D-FF1A612D1D03";
paths = (
{
closed = 1;
nodes = (
"65 0 LINE",
"129 0 LINE",
"129 303 LINE",
"356 303 LINE",
"508 0 LINE",
"578 0 LINE",
"421 314 LINE",
"499 341 OFFCURVE",
"555 415 OFFCURVE",
"555 502 CURVE",
"555 611 OFFCURVE",
"466 700 OFFCURVE",
"356 700 CURVE",
"65 700 LINE"
);
},
{
closed = 1;
nodes = (
"350 642 LINE",
"428 642 OFFCURVE",
"490 579 OFFCURVE",
"490 502 CURVE",
"490 424 OFFCURVE",
"428 362 OFFCURVE",
"350 362 CURVE",
"129 362 LINE",
"129 642 LINE"
);
}
);
width = 613;
}
);
rightKerningGroup = R;
unicode = 0052;
},
{
glyphname = S;
lastChange = "2020-04-27 13:27:36 +0000";
layers = (
{
layerId = "BB68A3FB-67CF-46D6-8942-4DAFE6725C7A";
paths = (
{
closed = 1;
nodes = (
"275 454 OFFCURVE",
"236 476 OFFCURVE",
"236 508 CURVE",
"236 541 OFFCURVE",
"274 560 OFFCURVE",
"316 561 CURVE",
"357 561 OFFCURVE",
"386 544 OFFCURVE",
"403 517 CURVE",
"561 590 LINE",
"524 669 OFFCURVE",
"433 724 OFFCURVE",
"316 724 CURVE",
"165 724 OFFCURVE",
"50 625 OFFCURVE",
"50 502 CURVE",
"50 384 OFFCURVE",
"179 318 OFFCURVE",
"304 281 CURVE",
"349 267 OFFCURVE",
"397 246 OFFCURVE",
"397 203 CURVE",
"397 159 OFFCURVE",
"350 137 OFFCURVE",
"298 140 CURVE",
"252 143 OFFCURVE",
"202 181 OFFCURVE",
"187 209 CURVE",
"25 134 LINE",
"71 45 OFFCURVE",
"173 -23 OFFCURVE",
"298 -23 CURVE",
"457 -23 OFFCURVE",
"583 56 OFFCURVE",
"583 193 CURVE",
"583 331 OFFCURVE",
"458 395 OFFCURVE",
"319 440 CURVE"
);
}
);
width = 618;
},
{
layerId = "43EC01B8-31A0-4C9A-A12D-FF1A612D1D03";
paths = (
{
closed = 1;
nodes = (
"206 417 OFFCURVE",
"115 443 OFFCURVE",
"115 514 CURVE",
"115 602 OFFCURVE",
"201 660 OFFCURVE",
"293 660 CURVE",
"375 660 OFFCURVE",
"427 622 OFFCURVE",
"466 562 CURVE",
"525 590 LINE",
"488 662 OFFCURVE",
"405 724 OFFCURVE",
"293 724 CURVE",
"154 724 OFFCURVE",
"48 630 OFFCURVE",
"48 508 CURVE",
"48 411 OFFCURVE",
"166 357 OFFCURVE",
"282 325 CURVE SMOOTH",
"370 301 OFFCURVE",
"473 261 OFFCURVE",
"473 184 CURVE SMOOTH",
"473 87 OFFCURVE",
"370 40 OFFCURVE",
"276 40 CURVE SMOOTH",
"194 40 OFFCURVE",
"126 96 OFFCURVE",
"87 163 CURVE",
"25 133 LINE",
"74 44 OFFCURVE",
"166 -24 OFFCURVE",
"276 -24 CURVE SMOOTH",
"423 -24 OFFCURVE",
"538 57 OFFCURVE",
"538 184 CURVE SMOOTH",
"538 310 OFFCURVE",
"414 356 OFFCURVE",
"295 391 CURVE SMOOTH"
);
}
);
width = 573;
}
);
leftKerningGroup = S;
rightKerningGroup = S;
unicode = 0053;
},
{
glyphname = T;
lastChange = "2020-04-28 17:20:05 +0000";
layers = (
{
layerId = "BB68A3FB-67CF-46D6-8942-4DAFE6725C7A";
paths = (
{
closed = 1;
nodes = (
"35 700 LINE",
"35 514 LINE",
"255 514 LINE",
"255 0 LINE",
"441 0 LINE",
"441 514 LINE",
"661 514 LINE",
"661 700 LINE"
);
}
);
width = 696;
},
{
layerId = "43EC01B8-31A0-4C9A-A12D-FF1A612D1D03";
paths = (
{
closed = 1;
nodes = (
"35 700 LINE",
"35 640 LINE",
"295 640 LINE",
"295 0 LINE",
"359 0 LINE",
"359 640 LINE",
"619 640 LINE",
"619 700 LINE"
);
}
);
width = 654;
}
);
leftKerningGroup = T;
rightKerningGroup = T;
unicode = 0054;
},
{
glyphname = Tbar;
lastChange = "2020-05-01 04:34:49 +0000";
layers = (
{
layerId = "BB68A3FB-67CF-46D6-8942-4DAFE6725C7A";
paths = (
{
closed = 1;
nodes = (
"255 514 LINE",
"255 395 LINE",
"152 395 LINE",
"152 267 LINE",
"255 267 LINE",
"255 0 LINE",
"441 0 LINE",
"441 267 LINE",
"544 267 LINE",
"544 395 LINE",
"441 395 LINE",
"441 514 LINE",
"661 514 LINE",
"661 700 LINE",
"35 700 LINE",
"35 514 LINE"
);
}
);
width = 696;
},
{
layerId = "43EC01B8-31A0-4C9A-A12D-FF1A612D1D03";
paths = (
{
closed = 1;
nodes = (
"295 640 LINE",
"295 395 LINE",
"169 395 LINE",
"169 337 LINE",
"295 337 LINE",
"295 0 LINE",
"359 0 LINE",
"359 337 LINE",
"485 337 LINE",
"485 395 LINE",
"359 395 LINE",
"359 640 LINE",
"619 640 LINE",
"619 700 LINE",
"35 700 LINE",
"35 640 LINE"
);
}
);
width = 654;
}
);
leftKerningGroup = T;
rightKerningGroup = T;
unicode = 0166;
},
{
glyphname = U;
lastChange = "2019-12-16 07:46:35 +0000";
layers = (
{
layerId = "BB68A3FB-67CF-46D6-8942-4DAFE6725C7A";
paths = (
{
closed = 1;
nodes = (
"483 279 LINE SMOOTH",
"483 215 OFFCURVE",
"431 163 OFFCURVE",
"367 163 CURVE SMOOTH",
"303 163 OFFCURVE",
"251 215 OFFCURVE",
"251 279 CURVE SMOOTH",
"251 700 LINE",
"65 700 LINE",
"65 279 LINE SMOOTH",
"65 112 OFFCURVE",
"200 -24 OFFCURVE",
"367 -24 CURVE SMOOTH",
"534 -24 OFFCURVE",
"669 112 OFFCURVE",
"669 279 CURVE SMOOTH",
"669 700 LINE",
"483 700 LINE"
);
}
);
width = 734;
},
{
layerId = "43EC01B8-31A0-4C9A-A12D-FF1A612D1D03";
paths = (
{
closed = 1;
nodes = (
"515 227 LINE SMOOTH",
"515 121 OFFCURVE",
"429 34 OFFCURVE",
"322 34 CURVE SMOOTH",
"216 34 OFFCURVE",
"130 121 OFFCURVE",
"130 227 CURVE SMOOTH",
"130 700 LINE",
"65 700 LINE",
"65 233 LINE SMOOTH",
"65 91 OFFCURVE",
"180 -24 OFFCURVE",
"322 -24 CURVE SMOOTH",
"464 -24 OFFCURVE",
"579 91 OFFCURVE",
"579 233 CURVE SMOOTH",
"579 700 LINE",
"515 700 LINE"
);
}
);
width = 644;
}
);
rightKerningGroup = U;
unicode = 0055;
},
{
glyphname = Uogonek;
lastChange = "2019-12-17 05:18:07 +0000";
layers = (
{
layerId = "BB68A3FB-67CF-46D6-8942-4DAFE6725C7A";
paths = (
{
closed = 1;
nodes = (
"483 279 LINE SMOOTH",
"483 215 OFFCURVE",
"431 163 OFFCURVE",
"367 163 CURVE SMOOTH",
"303 163 OFFCURVE",
"251 215 OFFCURVE",
"251 279 CURVE SMOOTH",
"251 700 LINE",
"65 700 LINE",
"65 279 LINE SMOOTH",
"65 120 OFFCURVE",
"187 -11 OFFCURVE",
"343 -23 CURVE SMOOTH",
"343 -23 OFFCURVE",
"343 -23 OFFCURVE",
"343 -23 CURVE",
"319 -52 OFFCURVE",
"305 -98 OFFCURVE",
"319 -133 CURVE SMOOTH",
"339 -180 OFFCURVE",
"387 -200 OFFCURVE",
"449 -200 CURVE SMOOTH",
"514 -200 OFFCURVE",
"562 -158 OFFCURVE",
"562 -158 CURVE",
"513 -82 LINE",
"513 -82 OFFCURVE",
"494 -91 OFFCURVE",
"478 -91 CURVE SMOOTH",
"469 -91 OFFCURVE",
"457 -85 OFFCURVE",
"457 -73 CURVE SMOOTH",
"457 -44 OFFCURVE",
"477 -23 OFFCURVE",
"549 37 CURVE SMOOTH",
"622 92 OFFCURVE",
"669 180 OFFCURVE",
"669 279 CURVE SMOOTH",
"669 700 LINE",
"483 700 LINE"
);
}
);
width = 734;
},
{
layerId = "43EC01B8-31A0-4C9A-A12D-FF1A612D1D03";
paths = (
{
closed = 1;
nodes = (
"515 227 LINE",
"515 121 OFFCURVE",
"429 34 OFFCURVE",
"322 34 CURVE",
"216 34 OFFCURVE",
"130 121 OFFCURVE",
"130 227 CURVE",
"130 700 LINE",
"65 700 LINE",
"65 233 LINE",
"65 91 OFFCURVE",
"180 -24 OFFCURVE",
"322 -24 CURVE",
"326 -24 OFFCURVE",
"331 -24 OFFCURVE",
"335 -24 CURVE",
"307 -53 OFFCURVE",
"300 -93 OFFCURVE",
"309 -122 CURVE",
"317 -150 OFFCURVE",
"349 -177 OFFCURVE",
"391 -177 CURVE",
"429 -177 OFFCURVE",
"456 -163 OFFCURVE",
"456 -163 CURVE",
"430 -119 LINE",
"430 -119 OFFCURVE",
"412 -126 OFFCURVE",
"394 -125 CURVE",
"380 -124 OFFCURVE",
"364 -113 OFFCURVE",
"362 -99 CURVE",
"357 -69 OFFCURVE",
"373 -37 OFFCURVE",
"454 13 CURVE",
"529 58 OFFCURVE",
"579 139 OFFCURVE",
"579 233 CURVE",
"579 700 LINE",
"515 700 LINE"
);
}
);
width = 644;
}
);
rightKerningGroup = U;
unicode = 0172;
},
{
glyphname = V;
lastChange = "2016-12-14 10:00:04 +0000";
layers = (
{
layerId = "BB68A3FB-67CF-46D6-8942-4DAFE6725C7A";
paths = (
{
closed = 1;
nodes = (
"507 700 LINE",
"368 396 LINE",
"229 700 LINE",
"20 700 LINE",
"368 -24 LINE",
"716 700 LINE"
);
}
);
width = 736;
},
{
layerId = "43EC01B8-31A0-4C9A-A12D-FF1A612D1D03";
paths = (
{
closed = 1;
nodes = (
"550 700 LINE",
"320 139 LINE",
"90 700 LINE",
"20 700 LINE",
"320 -24 LINE",
"620 700 LINE"
);
}
);
width = 640;
}
);
leftKerningGroup = V;
rightKerningGroup = V;
unicode = 0056;
},
{
glyphname = W;
lastChange = "2016-11-21 02:31:50 +0000";
layers = (
{
layerId = "BB68A3FB-67CF-46D6-8942-4DAFE6725C7A";
paths = (
{
closed = 1;
nodes = (
"650 396 LINE",
"487 724 LINE",
"323 396 LINE",
"207 700 LINE",
"20 700 LINE",
"300 -24 LINE",
"487 350 LINE",
"673 -24 LINE",
"954 700 LINE",
"767 700 LINE"
);
}
);
width = 974;
},
{
layerId = "43EC01B8-31A0-4C9A-A12D-FF1A612D1D03";
paths = (
{
closed = 1;
nodes = (
"627 186 LINE",
"440 724 LINE",
"253 186 LINE",
"90 700 LINE",
"20 700 LINE",
"253 -24 LINE",
"440 513 LINE",
"627 -24 LINE",
"860 700 LINE",
"790 700 LINE"
);
}
);
width = 880;
}
);
leftKerningGroup = W;
rightKerningGroup = W;
unicode = 0057;
},
{
glyphname = X;
lastChange = "2016-11-15 11:25:10 +0000";
layers = (
{
layerId = "BB68A3FB-67CF-46D6-8942-4DAFE6725C7A";
paths = (
{
closed = 1;
nodes = (
"437 701 LINE",
"333 525 LINE",
"229 701 LINE",
"20 701 LINE",
"229 350 LINE",
"20 -1 LINE",
"229 -1 LINE",
"333 175 LINE",
"437 -1 LINE",
"646 -1 LINE",
"437 350 LINE",
"646 701 LINE"
);
}
);
width = 666;
},
{
layerId = "43EC01B8-31A0-4C9A-A12D-FF1A612D1D03";
paths = (
{
closed = 1;
nodes = (
"487 700 LINE",
"294 411 LINE",
"102 700 LINE",
"20 700 LINE",
"253 350 LINE",
"20 0 LINE",
"102 0 LINE",
"294 289 LINE",
"487 0 LINE",
"568 0 LINE",
"335 350 LINE",
"568 700 LINE"
);
}
);
width = 588;
}
);
leftKerningGroup = X;
rightKerningGroup = X;
unicode = 0058;
},
{
glyphname = Y;
lastChange = "2020-05-02 05:21:19 +0000";
layers = (
{
layerId = "BB68A3FB-67CF-46D6-8942-4DAFE6725C7A";
paths = (
{
closed = 1;
nodes = (
"437 700 LINE",
"333 467 LINE",
"229 700 LINE",
"20 700 LINE",
"240 269 LINE",
"240 0 LINE",
"426 0 LINE",
"426 269 LINE",
"646 700 LINE"
);
}
);
width = 666;
},
{
layerId = "43EC01B8-31A0-4C9A-A12D-FF1A612D1D03";
paths = (
{
closed = 1;
nodes = (
"486 700 LINE",
"288 373 LINE",
"90 700 LINE",
"20 700 LINE",
"256 303 LINE",
"256 0 LINE",
"320 0 LINE",
"320 303 LINE",
"556 700 LINE"
);
}
);
width = 576;
}
);
leftKerningGroup = Y;
rightKerningGroup = Y;
unicode = 0059;
},
{
glyphname = Z;
lastChange = "2019-12-16 07:49:40 +0000";
layers = (
{
layerId = "BB68A3FB-67CF-46D6-8942-4DAFE6725C7A";
paths = (
{
closed = 1;
nodes = (
"649 701 LINE",
"92 701 LINE",
"92 537 LINE",
"348 537 LINE",
"45 0 LINE",
"649 0 LINE",
"649 164 LINE",
"346 164 LINE"
);
}
);
width = 694;
},
{
layerId = "43EC01B8-31A0-4C9A-A12D-FF1A612D1D03";
paths = (
{
closed = 1;
nodes = (
"556 700 LINE",
"90 700 LINE",
"90 642 LINE",
"449 642 LINE",
"43 0 LINE",
"556 0 LINE",
"556 58 LINE",
"150 58 LINE"
);
}
);
width = 600;
}
);
leftKerningGroup = Z;
unicode = 005A;
},
{
glyphname = a;
lastChange = "2020-05-03 00:32:25 +0000";
layers = (
{
layerId = "BB68A3FB-67CF-46D6-8942-4DAFE6725C7A";
paths = (
{
closed = 1;
nodes = (
"150 490 OFFCURVE",
"35 375 OFFCURVE",
"35 233 CURVE",
"35 91 OFFCURVE",
"150 -24 OFFCURVE",
"292 -24 CURVE",
"325 -24 OFFCURVE",
"356 -18 OFFCURVE",
"385 -6 CURVE",
"385 -24 LINE",
"549 -24 LINE",
"549 233 LINE",
"549 375 OFFCURVE",
"434 490 OFFCURVE",
"292 490 CURVE SMOOTH"
);
},
{
closed = 1;
nodes = (
"240 140 OFFCURVE",
"199 181 OFFCURVE",
"199 233 CURVE",
"199 285 OFFCURVE",
"240 326 OFFCURVE",
"292 326 CURVE",
"344 326 OFFCURVE",
"385 285 OFFCURVE",
"385 233 CURVE",
"385 181 OFFCURVE",
"344 140 OFFCURVE",
"292 140 CURVE"
);
}
);
width = 599;
},
{
layerId = "43EC01B8-31A0-4C9A-A12D-FF1A612D1D03";
paths = (
{
closed = 1;
nodes = (
"150 490 OFFCURVE",
"35 375 OFFCURVE",
"35 233 CURVE",
"35 91 OFFCURVE",
"150 -24 OFFCURVE",
"292 -24 CURVE",
"372 -24 OFFCURVE",
"443 13 OFFCURVE",
"490 70 CURVE",
"490 -24 LINE",
"549 -24 LINE",
"549 233 LINE",
"549 375 OFFCURVE",
"433 490 OFFCURVE",
"292 490 CURVE"
);
},
{
closed = 1;
nodes = (
"182 34 OFFCURVE",
"93 123 OFFCURVE",
"93 233 CURVE",
"93 343 OFFCURVE",
"182 432 OFFCURVE",
"292 432 CURVE",
"401 432 OFFCURVE",
"490 343 OFFCURVE",
"490 233 CURVE",
"490 123 OFFCURVE",
"401 34 OFFCURVE",
"292 34 CURVE"
);
}
);
width = 599;
}
);
leftKerningGroup = a;
rightKerningGroup = a;
unicode = 0061;
},
{
glyphname = aogonek;
lastChange = "2019-12-17 05:33:53 +0000";
layers = (
{
layerId = "BB68A3FB-67CF-46D6-8942-4DAFE6725C7A";
paths = (
{
closed = 1;
nodes = (
"150 490 OFFCURVE",
"35 375 OFFCURVE",
"35 233 CURVE SMOOTH",
"35 91 OFFCURVE",
"150 -24 OFFCURVE",
"292 -24 CURVE SMOOTH",
"319 -24 OFFCURVE",
"344 -20 OFFCURVE",
"368 -12 CURVE",
"368 -12 LINE",
"314 -38 OFFCURVE",
"287 -87 OFFCURVE",
"306 -133 CURVE SMOOTH",
"326 -180 OFFCURVE",
"374 -200 OFFCURVE",
"436 -200 CURVE SMOOTH",
"501 -200 OFFCURVE",
"549 -158 OFFCURVE",
"549 -158 CURVE",
"500 -82 LINE",
"500 -82 OFFCURVE",
"481 -91 OFFCURVE",
"465 -91 CURVE SMOOTH",
"456 -91 OFFCURVE",
"444 -85 OFFCURVE",
"444 -73 CURVE SMOOTH",
"444 -48 OFFCURVE",
"491 -28 OFFCURVE",
"549 0 CURVE",
"549 233 LINE SMOOTH",
"549 375 OFFCURVE",
"434 490 OFFCURVE",
"292 490 CURVE SMOOTH"
);
},
{
closed = 1;
nodes = (
"240 140 OFFCURVE",
"199 181 OFFCURVE",
"199 233 CURVE SMOOTH",
"199 285 OFFCURVE",
"240 326 OFFCURVE",
"292 326 CURVE SMOOTH",
"344 326 OFFCURVE",
"385 285 OFFCURVE",
"385 233 CURVE SMOOTH",
"385 181 OFFCURVE",
"344 140 OFFCURVE",
"292 140 CURVE SMOOTH"
);
}
);
width = 599;
},
{
layerId = "43EC01B8-31A0-4C9A-A12D-FF1A612D1D03";
paths = (
{
closed = 1;
nodes = (
"150 490 OFFCURVE",
"35 375 OFFCURVE",
"35 233 CURVE SMOOTH",
"35 91 OFFCURVE",
"150 -24 OFFCURVE",
"292 -24 CURVE SMOOTH",
"372 -24 OFFCURVE",
"443 13 OFFCURVE",
"490 70 CURVE",
"490 13 LINE",
"409 -29 OFFCURVE",
"390 -85 OFFCURVE",
"402 -122 CURVE SMOOTH",
"411 -151 OFFCURVE",
"442 -177 OFFCURVE",
"484 -177 CURVE SMOOTH",
"522 -177 OFFCURVE",
"549 -163 OFFCURVE",
"549 -163 CURVE",
"523 -119 LINE",
"523 -119 OFFCURVE",
"505 -126 OFFCURVE",
"487 -125 CURVE SMOOTH",
"473 -124 OFFCURVE",
"457 -113 OFFCURVE",
"455 -99 CURVE SMOOTH",
"450 -69 OFFCURVE",
"471 -40 OFFCURVE",
"549 0 CURVE",
"549 233 LINE SMOOTH",
"549 375 OFFCURVE",
"433 490 OFFCURVE",
"292 490 CURVE SMOOTH"
);
},
{
closed = 1;
nodes = (
"182 34 OFFCURVE",
"93 123 OFFCURVE",
"93 233 CURVE SMOOTH",
"93 343 OFFCURVE",
"182 432 OFFCURVE",
"292 432 CURVE SMOOTH",
"401 432 OFFCURVE",
"490 343 OFFCURVE",
"490 233 CURVE SMOOTH",
"490 123 OFFCURVE",
"401 34 OFFCURVE",
"292 34 CURVE SMOOTH"
);
}
);
width = 599;
}
);
leftKerningGroup = a;
rightKerningGroup = a;
unicode = 0105;
},
{
glyphname = ae;
lastChange = "2020-05-02 04:49:19 +0000";
layers = (
{
layerId = "BB68A3FB-67CF-46D6-8942-4DAFE6725C7A";
paths = (
{
closed = 1;
nodes = (
"899 375 OFFCURVE",
"784 490 OFFCURVE",
"642 490 CURVE SMOOTH",
"574 490 OFFCURVE",
"513 464 OFFCURVE",
"467 421 CURVE",
"421 464 OFFCURVE",
"360 490 OFFCURVE",
"292 490 CURVE SMOOTH",
"150 490 OFFCURVE",
"35 375 OFFCURVE",
"35 233 CURVE SMOOTH",
"35 91 OFFCURVE",
"150 -24 OFFCURVE",
"292 -24 CURVE SMOOTH",
"325 -24 OFFCURVE",
"356 -18 OFFCURVE",
"385 -6 CURVE",
"385 -24 LINE",
"549 -24 LINE",
"549 -7 LINE",
"578 -18 OFFCURVE",
"609 -24 OFFCURVE",
"642 -24 CURVE SMOOTH",
"700 -24 OFFCURVE",
"754 -4 OFFCURVE",
"797 28 CURVE",
"706 149 LINE",
"688 136 OFFCURVE",
"666 128 OFFCURVE",
"642 128 CURVE SMOOTH",
"605 128 OFFCURVE",
"568 146 OFFCURVE",
"549 186 CURVE",
"895 186 LINE",
"897 201 OFFCURVE",
"899 217 OFFCURVE",
"899 233 CURVE SMOOTH"
);
},
{
closed = 1;
nodes = (
"565 314 OFFCURVE",
"601 338 OFFCURVE",
"642 338 CURVE SMOOTH",
"683 338 OFFCURVE",
"719 314 OFFCURVE",
"736 279 CURVE",
"548 279 LINE"
);
},
{
closed = 1;
nodes = (
"240 140 OFFCURVE",
"199 181 OFFCURVE",
"199 233 CURVE SMOOTH",
"199 285 OFFCURVE",
"240 326 OFFCURVE",
"292 326 CURVE SMOOTH",
"344 326 OFFCURVE",
"385 285 OFFCURVE",
"385 233 CURVE SMOOTH",
"385 181 OFFCURVE",
"344 140 OFFCURVE",
"292 140 CURVE SMOOTH"
);
}
);
width = 939;
},
{
layerId = "43EC01B8-31A0-4C9A-A12D-FF1A612D1D03";
paths = (
{
closed = 1;
nodes = (
"1005 375 OFFCURVE",
"890 490 OFFCURVE",
"748 490 CURVE SMOOTH",
"648 490 OFFCURVE",
"562 433 OFFCURVE",
"520 351 CURVE",
"477 433 OFFCURVE",
"390 490 OFFCURVE",
"292 490 CURVE SMOOTH",
"150 490 OFFCURVE",
"35 375 OFFCURVE",
"35 233 CURVE SMOOTH",
"35 91 OFFCURVE",
"150 -24 OFFCURVE",
"292 -24 CURVE SMOOTH",
"372 -24 OFFCURVE",
"443 13 OFFCURVE",
"490 70 CURVE",
"490 -24 LINE",
"549 -24 LINE",
"549 69 LINE",
"596 12 OFFCURVE",
"667 -24 OFFCURVE",
"748 -24 CURVE SMOOTH",
"806 -24 OFFCURVE",
"860 -5 OFFCURVE",
"904 28 CURVE",
"868 75 LINE",
"834 49 OFFCURVE",
"793 34 OFFCURVE",
"748 34 CURVE SMOOTH",
"646 34 OFFCURVE",
"562 111 OFFCURVE",
"550 210 CURVE",
"1004 210 LINE",
"1004 217 OFFCURVE",
"1005 225 OFFCURVE",
"1005 233 CURVE SMOOTH"
);
},
{
closed = 1;
nodes = (
"569 362 OFFCURVE",
"651 432 OFFCURVE",
"748 432 CURVE SMOOTH",
"845 432 OFFCURVE",
"927 362 OFFCURVE",
"944 268 CURVE",
"552 268 LINE"
);
},
{
closed = 1;
nodes = (
"182 34 OFFCURVE",
"93 123 OFFCURVE",
"93 233 CURVE SMOOTH",
"93 343 OFFCURVE",
"182 432 OFFCURVE",
"292 432 CURVE SMOOTH",
"401 432 OFFCURVE",
"490 343 OFFCURVE",
"490 233 CURVE SMOOTH",
"490 123 OFFCURVE",
"401 34 OFFCURVE",
"292 34 CURVE SMOOTH"
);
}
);
width = 1045;
}
);
leftKerningGroup = a;
unicode = 00E6;
},
{
glyphname = b;
lastChange = "2016-11-16 02:42:58 +0000";
layers = (
{
layerId = "BB68A3FB-67CF-46D6-8942-4DAFE6725C7A";
paths = (
{
closed = 1;
nodes = (
"274 490 OFFCURVE",
"243 483 OFFCURVE",
"214 472 CURVE",
"214 700 LINE",
"50 700 LINE",
"50 233 LINE",
"50 91 OFFCURVE",
"165 -24 OFFCURVE",
"307 -24 CURVE",
"449 -24 OFFCURVE",
"564 91 OFFCURVE",
"564 233 CURVE",
"564 374 OFFCURVE",
"449 490 OFFCURVE",
"307 490 CURVE"
);
},
{
closed = 1;
nodes = (
"255 139 OFFCURVE",
"214 181 OFFCURVE",
"214 233 CURVE",
"214 284 OFFCURVE",
"255 326 OFFCURVE",
"307 326 CURVE",
"359 326 OFFCURVE",
"400 284 OFFCURVE",
"400 233 CURVE",
"400 181 OFFCURVE",
"359 139 OFFCURVE",
"307 139 CURVE"
);
}
);
width = 599;
},
{
layerId = "43EC01B8-31A0-4C9A-A12D-FF1A612D1D03";
paths = (
{
closed = 1;
nodes = (
"227 490 OFFCURVE",
"155 453 OFFCURVE",
"108 396 CURVE",
"108 700 LINE",
"50 700 LINE",
"50 233 LINE",
"50 91 OFFCURVE",
"165 -24 OFFCURVE",
"307 -24 CURVE",
"449 -24 OFFCURVE",
"564 91 OFFCURVE",
"564 233 CURVE",
"564 375 OFFCURVE",
"449 490 OFFCURVE",
"307 490 CURVE"
);
},
{
closed = 1;
nodes = (
"197 34 OFFCURVE",
"108 123 OFFCURVE",
"108 233 CURVE",
"108 343 OFFCURVE",
"197 432 OFFCURVE",
"307 432 CURVE",
"416 432 OFFCURVE",
"505 343 OFFCURVE",
"505 233 CURVE",
"505 123 OFFCURVE",
"416 34 OFFCURVE",
"307 34 CURVE"
);
}
);
width = 599;
}
);
unicode = 0062;
},
{
glyphname = c;
lastChange = "2019-12-16 09:02:34 +0000";
layers = (
{
layerId = "BB68A3FB-67CF-46D6-8942-4DAFE6725C7A";
paths = (
{
closed = 1;
nodes = (
"367 156 OFFCURVE",
"339 139 OFFCURVE",
"306 139 CURVE",
"254 139 OFFCURVE",
"212 181 OFFCURVE",
"212 232 CURVE",
"212 283 OFFCURVE",
"254 324 OFFCURVE",
"306 324 CURVE",
"339 324 OFFCURVE",
"367 308 OFFCURVE",
"385 281 CURVE",
"522 367 LINE",
"478 440 OFFCURVE",
"396 488 OFFCURVE",
"306 488 CURVE",
"165 488 OFFCURVE",
"50 373 OFFCURVE",
"50 232 CURVE",
"50 91 OFFCURVE",
"165 -24 OFFCURVE",
"306 -24 CURVE",
"396 -24 OFFCURVE",
"478 24 OFFCURVE",
"522 97 CURVE",
"385 182 LINE"
);
}
);
width = 557;
},
{
layerId = "43EC01B8-31A0-4C9A-A12D-FF1A612D1D03";
paths = (
{
closed = 1;
nodes = (
"439 71 OFFCURVE",
"377 34 OFFCURVE",
"306 34 CURVE",
"197 34 OFFCURVE",
"108 123 OFFCURVE",
"108 232 CURVE",
"108 341 OFFCURVE",
"197 430 OFFCURVE",
"306 430 CURVE",
"377 430 OFFCURVE",
"439 393 OFFCURVE",
"474 337 CURVE",
"523 368 LINE",
"478 440 OFFCURVE",
"398 488 OFFCURVE",
"306 488 CURVE",
"165 488 OFFCURVE",
"50 373 OFFCURVE",
"50 232 CURVE",
"50 91 OFFCURVE",
"165 -24 OFFCURVE",
"306 -24 CURVE",
"398 -24 OFFCURVE",
"478 24 OFFCURVE",
"523 96 CURVE",
"474 127 LINE"
);
}
);
width = 558;
}
);
leftKerningGroup = c;
unicode = 0063;
},
{
glyphname = d;
lastChange = "2016-11-16 02:46:01 +0000";
layers = (
{
layerId = "BB68A3FB-67CF-46D6-8942-4DAFE6725C7A";
paths = (
{
closed = 1;
nodes = (
"390 472 LINE",
"361 484 OFFCURVE",
"330 490 OFFCURVE",
"297 490 CURVE",
"155 490 OFFCURVE",
"40 375 OFFCURVE",
"40 233 CURVE",
"40 91 OFFCURVE",
"155 -24 OFFCURVE",
"297 -24 CURVE",
"439 -24 OFFCURVE",
"554 91 OFFCURVE",
"554 233 CURVE",
"554 700 LINE",
"390 700 LINE"
);
},
{
closed = 1;
nodes = (
"246 139 OFFCURVE",
"204 181 OFFCURVE",
"204 233 CURVE",
"204 285 OFFCURVE",
"246 326 OFFCURVE",
"297 326 CURVE",
"349 326 OFFCURVE",
"391 285 OFFCURVE",
"391 233 CURVE",
"391 181 OFFCURVE",
"349 139 OFFCURVE",
"297 139 CURVE"
);
}
);
width = 614;
},
{
layerId = "43EC01B8-31A0-4C9A-A12D-FF1A612D1D03";
paths = (
{
closed = 1;
nodes = (
"493 394 LINE",
"447 452 OFFCURVE",
"375 488 OFFCURVE",
"296 488 CURVE",
"154 488 OFFCURVE",
"40 373 OFFCURVE",
"40 232 CURVE",
"40 91 OFFCURVE",
"154 -24 OFFCURVE",
"296 -24 CURVE",
"437 -24 OFFCURVE",
"552 91 OFFCURVE",
"552 232 CURVE",
"552 700 LINE",
"493 700 LINE"
);
},
{
closed = 1;
nodes = (
"186 34 OFFCURVE",
"98 123 OFFCURVE",
"98 232 CURVE",
"98 341 OFFCURVE",
"186 430 OFFCURVE",
"296 430 CURVE",
"405 430 OFFCURVE",
"493 341 OFFCURVE",
"493 232 CURVE",
"493 123 OFFCURVE",
"405 34 OFFCURVE",
"296 34 CURVE"
);
}
);
width = 612;
}
);
leftKerningGroup = d;
unicode = 0064;
},
{
glyphname = eth;
lastChange = "2020-05-02 13:02:41 +0000";
layers = (
{
layerId = "BB68A3FB-67CF-46D6-8942-4DAFE6725C7A";
paths = (
{
closed = 1;
nodes = (
"349 326 OFFCURVE",
"390 285 OFFCURVE",
"390 233 CURVE",
"390 181 OFFCURVE",
"349 139 OFFCURVE",
"297 139 CURVE",
"245 139 OFFCURVE",
"204 181 OFFCURVE",
"204 233 CURVE",
"204 285 OFFCURVE",
"244 326 OFFCURVE",
"297 326 CURVE"
);
},
{
closed = 1;
nodes = (
"554 375 OFFCURVE",
"439 490 OFFCURVE",
"297 490 CURVE",
"155 490 OFFCURVE",
"40 375 OFFCURVE",
"40 233 CURVE",
"40 91 OFFCURVE",
"155 -24 OFFCURVE",
"297 -24 CURVE",
"439 -24 OFFCURVE",
"554 91 OFFCURVE",
"554 233 CURVE"
);
},
{
closed = 1;
nodes = (
"417 700 LINE",
"80 602 LINE",
"116 479 LINE",
"453 578 LINE"
);
},
{
closed = 1;
nodes = (
"554 300 OFFCURVE",
"534 367 OFFCURVE",
"499 419 CURVE",
"308 700 LINE",
"95 700 LINE",
"375 285 LINE",
"554 233 LINE"
);
}
);
width = 614;
},
{
layerId = "43EC01B8-31A0-4C9A-A12D-FF1A612D1D03";
paths = (
{
closed = 1;
nodes = (
"403 431 OFFCURVE",
"496 344 OFFCURVE",
"496 232 CURVE",
"496 123 OFFCURVE",
"406 33 OFFCURVE",
"297 33 CURVE",
"188 33 OFFCURVE",
"98 123 OFFCURVE",
"98 232 CURVE",
"98 341 OFFCURVE",
"188 431 OFFCURVE",
"297 431 CURVE"
);
},
{
closed = 1;
nodes = (
"554 374 OFFCURVE",
"440 489 OFFCURVE",
"297 489 CURVE",
"155 489 OFFCURVE",
"40 374 OFFCURVE",
"40 232 CURVE",
"40 90 OFFCURVE",
"155 -25 OFFCURVE",
"297 -25 CURVE",
"440 -25 OFFCURVE",
"554 90 OFFCURVE",
"554 232 CURVE"
);
},
{
closed = 1;
nodes = (
"420 669 LINE",
"119 581 LINE",
"136 526 LINE",
"436 613 LINE"
);
},
{
closed = 1;
nodes = (
"554 302 OFFCURVE",
"533 369 OFFCURVE",
"496 423 CURVE",
"308 700 LINE",
"223 700 LINE",
"466 339 LINE",
"554 232 LINE"
);
}
);
width = 614;
}
);
leftKerningGroup = d;
unicode = 00F0;
},
{
glyphname = dcaron;
lastChange = "2020-05-02 05:48:51 +0000";
layers = (
{
components = (
{
name = d;
}
);
layerId = "BB68A3FB-67CF-46D6-8942-4DAFE6725C7A";
paths = (
{
closed = 1;
nodes = (
"588 533 LINE",
"674 533 LINE",
"744 700 LINE",
"606 700 LINE"
);
}
);
width = 782;
},
{
components = (
{
name = d;
}
);
layerId = "43EC01B8-31A0-4C9A-A12D-FF1A612D1D03";
paths = (
{
closed = 1;
nodes = (
"580 533 LINE",
"616 533 LINE",
"670 700 LINE",
"608 700 LINE"
);
}
);
width = 710;
}
);
leftKerningGroup = d;
unicode = 010F;
},
{
glyphname = dcroat;
lastChange = "2020-05-02 07:21:18 +0000";
layers = (
{
layerId = "BB68A3FB-67CF-46D6-8942-4DAFE6725C7A";
paths = (
{
closed = 1;
nodes = (
"554 657 LINE",
"554 700 LINE",
"390 700 LINE",
"390 657 LINE",
"263 657 LINE",
"263 529 LINE",
"390 529 LINE",
"390 472 LINE",
"361 484 OFFCURVE",
"330 490 OFFCURVE",
"297 490 CURVE",
"155 490 OFFCURVE",
"40 375 OFFCURVE",
"40 233 CURVE",
"40 91 OFFCURVE",
"155 -24 OFFCURVE",
"297 -24 CURVE",
"439 -24 OFFCURVE",
"554 91 OFFCURVE",
"554 233 CURVE",
"554 529 LINE",
"614 529 LINE",
"614 657 LINE"
);
},
{
closed = 1;
nodes = (
"246 139 OFFCURVE",
"204 181 OFFCURVE",
"204 233 CURVE",
"204 285 OFFCURVE",
"246 326 OFFCURVE",
"297 326 CURVE",
"349 326 OFFCURVE",
"391 285 OFFCURVE",
"391 233 CURVE",
"391 181 OFFCURVE",
"349 139 OFFCURVE",
"297 139 CURVE"
);
}
);
width = 645;
},
{
layerId = "43EC01B8-31A0-4C9A-A12D-FF1A612D1D03";
paths = (
{
closed = 1;
nodes = (
"552 623 LINE",
"552 700 LINE",
"493 700 LINE",
"493 623 LINE",
"299 623 LINE",
"299 565 LINE",
"493 565 LINE",
"493 394 LINE",
"447 452 OFFCURVE",
"375 488 OFFCURVE",
"296 488 CURVE",
"154 488 OFFCURVE",
"40 373 OFFCURVE",
"40 232 CURVE",
"40 91 OFFCURVE",
"154 -24 OFFCURVE",
"296 -24 CURVE",
"437 -24 OFFCURVE",
"552 91 OFFCURVE",
"552 232 CURVE",
"552 565 LINE",
"612 565 LINE",
"612 623 LINE"
);
},
{
closed = 1;
nodes = (
"186 34 OFFCURVE",
"98 123 OFFCURVE",
"98 232 CURVE",
"98 341 OFFCURVE",
"186 430 OFFCURVE",
"296 430 CURVE",
"405 430 OFFCURVE",
"493 341 OFFCURVE",
"493 232 CURVE",
"493 123 OFFCURVE",
"405 34 OFFCURVE",
"296 34 CURVE"
);
}
);
width = 644;
}
);
leftKerningGroup = d;
unicode = 0111;
},
{
glyphname = e;
lastChange = "2020-05-02 02:44:52 +0000";
layers = (
{
layerId = "BB68A3FB-67CF-46D6-8942-4DAFE6725C7A";
paths = (
{
closed = 1;
nodes = (
"554 375 OFFCURVE",
"439 490 OFFCURVE",
"297 490 CURVE",
"155 490 OFFCURVE",
"40 375 OFFCURVE",
"40 233 CURVE",
"40 91 OFFCURVE",
"155 -24 OFFCURVE",
"297 -24 CURVE",
"355 -24 OFFCURVE",
"409 -4 OFFCURVE",
"452 28 CURVE",
"361 149 LINE",
"343 136 OFFCURVE",
"321 128 OFFCURVE",
"297 128 CURVE",
"256 128 OFFCURVE",
"220 151 OFFCURVE",
"203 186 CURVE",
"550 186 LINE",
"552 201 OFFCURVE",
"554 217 OFFCURVE",
"554 233 CURVE"
);
},
{
closed = 1;
nodes = (
"338 338 OFFCURVE",
"374 314 OFFCURVE",
"391 279 CURVE",
"203 279 LINE",
"220 314 OFFCURVE",
"256 338 OFFCURVE",
"297 338 CURVE"
);
}
);
width = 594;
},
{
layerId = "43EC01B8-31A0-4C9A-A12D-FF1A612D1D03";
paths = (
{
closed = 1;
nodes = (
"554 375 OFFCURVE",
"439 490 OFFCURVE",
"297 490 CURVE",
"154 490 OFFCURVE",
"40 375 OFFCURVE",
"40 233 CURVE",
"40 91 OFFCURVE",
"154 -24 OFFCURVE",
"297 -24 CURVE",
"355 -24 OFFCURVE",
"409 -5 OFFCURVE",
"453 28 CURVE",
"417 75 LINE",
"383 49 OFFCURVE",
"342 34 OFFCURVE",
"297 34 CURVE",
"195 34 OFFCURVE",
"111 111 OFFCURVE",
"99 210 CURVE",
"553 210 LINE",
"553 217 OFFCURVE",
"554 225 OFFCURVE",
"554 233 CURVE"
);
},
{
closed = 1;
nodes = (
"394 432 OFFCURVE",
"476 362 OFFCURVE",
"493 268 CURVE",
"101 268 LINE",
"118 362 OFFCURVE",
"200 432 OFFCURVE",
"297 432 CURVE"
);
}
);
width = 594;
}
);
leftKerningGroup = a;
unicode = 0065;
},
{
glyphname = eogonek;
lastChange = "2019-12-17 05:47:15 +0000";
layers = (
{
layerId = "BB68A3FB-67CF-46D6-8942-4DAFE6725C7A";
paths = (
{
closed = 1;
nodes = (
"554 374 OFFCURVE",
"439 489 OFFCURVE",
"297 489 CURVE SMOOTH",
"155 489 OFFCURVE",
"40 374 OFFCURVE",
"40 232 CURVE SMOOTH",
"40 96 OFFCURVE",
"145 -14 OFFCURVE",
"278 -24 CURVE",
"278 -24 OFFCURVE",
"278 -24 OFFCURVE",
"278 -24 CURVE SMOOTH",
"248 -56 OFFCURVE",
"234 -97 OFFCURVE",
"249 -133 CURVE SMOOTH",
"269 -180 OFFCURVE",
"317 -200 OFFCURVE",
"379 -200 CURVE SMOOTH",
"444 -200 OFFCURVE",
"492 -158 OFFCURVE",
"492 -158 CURVE",
"443 -82 LINE",
"443 -82 OFFCURVE",
"424 -91 OFFCURVE",
"408 -91 CURVE SMOOTH",
"399 -91 OFFCURVE",
"387 -85 OFFCURVE",
"387 -73 CURVE SMOOTH",
"387 -45 OFFCURVE",
"410 -22 OFFCURVE",
"452 27 CURVE",
"361 148 LINE",
"343 135 OFFCURVE",
"321 127 OFFCURVE",
"297 127 CURVE SMOOTH",
"256 127 OFFCURVE",
"220 150 OFFCURVE",
"203 185 CURVE",
"550 185 LINE",
"552 200 OFFCURVE",
"554 216 OFFCURVE",
"554 232 CURVE SMOOTH"
);
},
{
closed = 1;
nodes = (
"220 313 OFFCURVE",
"256 337 OFFCURVE",
"297 337 CURVE SMOOTH",
"338 337 OFFCURVE",
"374 313 OFFCURVE",
"391 278 CURVE",
"203 278 LINE"
);
}
);
width = 594;
},
{
layerId = "43EC01B8-31A0-4C9A-A12D-FF1A612D1D03";
paths = (
{
closed = 1;
nodes = (
"552 373 OFFCURVE",
"437 488 OFFCURVE",
"296 488 CURVE SMOOTH",
"154 488 OFFCURVE",
"40 373 OFFCURVE",
"40 232 CURVE SMOOTH",
"40 91 OFFCURVE",
"154 -24 OFFCURVE",
"296 -24 CURVE SMOOTH",
"309 -24 OFFCURVE",
"322 -23 OFFCURVE",
"334 -21 CURVE",
"305 -52 OFFCURVE",
"297 -92 OFFCURVE",
"306 -122 CURVE SMOOTH",
"315 -151 OFFCURVE",
"347 -178 OFFCURVE",
"388 -178 CURVE SMOOTH",
"426 -178 OFFCURVE",
"453 -163 OFFCURVE",
"453 -163 CURVE",
"427 -120 LINE",
"427 -120 OFFCURVE",
"409 -127 OFFCURVE",
"391 -125 CURVE SMOOTH",
"377 -125 OFFCURVE",
"361 -114 OFFCURVE",
"359 -99 CURVE SMOOTH",
"354 -69 OFFCURVE",
"381 -26 OFFCURVE",
"451 28 CURVE",
"416 75 LINE",
"382 49 OFFCURVE",
"341 34 OFFCURVE",
"296 34 CURVE SMOOTH",
"194 34 OFFCURVE",
"111 110 OFFCURVE",
"99 209 CURVE",
"551 209 LINE",
"551 216 OFFCURVE",
"552 224 OFFCURVE",
"552 232 CURVE SMOOTH"
);
},
{
closed = 1;
nodes = (
"118 360 OFFCURVE",
"199 430 OFFCURVE",
"296 430 CURVE SMOOTH",
"393 430 OFFCURVE",
"474 360 OFFCURVE",
"491 267 CURVE",
"101 267 LINE"
);
}
);
width = 592;
}
);
leftKerningGroup = a;
unicode = 0119;
},
{
glyphname = f;
lastChange = "2019-12-16 07:44:34 +0000";
layers = (
{
layerId = "BB68A3FB-67CF-46D6-8942-4DAFE6725C7A";
paths = (
{
closed = 1;
nodes = (
"305 561 OFFCURVE",
"313 559 OFFCURVE",
"320 557 CURVE",
"320 723 LINE",
"313 724 OFFCURVE",
"305 724 OFFCURVE",
"297 724 CURVE SMOOTH",
"155 724 OFFCURVE",
"40 609 OFFCURVE",
"40 467 CURVE SMOOTH",
"40 0 LINE",
"203 0 LINE",
"203 327 LINE",
"320 327 LINE",
"320 467 LINE",
"203 467 LINE",
"203 467 LINE",
"203 519 OFFCURVE",
"245 561 OFFCURVE",
"297 561 CURVE SMOOTH"
);
}
);
width = 350;
},
{
layerId = "43EC01B8-31A0-4C9A-A12D-FF1A612D1D03";
paths = (
{
closed = 1;
nodes = (
"212 666 OFFCURVE",
"220 665 OFFCURVE",
"227 663 CURVE",
"227 722 LINE",
"220 723 OFFCURVE",
"212 724 OFFCURVE",
"204 724 CURVE SMOOTH",
"114 724 OFFCURVE",
"40 651 OFFCURVE",
"40 561 CURVE SMOOTH",
"40 0 LINE",
"99 0 LINE",
"99 409 LINE",
"227 409 LINE",
"227 467 LINE",
"99 467 LINE",
"99 561 LINE",
"99 619 OFFCURVE",
"146 666 OFFCURVE",
"204 666 CURVE SMOOTH"
);
}
);
width = 257;
}
);
leftKerningGroup = f;
unicode = 0066;
},
{
glyphname = g;
lastChange = "2016-11-16 03:14:10 +0000";
layers = (
{
layerId = "BB68A3FB-67CF-46D6-8942-4DAFE6725C7A";
paths = (
{
closed = 1;
nodes = (
"155 490 OFFCURVE",
"40 375 OFFCURVE",
"40 233 CURVE",
"40 91 OFFCURVE",
"155 -24 OFFCURVE",
"297 -24 CURVE",
"330 -24 OFFCURVE",
"361 -17 OFFCURVE",
"390 -6 CURVE",
"390 -6 LINE",
"387 -55 OFFCURVE",
"347 -94 OFFCURVE",
"297 -94 CURVE",
"289 -94 OFFCURVE",
"281 -93 OFFCURVE",
"274 -91 CURVE",
"274 -229 LINE",
"289 -232 OFFCURVE",
"304 -234 OFFCURVE",
"320 -234 CURVE",
"449 -234 OFFCURVE",
"554 -129 OFFCURVE",
"554 0 CURVE",
"554 233 LINE",
"554 375 OFFCURVE",
"439 490 OFFCURVE",
"297 490 CURVE"
);
},
{
closed = 1;
nodes = (
"245 140 OFFCURVE",
"203 182 OFFCURVE",
"203 233 CURVE",
"203 285 OFFCURVE",
"245 327 OFFCURVE",
"297 327 CURVE",
"349 327 OFFCURVE",
"390 285 OFFCURVE",
"390 233 CURVE",
"390 182 OFFCURVE",
"349 140 OFFCURVE",
"297 140 CURVE"
);
}
);
width = 614;
},
{
layerId = "43EC01B8-31A0-4C9A-A12D-FF1A612D1D03";
paths = (
{
closed = 1;
nodes = (
"155 489 OFFCURVE",
"40 374 OFFCURVE",
"40 232 CURVE",
"40 90 OFFCURVE",
"155 -25 OFFCURVE",
"297 -25 CURVE",
"377 -25 OFFCURVE",
"448 12 OFFCURVE",
"495 69 CURVE",
"495 -1 LINE",
"495 -105 OFFCURVE",
"412 -188 OFFCURVE",
"309 -188 CURVE",
"297 -188 OFFCURVE",
"285 -187 OFFCURVE",
"274 -185 CURVE",
"274 -230 LINE",
"289 -233 OFFCURVE",
"304 -235 OFFCURVE",
"320 -235 CURVE",
"449 -235 OFFCURVE",
"554 -130 OFFCURVE",
"554 -1 CURVE",
"554 232 LINE",
"554 374 OFFCURVE",
"439 489 OFFCURVE",
"297 489 CURVE"
);
},
{
closed = 1;
nodes = (
"187 34 OFFCURVE",
"98 122 OFFCURVE",
"98 232 CURVE",
"98 342 OFFCURVE",
"187 431 OFFCURVE",
"297 431 CURVE",
"407 431 OFFCURVE",
"495 342 OFFCURVE",
"495 232 CURVE",
"495 122 OFFCURVE",
"407 34 OFFCURVE",
"297 34 CURVE"
);
}
);
width = 614;
}
);
leftKerningGroup = c;
unicode = 0067;
},
{
glyphname = h;
lastChange = "2016-11-16 03:16:37 +0000";
layers = (
{
layerId = "BB68A3FB-67CF-46D6-8942-4DAFE6725C7A";
paths = (
{
closed = 1;
nodes = (
"273 490 OFFCURVE",
"250 486 OFFCURVE",
"228 479 CURVE",
"228 700 LINE",
"65 700 LINE",
"65 0 LINE",
"228 0 LINE",
"228 258 LINE",
"229 295 OFFCURVE",
"261 326 OFFCURVE",
"298 326 CURVE",
"335 326 OFFCURVE",
"368 294 OFFCURVE",
"368 256 CURVE",
"368 0 LINE",
"532 0 LINE",
"531 256 LINE",
"531 385 OFFCURVE",
"427 490 OFFCURVE",
"298 490 CURVE"
);
}
);
width = 592;
},
{
layerId = "43EC01B8-31A0-4C9A-A12D-FF1A612D1D03";
paths = (
{
closed = 1;
nodes = (
"228 490 OFFCURVE",
"166 459 OFFCURVE",
"123 411 CURVE",
"123 700 LINE",
"65 700 LINE",
"65 0 LINE",
"123 0 LINE",
"123 257 LINE",
"123 353 OFFCURVE",
"201 432 OFFCURVE",
"298 432 CURVE",
"395 432 OFFCURVE",
"473 353 OFFCURVE",
"473 257 CURVE",
"473 0 LINE",
"531 0 LINE",
"531 257 LINE",
"531 386 OFFCURVE",
"427 490 OFFCURVE",
"298 490 CURVE"
);
}
);
width = 591;
}
);
unicode = 0068;
},
{
glyphname = i;
lastChange = "2019-12-16 08:32:05 +0000";
layers = (
{
layerId = "BB68A3FB-67CF-46D6-8942-4DAFE6725C7A";
paths = (
{
closed = 1;
nodes = (
"61 467 LINE",
"61 0 LINE",
"225 0 LINE",
"225 467 LINE"
);
},
{
closed = 1;
nodes = (
"236 579 OFFCURVE",
"195 537 OFFCURVE",
"143 537 CURVE SMOOTH",
"91 537 OFFCURVE",
"50 579 OFFCURVE",
"50 631 CURVE SMOOTH",
"50 682 OFFCURVE",
"91 724 OFFCURVE",
"143 724 CURVE SMOOTH",
"195 724 OFFCURVE",
"236 682 OFFCURVE",
"236 631 CURVE SMOOTH"
);
}
);
width = 286;
},
{
layerId = "43EC01B8-31A0-4C9A-A12D-FF1A612D1D03";
paths = (
{
closed = 1;
nodes = (
"67 467 LINE",
"67 1 LINE",
"126 1 LINE",
"126 467 LINE"
);
},
{
closed = 1;
nodes = (
"143 604 OFFCURVE",
"122 584 OFFCURVE",
"96 584 CURVE SMOOTH",
"71 584 OFFCURVE",
"50 604 OFFCURVE",
"50 630 CURVE SMOOTH",
"50 656 OFFCURVE",
"71 677 OFFCURVE",
"96 677 CURVE SMOOTH",
"122 677 OFFCURVE",
"143 656 OFFCURVE",
"143 630 CURVE SMOOTH"
);
}
);
width = 193;
}
);
unicode = 0069;
},
{
glyphname = idotless;
lastChange = "2020-05-02 08:44:10 +0000";
layers = (
{
layerId = "BB68A3FB-67CF-46D6-8942-4DAFE6725C7A";
paths = (
{
closed = 1;
nodes = (
"50 467 LINE",
"50 0 LINE",
"214 0 LINE",
"214 467 LINE"
);
}
);
width = 264;
},
{
layerId = "43EC01B8-31A0-4C9A-A12D-FF1A612D1D03";
paths = (
{
closed = 1;
nodes = (
"50 467 LINE",
"50 1 LINE",
"109 1 LINE",
"109 467 LINE"
);
}
);
width = 159;
}
);
unicode = 0131;
},
{
glyphname = iacute;
lastChange = "2020-05-02 02:50:51 +0000";
layers = (
{
components = (
{
name = acute;
}
);
layerId = "BB68A3FB-67CF-46D6-8942-4DAFE6725C7A";
paths = (
{
closed = 1;
nodes = (
"50 467 LINE",
"50 0 LINE",
"214 0 LINE",
"214 467 LINE"
);
}
);
width = 286;
},
{
components = (
{
name = acute;
transform = "{1, 0, 0, 1, -17, 0}";
}
);
layerId = "43EC01B8-31A0-4C9A-A12D-FF1A612D1D03";
paths = (
{
closed = 1;
nodes = (
"50 467 LINE",
"50 1 LINE",
"109 1 LINE",
"109 467 LINE"
);
}
);
width = 183;
}
);
unicode = 00ED;
},
{
glyphname = icircumflex;
lastChange = "2020-05-02 05:06:11 +0000";
layers = (
{
components = (
{
name = circumflex;
transform = "{1, 0, 0, 1, -100, 0}";
}
);
layerId = "BB68A3FB-67CF-46D6-8942-4DAFE6725C7A";
paths = (
{
closed = 1;
nodes = (
"100 467 LINE",
"100 0 LINE",
"264 0 LINE",
"264 467 LINE"
);
}
);
width = 364;
},
{
components = (
{
name = circumflex;
transform = "{1, 0, 0, 1, -100, 0}";
}
);
layerId = "43EC01B8-31A0-4C9A-A12D-FF1A612D1D03";
paths = (
{
closed = 1;
nodes = (
"103 467 LINE",
"103 1 LINE",
"162 1 LINE",
"162 467 LINE"
);
}
);
width = 264;
}
);
unicode = 00EE;
},
{
glyphname = idieresis;
lastChange = "2020-05-02 05:06:01 +0000";
layers = (
{
components = (
{
name = dieresis;
transform = "{1, 0, 0, 1, -100, 0}";
}
);
layerId = "BB68A3FB-67CF-46D6-8942-4DAFE6725C7A";
paths = (
{
closed = 1;
nodes = (
"132 467 LINE",
"132 0 LINE",
"296 0 LINE",
"296 467 LINE"
);
}
);
width = 427;
},
{
components = (
{
name = dieresis;
transform = "{1, 0, 0, 1, -100, 0}";
}
);
layerId = "43EC01B8-31A0-4C9A-A12D-FF1A612D1D03";
paths = (
{
closed = 1;
nodes = (
"126 467 LINE",
"126 1 LINE",
"185 1 LINE",
"185 467 LINE"
);
}
);
width = 311;
}
);
unicode = 00EF;
},
{
glyphname = imacron;
lastChange = "2020-05-02 02:58:19 +0000";
layers = (
{
components = (
{
name = macron;
transform = "{1, 0, 0, 1, -80, 0}";
}
);
layerId = "BB68A3FB-67CF-46D6-8942-4DAFE6725C7A";
paths = (
{
closed = 1;
nodes = (
"94 467 LINE",
"94 0 LINE",
"258 0 LINE",
"258 467 LINE"
);
}
);
width = 351;
},
{
components = (
{
name = macron;
transform = "{1, 0, 0, 1, -80, 0}";
}
);
layerId = "43EC01B8-31A0-4C9A-A12D-FF1A612D1D03";
paths = (
{
closed = 1;
nodes = (
"128 467 LINE",
"128 1 LINE",
"187 1 LINE",
"187 467 LINE"
);
}
);
width = 313;
}
);
unicode = 012B;
},
{
glyphname = iogonek;
lastChange = "2019-12-17 06:05:50 +0000";
layers = (
{
layerId = "BB68A3FB-67CF-46D6-8942-4DAFE6725C7A";
paths = (
{
closed = 1;
nodes = (
"218 537 OFFCURVE",
"259 579 OFFCURVE",
"259 631 CURVE",
"259 682 OFFCURVE",
"218 724 OFFCURVE",
"166 724 CURVE",
"114 724 OFFCURVE",
"73 682 OFFCURVE",
"73 631 CURVE",
"73 579 OFFCURVE",
"114 537 OFFCURVE",
"166 537 CURVE"
);
},
{
closed = 1;
nodes = (
"21 -26 OFFCURVE",
"-14 -87 OFFCURVE",
"5 -133 CURVE",
"25 -180 OFFCURVE",
"73 -200 OFFCURVE",
"135 -200 CURVE",
"200 -200 OFFCURVE",
"248 -158 OFFCURVE",
"248 -158 CURVE",
"199 -82 LINE",
"199 -82 OFFCURVE",
"180 -91 OFFCURVE",
"164 -91 CURVE",
"155 -91 OFFCURVE",
"143 -85 OFFCURVE",
"143 -73 CURVE",
"143 -48 OFFCURVE",
"190 -28 OFFCURVE",
"248 0 CURVE",
"248 467 LINE",
"84 467 LINE",
"84 0 LINE"
);
}
);
width = 309;
},
{
layerId = "43EC01B8-31A0-4C9A-A12D-FF1A612D1D03";
paths = (
{
closed = 1;
nodes = (
"126 584 OFFCURVE",
"147 604 OFFCURVE",
"147 630 CURVE",
"147 656 OFFCURVE",
"126 677 OFFCURVE",
"100 677 CURVE",
"75 677 OFFCURVE",
"54 656 OFFCURVE",
"54 630 CURVE",
"54 604 OFFCURVE",
"75 584 OFFCURVE",
"100 584 CURVE"
);
},
{
closed = 1;
nodes = (
"-3 -25 OFFCURVE",
"-29 -85 OFFCURVE",
"-17 -122 CURVE",
"-8 -150 OFFCURVE",
"23 -177 OFFCURVE",
"65 -177 CURVE",
"103 -177 OFFCURVE",
"130 -163 OFFCURVE",
"130 -163 CURVE",
"104 -119 LINE",
"104 -119 OFFCURVE",
"86 -126 OFFCURVE",
"68 -125 CURVE",
"54 -124 OFFCURVE",
"38 -113 OFFCURVE",
"36 -99 CURVE",
"31 -69 OFFCURVE",
"52 -40 OFFCURVE",
"130 0 CURVE",
"130 467 LINE",
"71 467 LINE",
"71 0 LINE"
);
}
);
width = 197;
}
);
unicode = 012F;
},
{
glyphname = j;
lastChange = "2020-05-02 04:26:43 +0000";
layers = (
{
layerId = "BB68A3FB-67CF-46D6-8942-4DAFE6725C7A";
paths = (
{
closed = 1;
nodes = (
"92 0 LINE",
"92 -52 OFFCURVE",
"50 -93 OFFCURVE",
"-2 -93 CURVE SMOOTH",
"-10 -93 OFFCURVE",
"-18 -92 OFFCURVE",
"-25 -90 CURVE",
"-25 -228 LINE",
"-10 -231 OFFCURVE",
"5 -233 OFFCURVE",
"21 -233 CURVE",
"150 -233 OFFCURVE",
"255 -129 OFFCURVE",
"255 0 CURVE",
"255 467 LINE",
"92 467 LINE"
);
},
{
closed = 1;
nodes = (
"225 538 OFFCURVE",
"267 580 OFFCURVE",
"267 631 CURVE",
"267 683 OFFCURVE",
"225 725 OFFCURVE",
"173 725 CURVE",
"122 725 OFFCURVE",
"80 683 OFFCURVE",
"80 631 CURVE",
"80 580 OFFCURVE",
"122 538 OFFCURVE",
"173 538 CURVE"
);
}
);
width = 322;
},
{
hints = (
{
horizontal = 1;
place = "{585, 93}";
type = Stem;
},
{
place = "{79, 92}";
type = Stem;
},
{
place = "{96, 59}";
type = Stem;
}
);
layerId = "43EC01B8-31A0-4C9A-A12D-FF1A612D1D03";
paths = (
{
closed = 1;
nodes = (
"93 0 LINE",
"93 -74 OFFCURVE",
"54 -134 OFFCURVE",
"-6 -167 CURVE",
"-13 -172 OFFCURVE",
"-21 -176 OFFCURVE",
"-28 -179 CURVE",
"-28 -223 LINE",
"-21 -221 OFFCURVE",
"-13 -220 OFFCURVE",
"-6 -217 CURVE",
"86 -185 OFFCURVE",
"152 -102 OFFCURVE",
"152 0 CURVE",
"152 467 LINE",
"93 467 LINE"
);
},
{
closed = 1;
nodes = (
"149 584 OFFCURVE",
"170 605 OFFCURVE",
"170 631 CURVE",
"170 656 OFFCURVE",
"149 677 OFFCURVE",
"123 677 CURVE",
"96 677 OFFCURVE",
"77 656 OFFCURVE",
"77 631 CURVE",
"77 605 OFFCURVE",
"96 584 OFFCURVE",
"123 584 CURVE"
);
}
);
width = 226;
}
);
unicode = 006A;
},
{
glyphname = k;
lastChange = "2016-11-16 06:19:00 +0000";
layers = (
{
layerId = "BB68A3FB-67CF-46D6-8942-4DAFE6725C7A";
paths = (
{
closed = 1;
nodes = (
"65 0 LINE",
"229 0 LINE",
"229 256 LINE",
"229 700 LINE",
"65 700 LINE"
);
},
{
closed = 1;
nodes = (
"532 467 LINE",
"345 467 LINE",
"228 257 LINE",
"368 0 LINE",
"555 0 LINE",
"415 257 LINE"
);
}
);
width = 570;
},
{
layerId = "43EC01B8-31A0-4C9A-A12D-FF1A612D1D03";
paths = (
{
closed = 1;
nodes = (
"65 0 LINE",
"124 0 LINE",
"124 257 LINE",
"124 700 LINE",
"65 700 LINE"
);
},
{
closed = 1;
nodes = (
"433 467 LINE",
"357 467 LINE",
"124 257 LINE",
"380 0 LINE",
"456 0 LINE",
"199 257 LINE"
);
}
);
width = 471;
}
);
rightKerningGroup = k;
unicode = 006B;
},
{
glyphname = l;
lastChange = "2016-11-16 02:55:41 +0000";
layers = (
{
layerId = "BB68A3FB-67CF-46D6-8942-4DAFE6725C7A";
paths = (
{
closed = 1;
nodes = (
"40 0 LINE",
"40 700 LINE",
"204 700 LINE",
"204 0 LINE"
);
}
);
width = 244;
},
{
layerId = "43EC01B8-31A0-4C9A-A12D-FF1A612D1D03";
paths = (
{
closed = 1;
nodes = (
"41 0 LINE",
"41 700 LINE",
"100 700 LINE",
"100 0 LINE"
);
}
);
width = 141;
}
);
leftKerningGroup = l;
unicode = 006C;
},
{
glyphname = lcaron;
lastChange = "2020-05-02 05:54:33 +0000";
layers = (
{
components = (
{
name = l;
}
);
layerId = "BB68A3FB-67CF-46D6-8942-4DAFE6725C7A";
paths = (
{
closed = 1;
nodes = (
"238 533 LINE",
"324 533 LINE",
"394 700 LINE",
"256 700 LINE"
);
}
);
width = 404;
},
{
components = (
{
name = l;
}
);
layerId = "43EC01B8-31A0-4C9A-A12D-FF1A612D1D03";
paths = (
{
closed = 1;
nodes = (
"128 533 LINE",
"164 533 LINE",
"218 700 LINE",
"156 700 LINE"
);
}
);
width = 228;
}
);
leftKerningGroup = l;
unicode = 013E;
},
{
glyphname = lslash;
lastChange = "2020-05-02 07:33:07 +0000";
layers = (
{
layerId = "BB68A3FB-67CF-46D6-8942-4DAFE6725C7A";
paths = (
{
closed = 1;
nodes = (
"263 466 LINE",
"263 700 LINE",
"99 700 LINE",
"99 398 LINE",
"40 373 LINE",
"40 245 LINE",
"99 270 LINE",
"99 0 LINE",
"263 0 LINE",
"263 338 LINE",
"322 363 LINE",
"322 491 LINE"
);
}
);
width = 362;
},
{
layerId = "43EC01B8-31A0-4C9A-A12D-FF1A612D1D03";
paths = (
{
closed = 1;
nodes = (
"160 411 LINE",
"160 700 LINE",
"101 700 LINE",
"101 385 LINE",
"40 360 LINE",
"40 302 LINE",
"101 327 LINE",
"101 0 LINE",
"160 0 LINE",
"160 353 LINE",
"220 378 LINE",
"220 436 LINE"
);
}
);
width = 260;
}
);
leftKerningGroup = l;
unicode = 0142;
},
{
glyphname = m;
lastChange = "2016-11-16 06:17:45 +0000";
layers = (
{
layerId = "BB68A3FB-67CF-46D6-8942-4DAFE6725C7A";
paths = (
{
closed = 1;
nodes = (
"514 490 OFFCURVE",
"465 472 OFFCURVE",
"427 440 CURVE",
"389 472 OFFCURVE",
"340 490 OFFCURVE",
"287 490 CURVE",
"164 490 OFFCURVE",
"65 391 OFFCURVE",
"65 268 CURVE",
"65 0 LINE",
"228 0 LINE",
"228 268 LINE",
"228 302 OFFCURVE",
"253 329 OFFCURVE",
"286 329 CURVE",
"320 329 OFFCURVE",
"345 302 OFFCURVE",
"345 268 CURVE",
"345 0 LINE",
"509 0 LINE",
"509 268 LINE",
"509 302 OFFCURVE",
"534 329 OFFCURVE",
"567 329 CURVE",
"600 329 OFFCURVE",
"625 302 OFFCURVE",
"625 268 CURVE",
"625 0 LINE",
"789 0 LINE",
"789 268 LINE",
"789 391 OFFCURVE",
"690 490 OFFCURVE",
"567 490 CURVE"
);
}
);
width = 849;
},
{
layerId = "43EC01B8-31A0-4C9A-A12D-FF1A612D1D03";
paths = (
{
closed = 1;
nodes = (
"523 490 OFFCURVE",
"461 453 OFFCURVE",
"427 397 CURVE",
"392 453 OFFCURVE",
"331 490 OFFCURVE",
"261 490 CURVE",
"153 490 OFFCURVE",
"65 403 OFFCURVE",
"65 295 CURVE",
"65 0 LINE",
"124 0 LINE",
"124 295 LINE",
"124 370 OFFCURVE",
"185 432 OFFCURVE",
"261 432 CURVE",
"336 432 OFFCURVE",
"398 370 OFFCURVE",
"398 295 CURVE",
"398 0 LINE",
"456 0 LINE",
"456 295 LINE",
"456 370 OFFCURVE",
"517 432 OFFCURVE",
"593 432 CURVE",
"669 432 OFFCURVE",
"730 370 OFFCURVE",
"730 295 CURVE",
"730 0 LINE",
"789 0 LINE",
"789 295 LINE",
"789 403 OFFCURVE",
"701 490 OFFCURVE",
"593 490 CURVE"
);
}
);
width = 849;
}
);
leftKerningGroup = m;
unicode = 006D;
},
{
glyphname = n;
lastChange = "2016-11-22 05:14:10 +0000";
layers = (
{
layerId = "BB68A3FB-67CF-46D6-8942-4DAFE6725C7A";
paths = (
{
closed = 1;
nodes = (
"165 490 OFFCURVE",
"60 386 OFFCURVE",
"60 257 CURVE",
"60 0 LINE",
"224 0 LINE",
"224 257 LINE",
"224 295 OFFCURVE",
"255 327 OFFCURVE",
"294 327 CURVE",
"332 327 OFFCURVE",
"364 295 OFFCURVE",
"364 257 CURVE",
"364 0 LINE",
"527 0 LINE",
"527 257 LINE",
"527 386 OFFCURVE",
"423 490 OFFCURVE",
"294 490 CURVE"
);
}
);
width = 587;
},
{
layerId = "43EC01B8-31A0-4C9A-A12D-FF1A612D1D03";
paths = (
{
closed = 1;
nodes = (
"165 490 OFFCURVE",
"60 386 OFFCURVE",
"60 257 CURVE",
"60 0 LINE",
"119 0 LINE",
"119 257 LINE",
"119 353 OFFCURVE",
"197 432 OFFCURVE",
"294 432 CURVE",
"390 432 OFFCURVE",
"469 353 OFFCURVE",
"469 257 CURVE",
"469 0 LINE",
"527 0 LINE",
"527 257 LINE",
"527 386 OFFCURVE",
"423 490 OFFCURVE",
"294 490 CURVE"
);
}
);
width = 587;
}
);
leftKerningGroup = m;
unicode = 006E;
},
{
glyphname = eng;
lastChange = "2020-05-02 04:27:37 +0000";
layers = (
{
layerId = "BB68A3FB-67CF-46D6-8942-4DAFE6725C7A";
paths = (
{
closed = 1;
nodes = (
"165 490 OFFCURVE",
"60 386 OFFCURVE",
"60 257 CURVE",
"60 0 LINE",
"224 0 LINE",
"224 257 LINE",
"224 295 OFFCURVE",
"255 327 OFFCURVE",
"294 327 CURVE",
"332 327 OFFCURVE",
"364 295 OFFCURVE",
"364 257 CURVE",
"364 0 LINE",
"364 -52 OFFCURVE",
"322 -93 OFFCURVE",
"270 -93 CURVE",
"262 -93 OFFCURVE",
"254 -92 OFFCURVE",
"247 -90 CURVE",
"247 -228 LINE",
"262 -231 OFFCURVE",
"277 -233 OFFCURVE",
"293 -233 CURVE",
"422 -233 OFFCURVE",
"527 -129 OFFCURVE",
"527 0 CURVE",
"527 257 LINE",
"527 386 OFFCURVE",
"423 490 OFFCURVE",
"294 490 CURVE"
);
}
);
width = 587;
},
{
layerId = "43EC01B8-31A0-4C9A-A12D-FF1A612D1D03";
paths = (
{
closed = 1;
nodes = (
"165 490 OFFCURVE",
"60 386 OFFCURVE",
"60 257 CURVE",
"60 0 LINE",
"119 0 LINE",
"119 257 LINE",
"119 353 OFFCURVE",
"197 432 OFFCURVE",
"294 432 CURVE",
"390 432 OFFCURVE",
"469 353 OFFCURVE",
"469 257 CURVE",
"469 0 LINE",
"469 -74 OFFCURVE",
"429 -134 OFFCURVE",
"369 -167 CURVE",
"362 -172 OFFCURVE",
"354 -176 OFFCURVE",
"347 -179 CURVE",
"347 -223 LINE",
"354 -221 OFFCURVE",
"362 -220 OFFCURVE",
"369 -217 CURVE",
"461 -185 OFFCURVE",
"527 -102 OFFCURVE",
"527 0 CURVE",
"527 257 LINE",
"527 386 OFFCURVE",
"423 490 OFFCURVE",
"294 490 CURVE"
);
}
);
width = 587;
}
);
leftKerningGroup = m;
unicode = 014B;
},
{
glyphname = o;
lastChange = "2018-01-16 07:02:58 +0000";
layers = (
{
layerId = "BB68A3FB-67CF-46D6-8942-4DAFE6725C7A";
paths = (
{
closed = 1;
nodes = (
"554 91 OFFCURVE",
"439 -24 OFFCURVE",
"297 -24 CURVE",
"155 -24 OFFCURVE",
"40 91 OFFCURVE",
"40 233 CURVE",
"40 375 OFFCURVE",
"155 490 OFFCURVE",
"297 490 CURVE",
"439 490 OFFCURVE",
"554 375 OFFCURVE",
"554 233 CURVE"
);
},
{
closed = 1;
nodes = (
"245 326 OFFCURVE",
"204 285 OFFCURVE",
"204 233 CURVE",
"204 181 OFFCURVE",
"245 139 OFFCURVE",
"297 139 CURVE",
"349 139 OFFCURVE",
"390 181 OFFCURVE",
"390 233 CURVE",
"390 285 OFFCURVE",
"349 326 OFFCURVE",
"297 326 CURVE"
);
}
);
width = 594;
},
{
layerId = "43EC01B8-31A0-4C9A-A12D-FF1A612D1D03";
paths = (
{
closed = 1;
nodes = (
"554 91 OFFCURVE",
"440 -24 OFFCURVE",
"297 -24 CURVE",
"155 -24 OFFCURVE",
"40 91 OFFCURVE",
"40 233 CURVE",
"40 375 OFFCURVE",
"155 490 OFFCURVE",
"297 490 CURVE",
"440 490 OFFCURVE",
"554 375 OFFCURVE",
"554 233 CURVE"
);
},
{
closed = 1;
nodes = (
"188 432 OFFCURVE",
"98 342 OFFCURVE",
"98 233 CURVE",
"98 124 OFFCURVE",
"188 34 OFFCURVE",
"297 34 CURVE",
"406 34 OFFCURVE",
"496 124 OFFCURVE",
"496 233 CURVE",
"496 342 OFFCURVE",
"406 432 OFFCURVE",
"297 432 CURVE"
);
}
);
width = 594;
}
);
leftKerningGroup = c;
unicode = 006F;
},
{
glyphname = oslash;
lastChange = "2020-05-02 08:08:54 +0000";
layers = (
{
components = (
{
alignment = -1;
name = o;
}
);
layerId = "BB68A3FB-67CF-46D6-8942-4DAFE6725C7A";
paths = (
{
closed = 1;
nodes = (
"50 -34 LINE",
"420 500 LINE",
"543 500 LINE",
"173 -34 LINE"
);
}
);
width = 594;
},
{
components = (
{
name = o;
}
);
layerId = "43EC01B8-31A0-4C9A-A12D-FF1A612D1D03";
paths = (
{
closed = 1;
nodes = (
"76 -34 LINE",
"446 500 LINE",
"516 500 LINE",
"146 -34 LINE"
);
}
);
width = 594;
}
);
leftKerningGroup = c;
unicode = 00F8;
},
{
glyphname = oe;
lastChange = "2020-05-02 04:44:06 +0000";
layers = (
{
layerId = "BB68A3FB-67CF-46D6-8942-4DAFE6725C7A";
paths = (
{
closed = 1;
nodes = (
"904 375 OFFCURVE",
"789 490 OFFCURVE",
"647 490 CURVE",
"580 490 OFFCURVE",
"518 464 OFFCURVE",
"472 421 CURVE",
"426 464 OFFCURVE",
"365 490 OFFCURVE",
"297 490 CURVE",
"155 490 OFFCURVE",
"40 375 OFFCURVE",
"40 233 CURVE",
"40 91 OFFCURVE",
"155 -24 OFFCURVE",
"297 -24 CURVE",
"365 -24 OFFCURVE",
"426 2 OFFCURVE",
"472 44 CURVE",
"518 2 OFFCURVE",
"580 -24 OFFCURVE",
"647 -24 CURVE",
"705 -24 OFFCURVE",
"759 -4 OFFCURVE",
"802 28 CURVE",
"711 149 LINE",
"693 136 OFFCURVE",
"671 128 OFFCURVE",
"647 128 CURVE",
"606 128 OFFCURVE",
"570 151 OFFCURVE",
"553 186 CURVE",
"900 186 LINE",
"902 201 OFFCURVE",
"904 217 OFFCURVE",
"904 233 CURVE"
);
},
{
closed = 1;
nodes = (
"245 139 OFFCURVE",
"204 181 OFFCURVE",
"204 233 CURVE",
"204 285 OFFCURVE",
"245 326 OFFCURVE",
"297 326 CURVE",
"349 326 OFFCURVE",
"390 285 OFFCURVE",
"390 233 CURVE",
"390 181 OFFCURVE",
"349 139 OFFCURVE",
"297 139 CURVE"
);
},
{
closed = 1;
nodes = (
"570 314 OFFCURVE",
"606 338 OFFCURVE",
"647 338 CURVE",
"688 338 OFFCURVE",
"724 314 OFFCURVE",
"741 279 CURVE",
"553 279 LINE"
);
}
);
width = 944;
},
{
layerId = "43EC01B8-31A0-4C9A-A12D-FF1A612D1D03";
paths = (
{
closed = 1;
nodes = (
"1010 375 OFFCURVE",
"895 490 OFFCURVE",
"753 490 CURVE",
"653 490 OFFCURVE",
"568 434 OFFCURVE",
"525 352 CURVE",
"482 434 OFFCURVE",
"397 490 OFFCURVE",
"297 490 CURVE",
"155 490 OFFCURVE",
"40 375 OFFCURVE",
"40 233 CURVE",
"40 91 OFFCURVE",
"155 -24 OFFCURVE",
"297 -24 CURVE",
"397 -24 OFFCURVE",
"482 32 OFFCURVE",
"525 114 CURVE",
"568 32 OFFCURVE",
"653 -24 OFFCURVE",
"753 -24 CURVE",
"811 -24 OFFCURVE",
"865 -5 OFFCURVE",
"909 28 CURVE",
"873 75 LINE",
"839 49 OFFCURVE",
"798 34 OFFCURVE",
"753 34 CURVE",
"651 34 OFFCURVE",
"567 111 OFFCURVE",
"555 210 CURVE",
"1009 210 LINE",
"1009 217 OFFCURVE",
"1010 225 OFFCURVE",
"1010 233 CURVE"
);
},
{
closed = 1;
nodes = (
"188 34 OFFCURVE",
"98 124 OFFCURVE",
"98 233 CURVE",
"98 342 OFFCURVE",
"188 432 OFFCURVE",
"297 432 CURVE",
"406 432 OFFCURVE",
"496 342 OFFCURVE",
"496 233 CURVE",
"496 124 OFFCURVE",
"406 34 OFFCURVE",
"297 34 CURVE"
);
},
{
closed = 1;
nodes = (
"574 362 OFFCURVE",
"656 432 OFFCURVE",
"753 432 CURVE",
"850 432 OFFCURVE",
"932 362 OFFCURVE",
"949 268 CURVE",
"557 268 LINE"
);
}
);
width = 1050;
}
);
leftKerningGroup = c;
unicode = 0153;
},
{
glyphname = p;
lastChange = "2016-11-16 02:57:57 +0000";
layers = (
{
layerId = "BB68A3FB-67CF-46D6-8942-4DAFE6725C7A";
paths = (
{
closed = 1;
nodes = (
"180 490 OFFCURVE",
"65 375 OFFCURVE",
"65 233 CURVE",
"65 -234 LINE",
"229 -234 LINE",
"229 -6 LINE",
"258 -18 OFFCURVE",
"289 -24 OFFCURVE",
"322 -24 CURVE",
"464 -24 OFFCURVE",
"579 91 OFFCURVE",
"579 233 CURVE",
"579 375 OFFCURVE",
"464 490 OFFCURVE",
"322 490 CURVE"
);
},
{
closed = 1;
nodes = (
"271 140 OFFCURVE",
"229 181 OFFCURVE",
"229 233 CURVE",
"229 285 OFFCURVE",
"271 326 OFFCURVE",
"322 326 CURVE",
"374 326 OFFCURVE",
"416 285 OFFCURVE",
"416 233 CURVE",
"416 181 OFFCURVE",
"374 140 OFFCURVE",
"322 140 CURVE"
);
}
);
width = 619;
},
{
layerId = "43EC01B8-31A0-4C9A-A12D-FF1A612D1D03";
paths = (
{
closed = 1;
nodes = (
"180 490 OFFCURVE",
"65 375 OFFCURVE",
"65 233 CURVE",
"65 -234 LINE",
"124 -234 LINE",
"124 70 LINE",
"171 13 OFFCURVE",
"242 -24 OFFCURVE",
"322 -24 CURVE",
"464 -24 OFFCURVE",
"579 91 OFFCURVE",
"579 233 CURVE",
"579 375 OFFCURVE",
"464 490 OFFCURVE",
"322 490 CURVE"
);
},
{
closed = 1;
nodes = (
"213 35 OFFCURVE",
"124 123 OFFCURVE",
"124 233 CURVE",
"124 343 OFFCURVE",
"213 432 OFFCURVE",
"322 432 CURVE",
"432 432 OFFCURVE",
"521 343 OFFCURVE",
"521 233 CURVE",
"521 123 OFFCURVE",
"432 35 OFFCURVE",
"322 35 CURVE"
);
}
);
width = 619;
}
);
leftKerningGroup = m;
unicode = 0070;
},
{
glyphname = thorn;
lastChange = "2020-05-02 08:02:07 +0000";
layers = (
{
layerId = "BB68A3FB-67CF-46D6-8942-4DAFE6725C7A";
paths = (
{
closed = 1;
nodes = (
"289 490 OFFCURVE",
"258 484 OFFCURVE",
"229 473 CURVE",
"229 700 LINE",
"65 700 LINE",
"65 -234 LINE",
"229 -234 LINE",
"229 -6 LINE",
"258 -18 OFFCURVE",
"289 -24 OFFCURVE",
"322 -24 CURVE",
"464 -24 OFFCURVE",
"579 91 OFFCURVE",
"579 233 CURVE",
"579 375 OFFCURVE",
"464 490 OFFCURVE",
"322 490 CURVE"
);
},
{
closed = 1;
nodes = (
"271 140 OFFCURVE",
"229 181 OFFCURVE",
"229 233 CURVE",
"229 285 OFFCURVE",
"271 326 OFFCURVE",
"322 326 CURVE",
"374 326 OFFCURVE",
"416 285 OFFCURVE",
"416 233 CURVE",
"416 181 OFFCURVE",
"374 140 OFFCURVE",
"322 140 CURVE"
);
}
);
width = 619;
},
{
layerId = "43EC01B8-31A0-4C9A-A12D-FF1A612D1D03";
paths = (
{
closed = 1;
nodes = (
"242 487 OFFCURVE",
"171 451 OFFCURVE",
"124 394 CURVE",
"124 700 LINE",
"65 700 LINE",
"65 -237 LINE",
"124 -237 LINE",
"124 67 LINE",
"171 10 OFFCURVE",
"242 -27 OFFCURVE",
"322 -27 CURVE",
"464 -27 OFFCURVE",
"579 88 OFFCURVE",
"579 230 CURVE",
"579 372 OFFCURVE",
"464 487 OFFCURVE",
"322 487 CURVE"
);
},
{
closed = 1;
nodes = (
"213 32 OFFCURVE",
"124 120 OFFCURVE",
"124 230 CURVE",
"124 340 OFFCURVE",
"213 429 OFFCURVE",
"322 429 CURVE",
"432 429 OFFCURVE",
"521 340 OFFCURVE",
"521 230 CURVE",
"521 120 OFFCURVE",
"432 32 OFFCURVE",
"322 32 CURVE"
);
}
);
width = 619;
}
);
leftKerningGroup = m;
unicode = 00FE;
},
{
glyphname = q;
lastChange = "2016-11-16 02:59:03 +0000";
layers = (
{
layerId = "BB68A3FB-67CF-46D6-8942-4DAFE6725C7A";
paths = (
{
closed = 1;
nodes = (
"155 490 OFFCURVE",
"40 375 OFFCURVE",
"40 233 CURVE",
"40 91 OFFCURVE",
"155 -24 OFFCURVE",
"297 -24 CURVE",
"330 -24 OFFCURVE",
"361 -18 OFFCURVE",
"390 -6 CURVE",
"390 -234 LINE",
"554 -234 LINE",
"554 233 LINE",
"554 375 OFFCURVE",
"439 490 OFFCURVE",
"297 490 CURVE"
);
},
{
closed = 1;
nodes = (
"245 140 OFFCURVE",
"204 181 OFFCURVE",
"204 233 CURVE",
"204 285 OFFCURVE",
"245 326 OFFCURVE",
"297 326 CURVE",
"349 326 OFFCURVE",
"390 285 OFFCURVE",
"390 233 CURVE",
"390 181 OFFCURVE",
"349 140 OFFCURVE",
"297 140 CURVE"
);
}
);
width = 619;
},
{
layerId = "43EC01B8-31A0-4C9A-A12D-FF1A612D1D03";
paths = (
{
closed = 1;
nodes = (
"155 490 OFFCURVE",
"40 375 OFFCURVE",
"40 233 CURVE",
"40 91 OFFCURVE",
"155 -24 OFFCURVE",
"297 -24 CURVE",
"381 -24 OFFCURVE",
"455 16 OFFCURVE",
"502 77 CURVE",
"502 -234 LINE",
"554 -234 LINE",
"554 233 LINE",
"554 375 OFFCURVE",
"439 490 OFFCURVE",
"297 490 CURVE"
);
},
{
closed = 1;
nodes = (
"184 29 OFFCURVE",
"93 120 OFFCURVE",
"93 233 CURVE",
"93 346 OFFCURVE",
"184 437 OFFCURVE",
"297 437 CURVE",
"410 437 OFFCURVE",
"502 346 OFFCURVE",
"502 233 CURVE",
"502 120 OFFCURVE",
"410 29 OFFCURVE",
"297 29 CURVE"
);
}
);
width = 619;
}
);
leftKerningGroup = d;
unicode = 0071;
},
{
glyphname = r;
lastChange = "2016-11-16 07:53:35 +0000";
layers = (
{
layerId = "BB68A3FB-67CF-46D6-8942-4DAFE6725C7A";
paths = (
{
closed = 1;
nodes = (
"175 490 OFFCURVE",
"60 375 OFFCURVE",
"60 234 CURVE SMOOTH",
"60 0 LINE",
"223 0 LINE",
"223 234 LINE SMOOTH",
"223 285 OFFCURVE",
"265 327 OFFCURVE",
"317 327 CURVE SMOOTH",
"325 327 OFFCURVE",
"333 326 OFFCURVE",
"340 324 CURVE",
"340 489 LINE",
"332 490 OFFCURVE",
"325 490 OFFCURVE",
"317 490 CURVE SMOOTH"
);
}
);
width = 370;
},
{
layerId = "43EC01B8-31A0-4C9A-A12D-FF1A612D1D03";
paths = (
{
closed = 1;
nodes = (
"146 490 OFFCURVE",
"60 404 OFFCURVE",
"60 297 CURVE",
"60 0 LINE",
"118 0 LINE",
"118 297 LINE",
"118 372 OFFCURVE",
"178 432 OFFCURVE",
"253 432 CURVE",
"265 432 OFFCURVE",
"276 430 OFFCURVE",
"288 427 CURVE",
"288 487 LINE",
"276 489 OFFCURVE",
"265 490 OFFCURVE",
"253 490 CURVE"
);
}
);
width = 318;
}
);
leftKerningGroup = m;
unicode = 0072;
},
{
glyphname = s;
lastChange = "2020-04-27 07:49:43 +0000";
layers = (
{
layerId = "BB68A3FB-67CF-46D6-8942-4DAFE6725C7A";
paths = (
{
closed = 1;
nodes = (
"226 319 OFFCURVE",
"210 330 OFFCURVE",
"210 343 CURVE",
"210 356 OFFCURVE",
"225 364 OFFCURVE",
"242 364 CURVE",
"261 364 OFFCURVE",
"282 354 OFFCURVE",
"299 340 CURVE",
"419 412 LINE",
"380 462 OFFCURVE",
"322 493 OFFCURVE",
"241 493 CURVE",
"136 493 OFFCURVE",
"56 424 OFFCURVE",
"56 340 CURVE",
"56 257 OFFCURVE",
"118 213 OFFCURVE",
"233 173 CURVE SMOOTH",
"250 167 OFFCURVE",
"269 159 OFFCURVE",
"269 142 CURVE",
"269 125 OFFCURVE",
"251 119 OFFCURVE",
"231 121 CURVE",
"207 121 OFFCURVE",
"179 140 OFFCURVE",
"162 154 CURVE",
"35 70 LINE",
"76 16 OFFCURVE",
"142 -24 OFFCURVE",
"229 -24 CURVE",
"339 -24 OFFCURVE",
"427 31 OFFCURVE",
"427 125 CURVE",
"427 221 OFFCURVE",
"366 268 OFFCURVE",
"243 313 CURVE SMOOTH"
);
}
);
width = 457;
},
{
layerId = "43EC01B8-31A0-4C9A-A12D-FF1A612D1D03";
paths = (
{
closed = 1;
nodes = (
"191 287 OFFCURVE",
"110 311 OFFCURVE",
"110 354 CURVE",
"110 390 OFFCURVE",
"140 434 OFFCURVE",
"231 434 CURVE",
"283 434 OFFCURVE",
"333 412 OFFCURVE",
"357 377 CURVE",
"408 400 LINE",
"378 457 OFFCURVE",
"312 493 OFFCURVE",
"231 493 CURVE",
"126 493 OFFCURVE",
"52 439 OFFCURVE",
"52 354 CURVE",
"52 278 OFFCURVE",
"142 243 OFFCURVE",
"229 218 CURVE",
"333 188 OFFCURVE",
"367 157 OFFCURVE",
"367 115 CURVE",
"367 61 OFFCURVE",
"307 36 OFFCURVE",
"231 36 CURVE",
"170 36 OFFCURVE",
"113 78 OFFCURVE",
"91 111 CURVE",
"35 84 LINE",
"67 23 OFFCURVE",
"144 -24 OFFCURVE",
"231 -24 CURVE",
"342 -24 OFFCURVE",
"423 29 OFFCURVE",
"423 115 CURVE",
"423 215 OFFCURVE",
"338 249 OFFCURVE",
"239 275 CURVE"
);
}
);
width = 453;
}
);
leftKerningGroup = s;
unicode = 0073;
},
{
glyphname = t;
lastChange = "2020-05-03 00:33:32 +0000";
layers = (
{
layerId = "BB68A3FB-67CF-46D6-8942-4DAFE6725C7A";
paths = (
{
closed = 1;
nodes = (
"358 700 LINE",
"195 700 LINE",
"195 467 LINE",
"50 467 LINE",
"50 326 LINE",
"195 326 LINE",
"195 0 LINE",
"358 0 LINE",
"358 326 LINE",
"503 326 LINE",
"503 467 LINE",
"358 467 LINE"
);
}
);
width = 553;
},
{
layerId = "43EC01B8-31A0-4C9A-A12D-FF1A612D1D03";
paths = (
{
closed = 1;
nodes = (
"258 700 LINE",
"200 700 LINE",
"200 467 LINE",
"50 467 LINE",
"50 409 LINE",
"200 409 LINE",
"200 0 LINE",
"258 0 LINE",
"258 409 LINE",
"408 409 LINE",
"408 467 LINE",
"258 467 LINE"
);
}
);
width = 458;
}
);
leftKerningGroup = t;
rightKerningGroup = t;
unicode = 0074;
},
{
glyphname = tcaron;
lastChange = "2020-05-03 00:35:21 +0000";
layers = (
{
components = (
{
name = t;
}
);
layerId = "BB68A3FB-67CF-46D6-8942-4DAFE6725C7A";
paths = (
{
closed = 1;
nodes = (
"386 533 LINE",
"472 533 LINE",
"542 700 LINE",
"404 700 LINE"
);
}
);
width = 562;
},
{
components = (
{
name = t;
}
);
layerId = "43EC01B8-31A0-4C9A-A12D-FF1A612D1D03";
paths = (
{
closed = 1;
nodes = (
"283 533 LINE",
"319 533 LINE",
"373 700 LINE",
"311 700 LINE"
);
}
);
width = 458;
}
);
leftKerningGroup = t;
unicode = 0165;
},
{
glyphname = u;
lastChange = "2018-01-16 07:05:32 +0000";
layers = (
{
layerId = "BB68A3FB-67CF-46D6-8942-4DAFE6725C7A";
paths = (
{
closed = 1;
nodes = (
"60 209 LINE",
"60 80 OFFCURVE",
"165 -24 OFFCURVE",
"294 -24 CURVE",
"423 -24 OFFCURVE",
"527 80 OFFCURVE",
"527 209 CURVE",
"527 466 LINE",
"364 466 LINE",
"364 209 LINE",
"364 171 OFFCURVE",
"332 139 OFFCURVE",
"294 139 CURVE",
"255 139 OFFCURVE",
"224 171 OFFCURVE",
"224 209 CURVE",
"224 466 LINE",
"60 466 LINE"
);
}
);
width = 587;
},
{
layerId = "43EC01B8-31A0-4C9A-A12D-FF1A612D1D03";
paths = (
{
closed = 1;
nodes = (
"60 209 LINE",
"60 80 OFFCURVE",
"164 -24 OFFCURVE",
"293 -24 CURVE",
"422 -24 OFFCURVE",
"527 80 OFFCURVE",
"527 209 CURVE",
"527 467 LINE",
"468 467 LINE",
"468 209 LINE",
"468 113 OFFCURVE",
"390 34 OFFCURVE",
"293 34 CURVE",
"196 34 OFFCURVE",
"118 113 OFFCURVE",
"118 209 CURVE",
"118 467 LINE",
"60 467 LINE"
);
}
);
width = 587;
}
);
leftKerningGroup = u;
unicode = 0075;
},
{
glyphname = uogonek;
lastChange = "2019-12-17 06:27:19 +0000";
layers = (
{
layerId = "BB68A3FB-67CF-46D6-8942-4DAFE6725C7A";
paths = (
{
closed = 1;
nodes = (
"527 466 LINE",
"364 466 LINE",
"364 209 LINE SMOOTH",
"364 171 OFFCURVE",
"332 139 OFFCURVE",
"294 139 CURVE SMOOTH",
"255 139 OFFCURVE",
"224 171 OFFCURVE",
"224 209 CURVE SMOOTH",
"224 466 LINE",
"60 466 LINE",
"60 209 LINE SMOOTH",
"60 91 OFFCURVE",
"148 -6 OFFCURVE",
"261 -22 CURVE",
"261 -22 OFFCURVE",
"261 -22 OFFCURVE",
"261 -22 CURVE SMOOTH",
"238 -51 OFFCURVE",
"221 -98 OFFCURVE",
"236 -133 CURVE SMOOTH",
"256 -180 OFFCURVE",
"304 -200 OFFCURVE",
"366 -200 CURVE SMOOTH",
"431 -200 OFFCURVE",
"479 -158 OFFCURVE",
"479 -158 CURVE",
"430 -82 LINE",
"430 -82 OFFCURVE",
"411 -91 OFFCURVE",
"395 -91 CURVE SMOOTH",
"386 -91 OFFCURVE",
"376 -84 OFFCURVE",
"374 -73 CURVE SMOOTH",
"370 -48 OFFCURVE",
"394 -17 OFFCURVE",
"444 31 CURVE SMOOTH",
"495 74 OFFCURVE",
"527 137 OFFCURVE",
"527 209 CURVE SMOOTH"
);
}
);
width = 587;
},
{
layerId = "43EC01B8-31A0-4C9A-A12D-FF1A612D1D03";
paths = (
{
closed = 1;
nodes = (
"527 467 LINE",
"468 467 LINE",
"468 209 LINE SMOOTH",
"468 113 OFFCURVE",
"390 34 OFFCURVE",
"293 34 CURVE SMOOTH",
"196 34 OFFCURVE",
"118 113 OFFCURVE",
"118 209 CURVE SMOOTH",
"118 467 LINE",
"60 467 LINE",
"60 209 LINE SMOOTH",
"60 80 OFFCURVE",
"164 -24 OFFCURVE",
"293 -24 CURVE SMOOTH",
"301 -24 OFFCURVE",
"308 -24 OFFCURVE",
"315 -23 CURVE",
"287 -53 OFFCURVE",
"275 -92 OFFCURVE",
"284 -121 CURVE SMOOTH",
"293 -149 OFFCURVE",
"324 -176 OFFCURVE",
"366 -176 CURVE SMOOTH",
"404 -176 OFFCURVE",
"431 -162 OFFCURVE",
"431 -162 CURVE",
"405 -118 LINE",
"405 -118 OFFCURVE",
"387 -125 OFFCURVE",
"369 -124 CURVE SMOOTH",
"355 -123 OFFCURVE",
"339 -112 OFFCURVE",
"337 -98 CURVE SMOOTH",
"332 -68 OFFCURVE",
"378 -22 OFFCURVE",
"441 29 CURVE SMOOTH",
"494 71 OFFCURVE",
"527 136 OFFCURVE",
"527 209 CURVE SMOOTH"
);
}
);
width = 587;
}
);
leftKerningGroup = u;
unicode = 0173;
},
{
glyphname = v;
lastChange = "2017-04-12 04:44:34 +0000";
layers = (
{
layerId = "BB68A3FB-67CF-46D6-8942-4DAFE6725C7A";
paths = (
{
closed = 1;
nodes = (
"295 280 LINE",
"202 466 LINE",
"15 466 LINE",
"295 -24 LINE",
"575 466 LINE",
"388 466 LINE"
);
}
);
width = 590;
},
{
layerId = "43EC01B8-31A0-4C9A-A12D-FF1A612D1D03";
paths = (
{
closed = 1;
nodes = (
"248 116 LINE",
"85 466 LINE",
"15 466 LINE",
"248 -24 LINE",
"482 466 LINE",
"412 466 LINE"
);
}
);
width = 497;
}
);
leftKerningGroup = v;
rightKerningGroup = v;
unicode = 0076;
},
{
glyphname = w;
lastChange = "2016-11-22 01:28:37 +0000";
layers = (
{
layerId = "BB68A3FB-67CF-46D6-8942-4DAFE6725C7A";
paths = (
{
closed = 1;
nodes = (
"532 292 LINE",
"417 490 LINE",
"302 292 LINE",
"207 467 LINE",
"20 467 LINE",
"277 -24 LINE",
"417 209 LINE",
"557 -24 LINE",
"814 467 LINE",
"627 467 LINE"
);
}
);
width = 834;
},
{
layerId = "43EC01B8-31A0-4C9A-A12D-FF1A612D1D03";
paths = (
{
closed = 1;
nodes = (
"487 140 LINE",
"347 490 LINE",
"207 140 LINE",
"90 467 LINE",
"20 467 LINE",
"207 -24 LINE",
"347 326 LINE",
"487 -24 LINE",
"674 467 LINE",
"604 467 LINE"
);
}
);
width = 694;
}
);
leftKerningGroup = w;
rightKerningGroup = w;
unicode = 0077;
},
{
glyphname = x;
lastChange = "2016-11-16 08:06:11 +0000";
layers = (
{
layerId = "BB68A3FB-67CF-46D6-8942-4DAFE6725C7A";
paths = (
{
closed = 1;
nodes = (
"347 467 LINE",
"277 367 LINE",
"207 467 LINE",
"20 467 LINE",
"184 234 LINE",
"20 0 LINE",
"207 0 LINE",
"277 100 LINE",
"347 0 LINE",
"534 0 LINE",
"370 234 LINE",
"534 467 LINE"
);
}
);
width = 554;
},
{
layerId = "43EC01B8-31A0-4C9A-A12D-FF1A612D1D03";
paths = (
{
closed = 1;
nodes = (
"382 467 LINE",
"242 286 LINE",
"102 467 LINE",
"20 467 LINE",
"201 234 LINE",
"20 0 LINE",
"102 0 LINE",
"242 181 LINE",
"382 0 LINE",
"464 0 LINE",
"283 234 LINE",
"464 467 LINE"
);
}
);
width = 484;
}
);
leftKerningGroup = x;
unicode = 0078;
},
{
glyphname = y;
lastChange = "2016-11-22 05:26:31 +0000";
layers = (
{
layerId = "BB68A3FB-67CF-46D6-8942-4DAFE6725C7A";
paths = (
{
closed = 1;
nodes = (
"296 242 LINE",
"190 467 LINE",
"15 467 LINE",
"208 55 LINE",
"73 -234 LINE",
"249 -234 LINE",
"576 467 LINE",
"400 467 LINE"
);
}
);
width = 591;
},
{
layerId = "43EC01B8-31A0-4C9A-A12D-FF1A612D1D03";
paths = (
{
closed = 1;
nodes = (
"249 118 LINE",
"85 467 LINE",
"15 467 LINE",
"215 43 LINE",
"85 -234 LINE",
"155 -234 LINE",
"482 467 LINE",
"412 467 LINE"
);
}
);
width = 497;
}
);
leftKerningGroup = y;
rightKerningGroup = y;
unicode = 0079;
},
{
glyphname = z;
lastChange = "2019-12-16 09:12:06 +0000";
layers = (
{
layerId = "BB68A3FB-67CF-46D6-8942-4DAFE6725C7A";
paths = (
{
closed = 1;
nodes = (
"87 467 LINE",
"87 326 LINE",
"269 326 LINE",
"40 0 LINE",
"531 0 LINE",
"531 140 LINE",
"325 140 LINE",
"554 467 LINE"
);
}
);
width = 594;
},
{
layerId = "43EC01B8-31A0-4C9A-A12D-FF1A612D1D03";
paths = (
{
closed = 1;
nodes = (
"87 467 LINE",
"87 409 LINE",
"326 409 LINE",
"40 0 LINE",
"437 0 LINE",
"437 58 LINE",
"151 58 LINE",
"437 467 LINE"
);
}
);
width = 477;
}
);
leftKerningGroup = z;
unicode = 007A;
},
{
glyphname = zero;
lastChange = "2020-04-27 13:23:23 +0000";
layers = (
{
layerId = "BB68A3FB-67CF-46D6-8942-4DAFE6725C7A";
paths = (
{
closed = 1;
nodes = (
"70 609 OFFCURVE",
"185 724 OFFCURVE",
"327 724 CURVE",
"469 724 OFFCURVE",
"584 609 OFFCURVE",
"584 467 CURVE",
"584 233 LINE",
"584 91 OFFCURVE",
"469 -24 OFFCURVE",
"327 -24 CURVE",
"185 -24 OFFCURVE",
"70 91 OFFCURVE",
"70 233 CURVE",
"70 467 LINE"
);
},
{
closed = 1;
nodes = (
"257 194 OFFCURVE",
"288 163 OFFCURVE",
"327 163 CURVE",
"366 163 OFFCURVE",
"397 194 OFFCURVE",
"397 233 CURVE",
"397 467 LINE",
"397 506 OFFCURVE",
"366 537 OFFCURVE",
"327 537 CURVE",
"288 537 OFFCURVE",
"257 506 OFFCURVE",
"257 467 CURVE",
"257 233 LINE"
);
}
);
width = 654;
},
{
layerId = "43EC01B8-31A0-4C9A-A12D-FF1A612D1D03";
paths = (
{
closed = 1;
nodes = (
"70 619 OFFCURVE",
"174 724 OFFCURVE",
"303 724 CURVE",
"432 724 OFFCURVE",
"537 619 OFFCURVE",
"537 490 CURVE",
"537 210 LINE",
"537 81 OFFCURVE",
"432 -24 OFFCURVE",
"303 -24 CURVE",
"174 -24 OFFCURVE",
"70 81 OFFCURVE",
"70 210 CURVE",
"70 490 LINE"
);
},
{
closed = 1;
nodes = (
"134 116 OFFCURVE",
"210 40 OFFCURVE",
"303 40 CURVE",
"397 40 OFFCURVE",
"473 116 OFFCURVE",
"473 210 CURVE",
"473 490 LINE",
"473 584 OFFCURVE",
"397 660 OFFCURVE",
"303 660 CURVE",
"210 660 OFFCURVE",
"134 584 OFFCURVE",
"134 490 CURVE",
"134 210 LINE"
);
}
);
width = 607;
}
);
unicode = 0030;
},
{
glyphname = one;
lastChange = "2020-04-27 13:24:57 +0000";
layers = (
{
layerId = "BB68A3FB-67CF-46D6-8942-4DAFE6725C7A";
paths = (
{
closed = 1;
nodes = (
"70 537 LINE",
"163 537 LINE",
"163 0 LINE",
"350 0 LINE",
"350 700 LINE",
"116 700 LINE"
);
}
);
width = 420;
},
{
layerId = "43EC01B8-31A0-4C9A-A12D-FF1A612D1D03";
paths = (
{
closed = 1;
nodes = (
"80 642 LINE",
"179 642 LINE",
"179 0 LINE",
"243 0 LINE",
"243 700 LINE",
"96 700 LINE"
);
}
);
width = 363;
}
);
unicode = 0031;
},
{
glyphname = two;
lastChange = "2020-04-27 13:25:05 +0000";
layers = (
{
layerId = "BB68A3FB-67CF-46D6-8942-4DAFE6725C7A";
paths = (
{
closed = 1;
nodes = (
"557 361 OFFCURVE",
"574 412 OFFCURVE",
"574 467 CURVE SMOOTH",
"574 609 OFFCURVE",
"459 724 OFFCURVE",
"317 724 CURVE SMOOTH",
"188 724 OFFCURVE",
"82 630 OFFCURVE",
"63 506 CURVE",
"248 478 LINE",
"253 511 OFFCURVE",
"282 537 OFFCURVE",
"317 537 CURVE SMOOTH",
"356 537 OFFCURVE",
"387 506 OFFCURVE",
"387 467 CURVE SMOOTH",
"387 449 OFFCURVE",
"379 434 OFFCURVE",
"369 420 CURVE SMOOTH",
"60 0 LINE",
"551 0 LINE",
"551 163 LINE",
"414 163 LINE",
"527 319 LINE SMOOTH"
);
}
);
width = 664;
},
{
layerId = "43EC01B8-31A0-4C9A-A12D-FF1A612D1D03";
paths = (
{
closed = 1;
nodes = (
"485 414 OFFCURVE",
"504 462 OFFCURVE",
"504 514 CURVE SMOOTH",
"504 630 OFFCURVE",
"410 724 OFFCURVE",
"293 724 CURVE SMOOTH",
"188 724 OFFCURVE",
"101 647 OFFCURVE",
"86 546 CURVE",
"144 537 LINE",
"155 610 OFFCURVE",
"218 666 OFFCURVE",
"293 666 CURVE SMOOTH",
"377 666 OFFCURVE",
"445 598 OFFCURVE",
"445 514 CURVE SMOOTH",
"445 476 OFFCURVE",
"431 441 OFFCURVE",
"408 414 CURVE SMOOTH",
"60 0 LINE",
"504 0 LINE",
"504 58 LINE",
"185 58 LINE",
"453 377 LINE SMOOTH"
);
}
);
width = 594;
}
);
unicode = 0032;
},
{
glyphname = three;
lastChange = "2017-04-11 00:55:36 +0000";
layers = (
{
layerId = "BB68A3FB-67CF-46D6-8942-4DAFE6725C7A";
paths = (
{
closed = 1;
nodes = (
"572 384 OFFCURVE",
"592 431 OFFCURVE",
"592 490 CURVE",
"592 632 OFFCURVE",
"477 724 OFFCURVE",
"335 724 CURVE",
"214 724 OFFCURVE",
"113 641 OFFCURVE",
"85 529 CURVE",
"266 501 LINE",
"271 535 OFFCURVE",
"300 560 OFFCURVE",
"335 560 CURVE",
"374 560 OFFCURVE",
"405 529 OFFCURVE",
"405 490 CURVE",
"405 452 OFFCURVE",
"374 420 OFFCURVE",
"335 420 CURVE",
"288 420 LINE",
"288 280 LINE",
"335 280 LINE",
"374 280 OFFCURVE",
"405 248 OFFCURVE",
"405 210 CURVE",
"405 171 OFFCURVE",
"374 140 OFFCURVE",
"335 140 CURVE",
"300 140 OFFCURVE",
"271 165 OFFCURVE",
"266 199 CURVE",
"85 171 LINE",
"113 59 OFFCURVE",
"214 -24 OFFCURVE",
"335 -24 CURVE",
"477 -24 OFFCURVE",
"592 68 OFFCURVE",
"592 210 CURVE",
"592 269 OFFCURVE",
"572 316 OFFCURVE",
"538 350 CURVE"
);
}
);
width = 672;
},
{
layerId = "43EC01B8-31A0-4C9A-A12D-FF1A612D1D03";
paths = (
{
closed = 1;
nodes = (
"488 394 OFFCURVE",
"521 453 OFFCURVE",
"521 525 CURVE",
"521 641 OFFCURVE",
"436 724 OFFCURVE",
"307 724 CURVE",
"196 724 OFFCURVE",
"109 654 OFFCURVE",
"85 561 CURVE",
"147 548 LINE",
"165 615 OFFCURVE",
"226 666 OFFCURVE",
"307 666 CURVE",
"400 666 OFFCURVE",
"457 609 OFFCURVE",
"457 525 CURVE",
"457 441 OFFCURVE",
"400 384 OFFCURVE",
"307 384 CURVE",
"248 384 LINE",
"248 326 LINE",
"307 326 LINE",
"400 326 OFFCURVE",
"464 280 OFFCURVE",
"464 186 CURVE",
"464 102 OFFCURVE",
"404 34 OFFCURVE",
"307 34 CURVE",
"226 34 OFFCURVE",
"165 84 OFFCURVE",
"147 152 CURVE",
"85 138 LINE",
"109 45 OFFCURVE",
"196 -24 OFFCURVE",
"307 -24 CURVE",
"447 -24 OFFCURVE",
"529 70 OFFCURVE",
"529 186 CURVE",
"529 275 OFFCURVE",
"492 330 OFFCURVE",
"432 359 CURVE"
);
}
);
width = 608;
}
);
unicode = 0033;
},
{
glyphname = four;
lastChange = "2017-04-11 00:50:54 +0000";
layers = (
{
layerId = "BB68A3FB-67CF-46D6-8942-4DAFE6725C7A";
paths = (
{
closed = 1;
nodes = (
"536 258 LINE",
"536 373 LINE",
"349 374 LINE",
"349 258 LINE",
"256 258 LINE",
"443 700 LINE",
"258 700 LINE",
"70 257 LINE",
"70 94 LINE",
"350 95 LINE",
"350 0 LINE",
"536 0 LINE",
"536 95 LINE",
"583 95 LINE",
"583 258 LINE"
);
}
);
width = 643;
},
{
layerId = "43EC01B8-31A0-4C9A-A12D-FF1A612D1D03";
paths = (
{
closed = 1;
nodes = (
"420 198 LINE",
"420 373 LINE",
"356 374 LINE",
"356 198 LINE",
"142 198 LINE",
"356 700 LINE",
"286 700 LINE",
"70 198 LINE",
"70 140 LINE",
"356 140 LINE",
"356 0 LINE",
"420 0 LINE",
"420 140 LINE",
"537 140 LINE",
"537 198 LINE"
);
}
);
width = 597;
}
);
unicode = 0034;
},
{
glyphname = five;
lastChange = "2017-04-10 12:42:01 +0000";
layers = (
{
layerId = "BB68A3FB-67CF-46D6-8942-4DAFE6725C7A";
paths = (
{
closed = 1;
nodes = (
"327 490 OFFCURVE",
"315 489 OFFCURVE",
"303 487 CURVE",
"311 536 LINE",
"572 536 LINE",
"572 700 LINE",
"176 700 LINE",
"106 280 LINE",
"258 279 LINE",
"274 307 OFFCURVE",
"304 326 OFFCURVE",
"339 326 CURVE",
"391 326 OFFCURVE",
"432 284 OFFCURVE",
"432 233 CURVE",
"432 181 OFFCURVE",
"391 139 OFFCURVE",
"339 139 CURVE",
"301 139 OFFCURVE",
"268 163 OFFCURVE",
"253 196 CURVE",
"90 170 LINE",
"118 59 OFFCURVE",
"219 -24 OFFCURVE",
"339 -24 CURVE",
"481 -24 OFFCURVE",
"596 91 OFFCURVE",
"596 233 CURVE",
"596 375 OFFCURVE",
"481 490 OFFCURVE",
"339 490 CURVE"
);
}
);
width = 676;
},
{
layerId = "43EC01B8-31A0-4C9A-A12D-FF1A612D1D03";
paths = (
{
closed = 1;
nodes = (
"271 443 OFFCURVE",
"232 431 OFFCURVE",
"200 411 CURVE",
"236 642 LINE",
"502 642 LINE",
"502 700 LINE",
"175 700 LINE",
"109 280 LINE",
"179 280 LINE",
"194 337 OFFCURVE",
"247 379 OFFCURVE",
"315 379 CURVE",
"409 379 OFFCURVE",
"485 303 OFFCURVE",
"485 209 CURVE",
"485 116 OFFCURVE",
"409 40 OFFCURVE",
"315 40 CURVE",
"239 40 OFFCURVE",
"174 90 OFFCURVE",
"154 160 CURVE",
"90 150 LINE",
"116 50 OFFCURVE",
"207 -24 OFFCURVE",
"315 -24 CURVE",
"444 -24 OFFCURVE",
"549 81 OFFCURVE",
"549 210 CURVE",
"549 339 OFFCURVE",
"444 443 OFFCURVE",
"315 443 CURVE"
);
}
);
width = 629;
}
);
unicode = 0035;
},
{
glyphname = six;
lastChange = "2017-04-10 12:19:23 +0000";
layers = (
{
layerId = "BB68A3FB-67CF-46D6-8942-4DAFE6725C7A";
paths = (
{
closed = 1;
nodes = (
"406 479 OFFCURVE",
"375 487 OFFCURVE",
"345 489 CURVE",
"444 700 LINE",
"262 700 LINE",
"94 341 LINE",
"34 212 OFFCURVE",
"90 60 OFFCURVE",
"219 0 CURVE",
"347 -60 OFFCURVE",
"500 -5 OFFCURVE",
"560 124 CURVE",
"620 253 OFFCURVE",
"565 405 OFFCURVE",
"436 465 CURVE"
);
},
{
closed = 1;
nodes = (
"390 146 OFFCURVE",
"335 126 OFFCURVE",
"288 148 CURVE",
"241 170 OFFCURVE",
"221 225 OFFCURVE",
"243 272 CURVE",
"264 319 OFFCURVE",
"320 339 OFFCURVE",
"367 317 CURVE",
"414 295 OFFCURVE",
"434 240 OFFCURVE",
"412 193 CURVE"
);
}
);
width = 654;
},
{
layerId = "43EC01B8-31A0-4C9A-A12D-FF1A612D1D03";
paths = (
{
closed = 1;
nodes = (
"343 448 OFFCURVE",
"276 448 OFFCURVE",
"218 425 CURVE",
"346 700 LINE",
"275 700 LINE",
"92 306 LINE",
"37 189 OFFCURVE",
"88 49 OFFCURVE",
"205 -5 CURVE",
"322 -60 OFFCURVE",
"462 -9 OFFCURVE",
"517 108 CURVE",
"571 226 OFFCURVE",
"521 365 OFFCURVE",
"403 420 CURVE"
);
},
{
closed = 1;
nodes = (
"419 50 OFFCURVE",
"317 13 OFFCURVE",
"232 53 CURVE",
"147 93 OFFCURVE",
"110 194 OFFCURVE",
"150 279 CURVE",
"190 364 OFFCURVE",
"291 401 OFFCURVE",
"376 361 CURVE",
"461 322 OFFCURVE",
"498 220 OFFCURVE",
"458 135 CURVE"
);
}
);
width = 608;
}
);
unicode = 0036;
},
{
glyphname = seven;
lastChange = "2017-04-12 10:12:36 +0000";
layers = (
{
layerId = "BB68A3FB-67CF-46D6-8942-4DAFE6725C7A";
paths = (
{
closed = 1;
nodes = (
"80 537 LINE",
"323 537 LINE",
"127 0 LINE",
"313 0 LINE",
"570 700 LINE",
"80 700 LINE"
);
}
);
width = 630;
},
{
layerId = "43EC01B8-31A0-4C9A-A12D-FF1A612D1D03";
paths = (
{
closed = 1;
nodes = (
"80 642 LINE",
"428 642 LINE",
"150 0 LINE",
"220 0 LINE",
"523 700 LINE",
"80 700 LINE"
);
}
);
width = 603;
}
);
unicode = 0037;
},
{
glyphname = eight;
lastChange = "2017-04-10 13:02:41 +0000";
layers = (
{
layerId = "BB68A3FB-67CF-46D6-8942-4DAFE6725C7A";
paths = (
{
closed = 1;
nodes = (
"548 411 OFFCURVE",
"571 460 OFFCURVE",
"571 514 CURVE",
"571 630 OFFCURVE",
"466 724 OFFCURVE",
"337 724 CURVE",
"208 724 OFFCURVE",
"103 630 OFFCURVE",
"103 514 CURVE",
"103 460 OFFCURVE",
"126 411 OFFCURVE",
"162 374 CURVE",
"112 332 OFFCURVE",
"80 272 OFFCURVE",
"80 206 CURVE",
"80 79 OFFCURVE",
"195 -24 OFFCURVE",
"337 -24 CURVE",
"479 -24 OFFCURVE",
"594 70 OFFCURVE",
"594 206 CURVE",
"594 272 OFFCURVE",
"562 332 OFFCURVE",
"512 374 CURVE"
);
},
{
closed = 1;
nodes = (
"267 543 OFFCURVE",
"298 573 OFFCURVE",
"337 573 CURVE",
"376 573 OFFCURVE",
"407 543 OFFCURVE",
"407 504 CURVE",
"407 466 OFFCURVE",
"376 435 OFFCURVE",
"337 435 CURVE",
"298 435 OFFCURVE",
"267 466 OFFCURVE",
"267 504 CURVE"
);
},
{
closed = 1;
nodes = (
"285 122 OFFCURVE",
"244 163 OFFCURVE",
"244 213 CURVE",
"244 263 OFFCURVE",
"285 303 OFFCURVE",
"337 303 CURVE",
"389 303 OFFCURVE",
"431 263 OFFCURVE",
"431 213 CURVE",
"431 163 OFFCURVE",
"389 122 OFFCURVE",
"337 122 CURVE"
);
}
);
width = 674;
},
{
layerId = "43EC01B8-31A0-4C9A-A12D-FF1A612D1D03";
paths = (
{
closed = 1;
nodes = (
"484 412 OFFCURVE",
"523 469 OFFCURVE",
"523 535 CURVE SMOOTH",
"523 638 OFFCURVE",
"429 722 OFFCURVE",
"313 722 CURVE SMOOTH",
"197 722 OFFCURVE",
"103 638 OFFCURVE",
"103 535 CURVE SMOOTH",
"103 469 OFFCURVE",
"142 412 OFFCURVE",
"199 379 CURVE",
"128 342 OFFCURVE",
"80 272 OFFCURVE",
"80 191 CURVE SMOOTH",
"80 72 OFFCURVE",
"184 -24 OFFCURVE",
"313 -24 CURVE SMOOTH",
"442 -24 OFFCURVE",
"546 72 OFFCURVE",
"546 191 CURVE SMOOTH",
"546 272 OFFCURVE",
"498 342 OFFCURVE",
"427 379 CURVE"
);
},
{
closed = 1;
nodes = (
"167 607 OFFCURVE",
"233 665 OFFCURVE",
"313 665 CURVE SMOOTH",
"393 665 OFFCURVE",
"459 607 OFFCURVE",
"459 535 CURVE SMOOTH",
"459 464 OFFCURVE",
"393 406 OFFCURVE",
"313 406 CURVE SMOOTH",
"233 406 OFFCURVE",
"167 464 OFFCURVE",
"167 535 CURVE SMOOTH"
);
},
{
closed = 1;
nodes = (
"219 34 OFFCURVE",
"142 104 OFFCURVE",
"142 191 CURVE SMOOTH",
"142 278 OFFCURVE",
"219 349 OFFCURVE",
"313 349 CURVE SMOOTH",
"407 349 OFFCURVE",
"484 278 OFFCURVE",
"484 191 CURVE SMOOTH",
"484 104 OFFCURVE",
"407 34 OFFCURVE",
"313 34 CURVE SMOOTH"
);
}
);
width = 626;
}
);
unicode = 0038;
},
{
glyphname = nine;
lastChange = "2017-04-12 10:12:49 +0000";
layers = (
{
layerId = "BB68A3FB-67CF-46D6-8942-4DAFE6725C7A";
paths = (
{
closed = 1;
nodes = (
"307 760 OFFCURVE",
"154 704 OFFCURVE",
"94 576 CURVE",
"34 447 OFFCURVE",
"89 294 OFFCURVE",
"218 234 CURVE",
"248 220 OFFCURVE",
"278 213 OFFCURVE",
"309 211 CURVE",
"210 0 LINE",
"392 0 LINE",
"559 359 LINE",
"619 487 OFFCURVE",
"564 640 OFFCURVE",
"435 700 CURVE"
);
},
{
closed = 1;
nodes = (
"389 381 OFFCURVE",
"334 361 OFFCURVE",
"287 382 CURVE",
"240 404 OFFCURVE",
"220 460 OFFCURVE",
"242 507 CURVE",
"264 553 OFFCURVE",
"319 574 OFFCURVE",
"366 552 CURVE",
"413 530 OFFCURVE",
"433 474 OFFCURVE",
"411 428 CURVE"
);
}
);
width = 653;
},
{
layerId = "43EC01B8-31A0-4C9A-A12D-FF1A612D1D03";
paths = (
{
closed = 1;
nodes = (
"286 760 OFFCURVE",
"147 709 OFFCURVE",
"92 592 CURVE",
"37 474 OFFCURVE",
"88 335 OFFCURVE",
"205 280 CURVE",
"266 252 OFFCURVE",
"333 252 OFFCURVE",
"390 274 CURVE",
"263 0 LINE",
"334 0 LINE",
"517 393 LINE",
"572 511 OFFCURVE",
"521 650 OFFCURVE",
"404 705 CURVE"
);
},
{
closed = 1;
nodes = (
"419 336 OFFCURVE",
"318 299 OFFCURVE",
"233 338 CURVE",
"148 378 OFFCURVE",
"111 479 OFFCURVE",
"150 564 CURVE",
"190 650 OFFCURVE",
"291 686 OFFCURVE",
"376 647 CURVE",
"462 607 OFFCURVE",
"498 506 OFFCURVE",
"459 421 CURVE"
);
}
);
width = 609;
}
);
unicode = 0039;
},
{
glyphname = fraction;
lastChange = "2020-04-28 17:05:38 +0000";
layers = (
{
layerId = "BB68A3FB-67CF-46D6-8942-4DAFE6725C7A";
paths = (
{
closed = 1;
nodes = (
"-200 -23 LINE",
"193 723 LINE",
"358 723 LINE",
"-35 -23 LINE"
);
}
);
width = 158;
},
{
layerId = "43EC01B8-31A0-4C9A-A12D-FF1A612D1D03";
paths = (
{
closed = 1;
nodes = (
"-200 -23 LINE",
"193 723 LINE",
"263 723 LINE",
"-130 -23 LINE"
);
}
);
width = 63;
}
);
unicode = 2044;
},
{
glyphname = period;
lastChange = "2020-04-27 12:56:43 +0000";
layers = (
{
layerId = "BB68A3FB-67CF-46D6-8942-4DAFE6725C7A";
paths = (
{
closed = 1;
nodes = (
"238 18 OFFCURVE",
"196 -24 OFFCURVE",
"144 -24 CURVE",
"92 -24 OFFCURVE",
"50 18 OFFCURVE",
"50 70 CURVE",
"50 121 OFFCURVE",
"92 163 OFFCURVE",
"144 163 CURVE",
"196 163 OFFCURVE",
"238 121 OFFCURVE",
"238 70 CURVE"
);
}
);
width = 288;
},
{
layerId = "43EC01B8-31A0-4C9A-A12D-FF1A612D1D03";
paths = (
{
closed = 1;
nodes = (
"181 3 OFFCURVE",
"154 -24 OFFCURVE",
"121 -24 CURVE",
"88 -24 OFFCURVE",
"61 3 OFFCURVE",
"61 36 CURVE",
"61 69 OFFCURVE",
"88 96 OFFCURVE",
"121 96 CURVE",
"154 96 OFFCURVE",
"181 69 OFFCURVE",
"181 36 CURVE"
);
}
);
width = 242;
}
);
leftKerningGroup = .;
rightKerningGroup = .;
unicode = 002E;
},
{
glyphname = comma;
lastChange = "2020-04-27 07:45:20 +0000";
layers = (
{
layerId = "BB68A3FB-67CF-46D6-8942-4DAFE6725C7A";
paths = (
{
closed = 1;
nodes = (
"50 -210 LINE",
"143 -210 LINE",
"271 140 LINE",
"108 140 LINE"
);
}
);
width = 321;
},
{
layerId = "43EC01B8-31A0-4C9A-A12D-FF1A612D1D03";
paths = (
{
closed = 1;
nodes = (
"50 -210 LINE",
"94 -210 LINE",
"203 119 LINE",
"116 119 LINE"
);
}
);
width = 253;
}
);
unicode = 002C;
},
{
glyphname = colon;
lastChange = "2016-11-22 04:57:19 +0000";
layers = (
{
layerId = "BB68A3FB-67CF-46D6-8942-4DAFE6725C7A";
paths = (
{
closed = 1;
nodes = (
"238 18 OFFCURVE",
"196 -24 OFFCURVE",
"144 -24 CURVE",
"92 -24 OFFCURVE",
"50 18 OFFCURVE",
"50 70 CURVE",
"50 121 OFFCURVE",
"92 163 OFFCURVE",
"144 163 CURVE",
"196 163 OFFCURVE",
"238 121 OFFCURVE",
"238 70 CURVE"
);
},
{
closed = 1;
nodes = (
"238 345 OFFCURVE",
"196 303 OFFCURVE",
"144 303 CURVE",
"92 303 OFFCURVE",
"50 345 OFFCURVE",
"50 397 CURVE",
"50 448 OFFCURVE",
"92 490 OFFCURVE",
"144 490 CURVE",
"196 490 OFFCURVE",
"238 448 OFFCURVE",
"238 397 CURVE"
);
}
);
width = 288;
},
{
layerId = "43EC01B8-31A0-4C9A-A12D-FF1A612D1D03";
paths = (
{
closed = 1;
nodes = (
"170 3 OFFCURVE",
"143 -24 OFFCURVE",
"110 -24 CURVE",
"77 -24 OFFCURVE",
"50 3 OFFCURVE",
"50 36 CURVE",
"50 69 OFFCURVE",
"77 96 OFFCURVE",
"110 96 CURVE",
"143 96 OFFCURVE",
"170 69 OFFCURVE",
"170 36 CURVE"
);
},
{
closed = 1;
nodes = (
"170 397 OFFCURVE",
"143 370 OFFCURVE",
"110 370 CURVE",
"77 370 OFFCURVE",
"50 397 OFFCURVE",
"50 430 CURVE",
"50 463 OFFCURVE",
"77 490 OFFCURVE",
"110 490 CURVE",
"143 490 OFFCURVE",
"170 463 OFFCURVE",
"170 430 CURVE"
);
}
);
width = 220;
}
);
unicode = 003A;
},
{
glyphname = semicolon;
lastChange = "2016-11-22 05:09:23 +0000";
layers = (
{
layerId = "BB68A3FB-67CF-46D6-8942-4DAFE6725C7A";
paths = (
{
closed = 1;
nodes = (
"283 345 OFFCURVE",
"241 303 OFFCURVE",
"190 303 CURVE",
"138 303 OFFCURVE",
"96 345 OFFCURVE",
"96 397 CURVE",
"96 448 OFFCURVE",
"138 490 OFFCURVE",
"190 490 CURVE",
"241 490 OFFCURVE",
"283 448 OFFCURVE",
"283 397 CURVE"
);
},
{
closed = 1;
nodes = (
"50 -210 LINE",
"143 -210 LINE",
"271 140 LINE",
"108 140 LINE"
);
}
);
width = 333;
},
{
layerId = "43EC01B8-31A0-4C9A-A12D-FF1A612D1D03";
paths = (
{
closed = 1;
nodes = (
"214 405 OFFCURVE",
"189 381 OFFCURVE",
"159 381 CURVE",
"129 381 OFFCURVE",
"105 405 OFFCURVE",
"105 435 CURVE",
"105 466 OFFCURVE",
"129 490 OFFCURVE",
"159 490 CURVE",
"189 490 OFFCURVE",
"214 466 OFFCURVE",
"214 435 CURVE"
);
},
{
closed = 1;
nodes = (
"50 -210 LINE",
"94 -210 LINE",
"203 119 LINE",
"116 119 LINE"
);
}
);
width = 264;
}
);
unicode = 003B;
},
{
glyphname = exclam;
lastChange = "2017-01-20 11:31:09 +0000";
layers = (
{
layerId = "BB68A3FB-67CF-46D6-8942-4DAFE6725C7A";
paths = (
{
closed = 1;
nodes = (
"237 18 OFFCURVE",
"195 -24 OFFCURVE",
"144 -24 CURVE",
"92 -24 OFFCURVE",
"50 18 OFFCURVE",
"50 70 CURVE",
"50 121 OFFCURVE",
"92 163 OFFCURVE",
"144 163 CURVE",
"195 163 OFFCURVE",
"237 121 OFFCURVE",
"237 70 CURVE"
);
},
{
closed = 1;
nodes = (
"62 700 LINE",
"62 210 LINE",
"225 210 LINE",
"225 700 LINE"
);
}
);
width = 287;
},
{
layerId = "43EC01B8-31A0-4C9A-A12D-FF1A612D1D03";
paths = (
{
closed = 1;
nodes = (
"167 2 OFFCURVE",
"141 -24 OFFCURVE",
"109 -24 CURVE",
"76 -24 OFFCURVE",
"50 2 OFFCURVE",
"50 34 CURVE",
"50 67 OFFCURVE",
"76 93 OFFCURVE",
"109 93 CURVE",
"141 93 OFFCURVE",
"167 67 OFFCURVE",
"167 34 CURVE"
);
},
{
closed = 1;
nodes = (
"77 700 LINE",
"77 139 LINE",
"141 139 LINE",
"141 700 LINE"
);
}
);
width = 217;
}
);
unicode = 0021;
},
{
glyphname = question;
lastChange = "2017-01-20 11:54:08 +0000";
layers = (
{
layerId = "BB68A3FB-67CF-46D6-8942-4DAFE6725C7A";
paths = (
{
closed = 1;
nodes = (
"387 20 OFFCURVE",
"346 -22 OFFCURVE",
"294 -22 CURVE",
"243 -22 OFFCURVE",
"201 20 OFFCURVE",
"201 71 CURVE",
"201 123 OFFCURVE",
"243 165 OFFCURVE",
"294 165 CURVE",
"346 165 OFFCURVE",
"387 123 OFFCURVE",
"387 71 CURVE"
);
},
{
closed = 1;
nodes = (
"365 445 OFFCURVE",
"376 468 OFFCURVE",
"376 491 CURVE",
"376 537 OFFCURVE",
"340 572 OFFCURVE",
"294 572 CURVE",
"249 572 OFFCURVE",
"213 536 OFFCURVE",
"213 491 CURVE",
"50 491 LINE",
"50 622 OFFCURVE",
"160 724 OFFCURVE",
"294 724 CURVE",
"427 724 OFFCURVE",
"539 621 OFFCURVE",
"539 491 CURVE",
"539 427 OFFCURVE",
"513 371 OFFCURVE",
"467 330 CURVE",
"426 294 OFFCURVE",
"376 265 OFFCURVE",
"376 230 CURVE",
"376 211 LINE",
"213 211 LINE",
"213 258 LINE",
"213 361 OFFCURVE",
"299 385 OFFCURVE",
"352 433 CURVE"
);
}
);
width = 589;
},
{
layerId = "43EC01B8-31A0-4C9A-A12D-FF1A612D1D03";
paths = (
{
closed = 1;
nodes = (
"295 2 OFFCURVE",
"269 -24 OFFCURVE",
"236 -24 CURVE",
"204 -24 OFFCURVE",
"178 2 OFFCURVE",
"178 34 CURVE",
"178 66 OFFCURVE",
"204 93 OFFCURVE",
"236 93 CURVE",
"269 93 OFFCURVE",
"295 66 OFFCURVE",
"295 34 CURVE"
);
},
{
closed = 1;
nodes = (
"345 471 OFFCURVE",
"359 501 OFFCURVE",
"359 535 CURVE",
"359 603 OFFCURVE",
"304 658 OFFCURVE",
"236 658 CURVE",
"169 658 OFFCURVE",
"114 603 OFFCURVE",
"114 535 CURVE",
"50 535 LINE",
"50 637 OFFCURVE",
"134 722 OFFCURVE",
"236 722 CURVE",
"339 722 OFFCURVE",
"423 638 OFFCURVE",
"423 535 CURVE",
"423 484 OFFCURVE",
"407 445 OFFCURVE",
"368 403 CURVE",
"280 308 OFFCURVE",
"268 298 OFFCURVE",
"268 211 CURVE",
"268 139 LINE",
"204 139 LINE",
"204 211 LINE",
"204 310 OFFCURVE",
"210 331 OFFCURVE",
"323 449 CURVE"
);
}
);
width = 473;
}
);
unicode = 003F;
},
{
glyphname = periodcentered;
lastChange = "2020-04-27 13:00:07 +0000";
layers = (
{
layerId = "BB68A3FB-67CF-46D6-8942-4DAFE6725C7A";
paths = (
{
closed = 1;
nodes = (
"238 298 OFFCURVE",
"196 256 OFFCURVE",
"144 256 CURVE",
"92 256 OFFCURVE",
"50 298 OFFCURVE",
"50 350 CURVE",
"50 401 OFFCURVE",
"92 443 OFFCURVE",
"144 443 CURVE",
"196 443 OFFCURVE",
"238 401 OFFCURVE",
"238 350 CURVE"
);
}
);
width = 288;
},
{
layerId = "43EC01B8-31A0-4C9A-A12D-FF1A612D1D03";
paths = (
{
closed = 1;
nodes = (
"170 316 OFFCURVE",
"143 289 OFFCURVE",
"110 289 CURVE",
"77 289 OFFCURVE",
"50 316 OFFCURVE",
"50 349 CURVE",
"50 382 OFFCURVE",
"77 409 OFFCURVE",
"110 409 CURVE",
"143 409 OFFCURVE",
"170 382 OFFCURVE",
"170 349 CURVE"
);
}
);
width = 220;
}
);
unicode = 00B7;
},
{
glyphname = bullet;
lastChange = "2020-04-27 12:56:29 +0000";
layers = (
{
layerId = "BB68A3FB-67CF-46D6-8942-4DAFE6725C7A";
paths = (
{
closed = 1;
nodes = (
"431 260 OFFCURVE",
"356 185 OFFCURVE",
"265 185 CURVE",
"173 185 OFFCURVE",
"100 260 OFFCURVE",
"100 351 CURVE",
"100 441 OFFCURVE",
"173 515 OFFCURVE",
"265 515 CURVE",
"356 515 OFFCURVE",
"431 441 OFFCURVE",
"431 351 CURVE"
);
}
);
width = 531;
},
{
layerId = "43EC01B8-31A0-4C9A-A12D-FF1A612D1D03";
paths = (
{
closed = 1;
nodes = (
"273 301 OFFCURVE",
"232 259 OFFCURVE",
"181 259 CURVE",
"130 259 OFFCURVE",
"90 301 OFFCURVE",
"90 351 CURVE",
"90 401 OFFCURVE",
"130 441 OFFCURVE",
"181 441 CURVE",
"232 441 OFFCURVE",
"273 401 OFFCURVE",
"273 351 CURVE"
);
}
);
width = 363;
}
);
unicode = 2022;
},
{
glyphname = asterisk;
lastChange = "2017-04-12 06:12:09 +0000";
layers = (
{
layerId = "BB68A3FB-67CF-46D6-8942-4DAFE6725C7A";
paths = (
{
closed = 1;
nodes = (
"353 658 LINE",
"280 614 LINE",
"281 700 LINE",
"176 700 LINE",
"177 614 LINE",
"103 658 LINE",
"50 567 LINE",
"126 525 LINE",
"50 483 LINE",
"103 392 LINE",
"177 436 LINE",
"176 350 LINE",
"281 350 LINE",
"280 436 LINE",
"353 392 LINE",
"406 483 LINE",
"330 525 LINE",
"406 567 LINE"
);
}
);
width = 456;
},
{
layerId = "43EC01B8-31A0-4C9A-A12D-FF1A612D1D03";
paths = (
{
closed = 1;
nodes = (
"354 638 LINE",
"245 573 LINE",
"246 700 LINE",
"187 700 LINE",
"188 574 LINE",
"80 638 LINE",
"50 587 LINE",
"160 525 LINE",
"50 463 LINE",
"80 412 LINE",
"188 476 LINE",
"187 350 LINE",
"246 350 LINE",
"245 477 LINE",
"354 412 LINE",
"383 463 LINE",
"273 525 LINE",
"383 587 LINE"
);
}
);
width = 433;
}
);
unicode = 002A;
},
{
glyphname = numbersign;
lastChange = "2017-04-12 08:29:20 +0000";
layers = (
{
layerId = "BB68A3FB-67CF-46D6-8942-4DAFE6725C7A";
paths = (
{
closed = 1;
nodes = (
"656 549 LINE",
"563 549 LINE",
"582 700 LINE",
"442 700 LINE",
"423 549 LINE",
"322 549 LINE",
"341 700 LINE",
"201 700 LINE",
"182 549 LINE",
"73 549 LINE",
"73 409 LINE",
"165 409 LINE",
"151 292 LINE",
"40 292 LINE",
"40 152 LINE",
"134 152 LINE",
"115 0 LINE",
"255 0 LINE",
"274 152 LINE",
"374 152 LINE",
"356 0 LINE",
"496 0 LINE",
"514 152 LINE",
"624 152 LINE",
"624 292 LINE",
"532 292 LINE",
"546 409 LINE",
"656 409 LINE"
);
},
{
closed = 1;
nodes = (
"291 292 LINE",
"305 409 LINE",
"406 409 LINE",
"392 292 LINE"
);
}
);
width = 696;
},
{
layerId = "43EC01B8-31A0-4C9A-A12D-FF1A612D1D03";
paths = (
{
closed = 1;
nodes = (
"612 513 LINE",
"507 513 LINE",
"530 700 LINE",
"460 700 LINE",
"437 513 LINE",
"256 513 LINE",
"279 700 LINE",
"209 700 LINE",
"186 513 LINE",
"75 513 LINE",
"75 455 LINE",
"178 455 LINE",
"152 245 LINE",
"40 245 LINE",
"40 187 LINE",
"145 187 LINE",
"122 0 LINE",
"192 0 LINE",
"215 187 LINE",
"396 187 LINE",
"372 0 LINE",
"442 0 LINE",
"466 187 LINE",
"577 187 LINE",
"577 245 LINE",
"473 245 LINE",
"499 455 LINE",
"612 455 LINE"
);
},
{
closed = 1;
nodes = (
"222 245 LINE",
"248 455 LINE",
"429 455 LINE",
"403 245 LINE"
);
}
);
width = 652;
}
);
unicode = 0023;
},
{
glyphname = slash;
lastChange = "2017-04-11 01:23:25 +0000";
layers = (
{
layerId = "BB68A3FB-67CF-46D6-8942-4DAFE6725C7A";
paths = (
{
closed = 1;
nodes = (
"40 -24 LINE",
"273 722 LINE",
"436 722 LINE",
"203 -24 LINE"
);
}
);
width = 476;
},
{
layerId = "43EC01B8-31A0-4C9A-A12D-FF1A612D1D03";
paths = (
{
closed = 1;
nodes = (
"40 -24 LINE",
"273 722 LINE",
"343 722 LINE",
"110 -24 LINE"
);
}
);
width = 383;
}
);
unicode = 002F;
},
{
glyphname = parenleft;
lastChange = "2017-04-12 07:08:29 +0000";
layers = (
{
layerId = "BB68A3FB-67CF-46D6-8942-4DAFE6725C7A";
paths = (
{
closed = 1;
nodes = (
"340 -140 LINE",
"272 -3 OFFCURVE",
"233 152 OFFCURVE",
"233 315 CURVE",
"233 479 OFFCURVE",
"272 634 OFFCURVE",
"340 772 CURVE",
"192 843 LINE",
"114 685 OFFCURVE",
"70 505 OFFCURVE",
"70 315 CURVE",
"70 126 OFFCURVE",
"114 -53 OFFCURVE",
"192 -211 CURVE"
);
}
);
width = 390;
},
{
layerId = "43EC01B8-31A0-4C9A-A12D-FF1A612D1D03";
paths = (
{
closed = 1;
nodes = (
"251 -183 LINE",
"177 -31 OFFCURVE",
"136 138 OFFCURVE",
"136 317 CURVE",
"136 495 OFFCURVE",
"177 664 OFFCURVE",
"250 816 CURVE",
"193 843 LINE",
"115 685 OFFCURVE",
"70 506 OFFCURVE",
"70 316 CURVE",
"70 126 OFFCURVE",
"115 -53 OFFCURVE",
"193 -211 CURVE"
);
}
);
width = 301;
}
);
unicode = 0028;
},
{
glyphname = braceleft;
lastChange = "2017-04-12 07:25:06 +0000";
layers = (
{
layerId = "BB68A3FB-67CF-46D6-8942-4DAFE6725C7A";
paths = (
{
closed = 1;
nodes = (
"281 622 LINE SMOOTH",
"281 666 OFFCURVE",
"317 703 OFFCURVE",
"362 703 CURVE SMOOTH",
"373 703 LINE",
"373 829 LINE",
"326 833 LINE SMOOTH",
"216 843 OFFCURVE",
"120 756 OFFCURVE",
"120 645 CURVE SMOOTH",
"120 466 LINE SMOOTH",
"120 423 OFFCURVE",
"91 386 OFFCURVE",
"50 376 CURVE",
"50 257 LINE",
"91 247 OFFCURVE",
"120 210 OFFCURVE",
"120 167 CURVE SMOOTH",
"120 -12 LINE SMOOTH",
"120 -123 OFFCURVE",
"216 -211 OFFCURVE",
"326 -200 CURVE SMOOTH",
"373 -196 LINE",
"373 -70 LINE",
"362 -70 LINE SMOOTH",
"317 -70 OFFCURVE",
"281 -34 OFFCURVE",
"281 11 CURVE SMOOTH",
"281 213 LINE SMOOTH",
"281 258 OFFCURVE",
"255 298 OFFCURVE",
"216 316 CURVE",
"255 335 OFFCURVE",
"281 374 OFFCURVE",
"281 420 CURVE SMOOTH"
);
}
);
width = 423;
},
{
layerId = "43EC01B8-31A0-4C9A-A12D-FF1A612D1D03";
paths = (
{
closed = 1;
nodes = (
"167 723 LINE SMOOTH",
"167 748 OFFCURVE",
"187 769 OFFCURVE",
"213 769 CURVE SMOOTH",
"236 769 LINE",
"236 827 LINE",
"206 832 LINE SMOOTH",
"149 842 OFFCURVE",
"97 798 OFFCURVE",
"97 740 CURVE SMOOTH",
"97 417 LINE SMOOTH",
"97 386 OFFCURVE",
"78 360 OFFCURVE",
"50 350 CURVE",
"50 284 LINE",
"78 274 OFFCURVE",
"97 248 OFFCURVE",
"97 217 CURVE SMOOTH",
"97 -106 LINE SMOOTH",
"97 -164 OFFCURVE",
"149 -208 OFFCURVE",
"206 -198 CURVE SMOOTH",
"236 -193 LINE",
"236 -135 LINE",
"213 -135 LINE SMOOTH",
"187 -135 OFFCURVE",
"167 -114 OFFCURVE",
"167 -89 CURVE SMOOTH",
"167 235 LINE SMOOTH",
"167 270 OFFCURVE",
"148 301 OFFCURVE",
"119 317 CURVE",
"148 333 OFFCURVE",
"167 364 OFFCURVE",
"167 399 CURVE SMOOTH"
);
}
);
width = 286;
}
);
unicode = 007B;
},
{
glyphname = bracketleft;
lastChange = "2017-04-12 05:24:16 +0000";
layers = (
{
layerId = "BB68A3FB-67CF-46D6-8942-4DAFE6725C7A";
paths = (
{
closed = 1;
nodes = (
"327 818 LINE",
"70 818 LINE",
"70 -187 LINE",
"327 -187 LINE",
"327 -35 LINE",
"233 -35 LINE",
"233 666 LINE",
"327 666 LINE"
);
}
);
width = 357;
},
{
layerId = "43EC01B8-31A0-4C9A-A12D-FF1A612D1D03";
paths = (
{
closed = 1;
nodes = (
"214 818 LINE",
"50 818 LINE",
"50 -187 LINE",
"214 -187 LINE",
"214 -129 LINE",
"114 -129 LINE",
"114 760 LINE",
"214 760 LINE"
);
}
);
width = 234;
}
);
unicode = 005B;
},
{
glyphname = hyphen;
lastChange = "2016-11-24 06:44:43 +0000";
layers = (
{
layerId = "BB68A3FB-67CF-46D6-8942-4DAFE6725C7A";
paths = (
{
closed = 1;
nodes = (
"435 206 LINE",
"435 381 LINE",
"90 381 LINE",
"90 206 LINE"
);
}
);
width = 525;
},
{
layerId = "43EC01B8-31A0-4C9A-A12D-FF1A612D1D03";
paths = (
{
closed = 1;
nodes = (
"435 263 LINE",
"435 323 LINE",
"90 323 LINE",
"90 263 LINE"
);
}
);
width = 525;
}
);
leftKerningGroup = "-";
rightKerningGroup = "-";
unicode = 002D;
},
{
glyphname = endash;
lastChange = "2020-04-27 13:06:08 +0000";
layers = (
{
layerId = "BB68A3FB-67CF-46D6-8942-4DAFE6725C7A";
paths = (
{
closed = 1;
nodes = (
"609 206 LINE",
"609 381 LINE",
"90 381 LINE",
"90 206 LINE"
);
}
);
width = 699;
},
{
layerId = "43EC01B8-31A0-4C9A-A12D-FF1A612D1D03";
paths = (
{
closed = 1;
nodes = (
"609 263 LINE",
"609 323 LINE",
"90 323 LINE",
"90 263 LINE"
);
}
);
width = 699;
}
);
unicode = 2013;
},
{
glyphname = emdash;
lastChange = "2020-04-27 13:06:52 +0000";
layers = (
{
layerId = "BB68A3FB-67CF-46D6-8942-4DAFE6725C7A";
paths = (
{
closed = 1;
nodes = (
"1098 206 LINE",
"1098 381 LINE",
"90 381 LINE",
"90 206 LINE"
);
}
);
width = 1188;
},
{
layerId = "43EC01B8-31A0-4C9A-A12D-FF1A612D1D03";
paths = (
{
closed = 1;
nodes = (
"1098 263 LINE",
"1098 323 LINE",
"90 323 LINE",
"90 263 LINE"
);
}
);
width = 1188;
}
);
unicode = 2014;
},
{
glyphname = underscore;
lastChange = "2018-05-15 10:50:41 +0000";
layers = (
{
layerId = "BB68A3FB-67CF-46D6-8942-4DAFE6725C7A";
paths = (
{
closed = 1;
nodes = (
"640 -190 LINE",
"640 -40 LINE",
"60 -40 LINE",
"60 -190 LINE"
);
}
);
width = 700;
},
{
layerId = "43EC01B8-31A0-4C9A-A12D-FF1A612D1D03";
paths = (
{
closed = 1;
nodes = (
"580 -100 LINE",
"580 -40 LINE",
"50 -40 LINE",
"50 -100 LINE"
);
}
);
width = 630;
}
);
unicode = 005F;
},
{
glyphname = quoteleft;
lastChange = "2020-04-27 07:54:49 +0000";
layers = (
{
layerId = "BB68A3FB-67CF-46D6-8942-4DAFE6725C7A";
paths = (
{
closed = 1;
nodes = (
"262 724 LINE",
"164 724 LINE",
"70 500 LINE",
"238 500 LINE"
);
}
);
width = 322;
},
{
layerId = "43EC01B8-31A0-4C9A-A12D-FF1A612D1D03";
paths = (
{
closed = 1;
nodes = (
"175 724 LINE",
"141 724 LINE",
"70 500 LINE",
"137 500 LINE"
);
}
);
width = 245;
}
);
unicode = 2018;
},
{
glyphname = guilsinglleft;
lastChange = "2020-04-28 07:06:42 +0000";
layers = (
{
layerId = "BB68A3FB-67CF-46D6-8942-4DAFE6725C7A";
paths = (
{
closed = 1;
nodes = (
"267 294 LINE",
"376 378 LINE",
"376 551 LINE",
"90 294 LINE",
"376 35 LINE",
"376 208 LINE"
);
}
);
width = 466;
},
{
layerId = "43EC01B8-31A0-4C9A-A12D-FF1A612D1D03";
paths = (
{
closed = 1;
nodes = (
"172 294 LINE",
"376 442 LINE",
"376 512 LINE",
"90 294 LINE",
"376 75 LINE",
"376 145 LINE"
);
}
);
width = 466;
}
);
unicode = 2039;
},
{
glyphname = quotesingle;
lastChange = "2020-04-28 06:25:23 +0000";
layers = (
{
layerId = "BB68A3FB-67CF-46D6-8942-4DAFE6725C7A";
paths = (
{
closed = 1;
nodes = (
"105 500 LINE",
"203 500 LINE",
"238 724 LINE",
"70 724 LINE"
);
}
);
width = 308;
},
{
layerId = "43EC01B8-31A0-4C9A-A12D-FF1A612D1D03";
paths = (
{
closed = 1;
nodes = (
"87 500 LINE",
"121 500 LINE",
"138 724 LINE",
"70 724 LINE"
);
}
);
width = 208;
}
);
rightKerningGroup = T;
unicode = 0027;
},
{
glyphname = cent;
lastChange = "2020-04-29 02:16:11 +0000";
layers = (
{
layerId = "BB68A3FB-67CF-46D6-8942-4DAFE6725C7A";
paths = (
{
closed = 1;
nodes = (
"50 113 OFFCURVE",
"132 13 OFFCURVE",
"242 -16 CURVE",
"242 -120 LINE",
"370 -120 LINE",
"370 -16 LINE",
"434 1 OFFCURVE",
"489 42 OFFCURVE",
"522 97 CURVE",
"385 182 LINE",
"367 156 OFFCURVE",
"339 139 OFFCURVE",
"306 139 CURVE SMOOTH",
"254 139 OFFCURVE",
"212 181 OFFCURVE",
"212 232 CURVE SMOOTH",
"212 283 OFFCURVE",
"254 324 OFFCURVE",
"306 324 CURVE SMOOTH",
"339 324 OFFCURVE",
"367 308 OFFCURVE",
"385 281 CURVE",
"522 367 LINE",
"489 422 OFFCURVE",
"434 463 OFFCURVE",
"370 480 CURVE",
"370 584 LINE",
"242 584 LINE",
"242 480 LINE",
"132 451 OFFCURVE",
"50 351 OFFCURVE",
"50 232 CURVE SMOOTH"
);
}
);
width = 557;
},
{
layerId = "43EC01B8-31A0-4C9A-A12D-FF1A612D1D03";
paths = (
{
closed = 1;
nodes = (
"50 101 OFFCURVE",
"150 -8 OFFCURVE",
"277 -22 CURVE",
"277 -105 LINE",
"335 -105 LINE",
"335 -22 LINE",
"415 -13 OFFCURVE",
"483 32 OFFCURVE",
"523 96 CURVE",
"474 127 LINE",
"439 71 OFFCURVE",
"377 34 OFFCURVE",
"306 34 CURVE SMOOTH",
"197 34 OFFCURVE",
"108 123 OFFCURVE",
"108 232 CURVE SMOOTH",
"108 341 OFFCURVE",
"197 430 OFFCURVE",
"306 430 CURVE SMOOTH",
"377 430 OFFCURVE",
"439 393 OFFCURVE",
"474 337 CURVE",
"523 368 LINE",
"483 432 OFFCURVE",
"415 477 OFFCURVE",
"335 486 CURVE",
"335 569 LINE",
"277 569 LINE",
"277 486 LINE",
"150 472 OFFCURVE",
"50 363 OFFCURVE",
"50 232 CURVE SMOOTH"
);
}
);
width = 558;
}
);
unicode = 00A2;
},
{
glyphname = currency;
lastChange = "2020-04-29 02:25:38 +0000";
layers = (
{
layerId = "BB68A3FB-67CF-46D6-8942-4DAFE6725C7A";
paths = (
{
closed = 1;
nodes = (
"248 396 OFFCURVE",
"223 371 OFFCURVE",
"223 340 CURVE",
"223 309 OFFCURVE",
"248 284 OFFCURVE",
"279 284 CURVE",
"309 284 OFFCURVE",
"335 309 OFFCURVE",
"335 340 CURVE",
"335 371 OFFCURVE",
"309 396 OFFCURVE",
"279 396 CURVE"
);
},
{
closed = 1;
nodes = (
"103 264 LINE",
"93 287 OFFCURVE",
"88 313 OFFCURVE",
"88 340 CURVE SMOOTH",
"88 367 OFFCURVE",
"93 392 OFFCURVE",
"103 415 CURVE",
"40 478 LINE",
"141 579 LINE",
"204 516 LINE",
"227 526 OFFCURVE",
"252 531 OFFCURVE",
"279 531 CURVE SMOOTH",
"306 531 OFFCURVE",
"331 526 OFFCURVE",
"355 516 CURVE",
"418 579 LINE",
"518 478 LINE",
"455 415 LINE",
"465 392 OFFCURVE",
"470 367 OFFCURVE",
"470 340 CURVE SMOOTH",
"470 313 OFFCURVE",
"465 288 OFFCURVE",
"455 265 CURVE",
"518 201 LINE",
"418 101 LINE",
"354 164 LINE",
"331 154 OFFCURVE",
"306 149 OFFCURVE",
"279 149 CURVE SMOOTH",
"252 149 OFFCURVE",
"227 154 OFFCURVE",
"204 164 CURVE",
"141 101 LINE",
"40 201 LINE"
);
}
);
width = 558;
},
{
layerId = "43EC01B8-31A0-4C9A-A12D-FF1A612D1D03";
paths = (
{
closed = 1;
nodes = (
"160 467 OFFCURVE",
"104 411 OFFCURVE",
"104 340 CURVE",
"104 269 OFFCURVE",
"160 212 OFFCURVE",
"231 212 CURVE",
"303 212 OFFCURVE",
"358 269 OFFCURVE",
"358 340 CURVE",
"358 411 OFFCURVE",
"303 467 OFFCURVE",
"231 467 CURVE"
);
},
{
closed = 1;
nodes = (
"75 229 LINE",
"53 260 OFFCURVE",
"40 299 OFFCURVE",
"40 340 CURVE SMOOTH",
"40 381 OFFCURVE",
"53 419 OFFCURVE",
"75 451 CURVE",
"31 495 LINE",
"74 538 LINE",
"118 494 LINE",
"150 517 OFFCURVE",
"189 531 OFFCURVE",
"231 531 CURVE SMOOTH",
"272 531 OFFCURVE",
"311 518 OFFCURVE",
"342 496 CURVE",
"384 538 LINE",
"426 495 LINE",
"385 454 LINE",
"408 422 OFFCURVE",
"422 382 OFFCURVE",
"422 340 CURVE SMOOTH",
"422 297 OFFCURVE",
"408 258 OFFCURVE",
"385 226 CURVE",
"423 188 LINE",
"381 146 LINE",
"342 185 LINE",
"311 162 OFFCURVE",
"273 149 OFFCURVE",
"231 149 CURVE SMOOTH",
"189 149 OFFCURVE",
"149 163 OFFCURVE",
"117 186 CURVE",
"74 143 LINE",
"31 185 LINE"
);
}
);
width = 462;
}
);
unicode = 00A4;
},
{
glyphname = dollar;
lastChange = "2020-04-27 13:30:11 +0000";
layers = (
{
layerId = "BB68A3FB-67CF-46D6-8942-4DAFE6725C7A";
paths = (
{
closed = 1;
nodes = (
"583 330 OFFCURVE",
"458 394 OFFCURVE",
"319 439 CURVE",
"275 453 OFFCURVE",
"236 475 OFFCURVE",
"236 507 CURVE",
"236 540 OFFCURVE",
"274 559 OFFCURVE",
"316 560 CURVE",
"357 560 OFFCURVE",
"386 543 OFFCURVE",
"403 516 CURVE",
"561 589 LINE",
"530 656 OFFCURVE",
"460 706 OFFCURVE",
"368 720 CURVE",
"368 794 LINE",
"240 794 LINE",
"240 715 LINE",
"128 688 OFFCURVE",
"50 603 OFFCURVE",
"50 501 CURVE",
"50 383 OFFCURVE",
"179 317 OFFCURVE",
"304 280 CURVE",
"349 266 OFFCURVE",
"397 245 OFFCURVE",
"397 202 CURVE",
"397 158 OFFCURVE",
"350 136 OFFCURVE",
"298 139 CURVE",
"252 142 OFFCURVE",
"202 180 OFFCURVE",
"187 208 CURVE",
"25 133 LINE",
"64 59 OFFCURVE",
"142 -1 OFFCURVE",
"240 -18 CURVE",
"240 -96 LINE",
"368 -96 LINE",
"368 -18 LINE",
"492 2 OFFCURVE",
"583 76 OFFCURVE",
"583 192 CURVE"
);
}
);
width = 618;
},
{
layerId = "43EC01B8-31A0-4C9A-A12D-FF1A612D1D03";
paths = (
{
closed = 1;
nodes = (
"538 310 OFFCURVE",
"414 356 OFFCURVE",
"295 391 CURVE",
"206 417 OFFCURVE",
"115 443 OFFCURVE",
"115 514 CURVE",
"115 602 OFFCURVE",
"201 660 OFFCURVE",
"293 660 CURVE",
"375 660 OFFCURVE",
"427 622 OFFCURVE",
"466 562 CURVE",
"525 590 LINE",
"490 658 OFFCURVE",
"414 717 OFFCURVE",
"311 723 CURVE",
"311 794 LINE",
"253 794 LINE",
"253 721 LINE",
"134 705 OFFCURVE",
"48 618 OFFCURVE",
"48 508 CURVE",
"48 411 OFFCURVE",
"166 357 OFFCURVE",
"282 325 CURVE",
"370 301 OFFCURVE",
"473 261 OFFCURVE",
"473 184 CURVE",
"473 87 OFFCURVE",
"370 40 OFFCURVE",
"276 40 CURVE",
"194 40 OFFCURVE",
"126 96 OFFCURVE",
"87 163 CURVE",
"25 133 LINE",
"71 50 OFFCURVE",
"153 -14 OFFCURVE",
"253 -23 CURVE",
"253 -96 LINE",
"311 -96 LINE",
"311 -23 LINE",
"441 -11 OFFCURVE",
"538 67 OFFCURVE",
"538 184 CURVE"
);
}
);
width = 573;
}
);
rightKerningGroup = S;
unicode = 0024;
},
{
glyphname = euro;
lastChange = "2020-04-28 00:27:10 +0000";
layers = (
{
layerId = "BB68A3FB-67CF-46D6-8942-4DAFE6725C7A";
paths = (
{
closed = 1;
nodes = (
"637 172 OFFCURVE",
"579 142 OFFCURVE",
"514 142 CURVE",
"435 142 OFFCURVE",
"366 186 OFFCURVE",
"331 251 CURVE",
"577 251 LINE",
"607 321 LINE",
"308 321 LINE",
"306 330 OFFCURVE",
"306 340 OFFCURVE",
"306 350 CURVE",
"306 358 OFFCURVE",
"306 366 OFFCURVE",
"307 374 CURVE",
"629 374 LINE",
"658 444 LINE",
"328 444 LINE",
"362 512 OFFCURVE",
"433 558 OFFCURVE",
"514 558 CURVE",
"578 558 OFFCURVE",
"636 529 OFFCURVE",
"674 482 CURVE",
"742 644 LINE",
"679 693 OFFCURVE",
"599 723 OFFCURVE",
"513 723 CURVE",
"340 723 OFFCURVE",
"195 604 OFFCURVE",
"154 444 CURVE",
"77 444 LINE",
"48 374 LINE",
"143 374 LINE",
"142 366 OFFCURVE",
"142 358 OFFCURVE",
"142 350 CURVE",
"142 340 OFFCURVE",
"143 330 OFFCURVE",
"143 321 CURVE",
"75 321 LINE",
"45 251 LINE",
"155 251 LINE",
"198 93 OFFCURVE",
"342 -23 OFFCURVE",
"513 -23 CURVE",
"600 -23 OFFCURVE",
"680 7 OFFCURVE",
"743 56 CURVE",
"675 218 LINE"
);
}
);
width = 788;
},
{
layerId = "43EC01B8-31A0-4C9A-A12D-FF1A612D1D03";
paths = (
{
closed = 1;
nodes = (
"661 67 OFFCURVE",
"590 39 OFFCURVE",
"512 39 CURVE",
"373 39 OFFCURVE",
"254 130 OFFCURVE",
"214 256 CURVE",
"530 256 LINE",
"556 316 LINE",
"202 316 LINE",
"201 327 OFFCURVE",
"200 338 OFFCURVE",
"200 350 CURVE",
"200 361 OFFCURVE",
"201 373 OFFCURVE",
"202 384 CURVE",
"585 384 LINE",
"610 444 LINE",
"214 444 LINE",
"254 570 OFFCURVE",
"373 662 OFFCURVE",
"512 662 CURVE",
"590 662 OFFCURVE",
"661 633 OFFCURVE",
"716 586 CURVE",
"740 644 LINE",
"677 693 OFFCURVE",
"597 723 OFFCURVE",
"510 723 CURVE",
"336 723 OFFCURVE",
"191 604 OFFCURVE",
"149 444 CURVE",
"75 444 LINE",
"49 384 LINE",
"138 384 LINE",
"137 372 OFFCURVE",
"137 361 OFFCURVE",
"137 350 CURVE",
"137 338 OFFCURVE",
"137 327 OFFCURVE",
"138 316 CURVE",
"70 316 LINE",
"45 256 LINE",
"149 256 LINE",
"191 95 OFFCURVE",
"336 -23 OFFCURVE",
"510 -23 CURVE",
"597 -23 OFFCURVE",
"677 6 OFFCURVE",
"741 56 CURVE",
"716 114 LINE"
);
}
);
width = 786;
}
);
unicode = 20AC;
},
{
glyphname = yen;
lastChange = "2020-04-28 00:41:39 +0000";
layers = (
{
layerId = "BB68A3FB-67CF-46D6-8942-4DAFE6725C7A";
paths = (
{
closed = 1;
nodes = (
"429 700 LINE",
"336 467 LINE",
"242 700 LINE",
"45 700 LINE",
"204 373 LINE",
"101 373 LINE",
"101 303 LINE",
"238 303 LINE",
"255 269 LINE",
"255 241 LINE",
"101 241 LINE",
"101 171 LINE",
"255 171 LINE",
"255 0 LINE",
"419 0 LINE",
"419 171 LINE",
"571 171 LINE",
"571 241 LINE",
"419 241 LINE",
"419 269 LINE",
"435 303 LINE",
"571 303 LINE",
"571 373 LINE",
"469 373 LINE",
"628 700 LINE"
);
}
);
width = 673;
},
{
layerId = "43EC01B8-31A0-4C9A-A12D-FF1A612D1D03";
paths = (
{
closed = 1;
nodes = (
"475 700 LINE",
"307 373 LINE",
"115 700 LINE",
"45 700 LINE",
"240 363 LINE",
"91 363 LINE",
"91 303 LINE",
"275 303 LINE",
"275 303 LINE",
"275 242 LINE",
"91 242 LINE",
"91 182 LINE",
"275 182 LINE",
"275 0 LINE",
"339 0 LINE",
"339 182 LINE",
"500 182 LINE",
"500 242 LINE",
"339 242 LINE",
"339 303 LINE",
"339 303 LINE",
"500 303 LINE",
"500 363 LINE",
"370 363 LINE",
"545 700 LINE"
);
}
);
width = 590;
}
);
unicode = 00A5;
},
{
glyphname = plus;
lastChange = "2020-04-27 23:38:34 +0000";
layers = (
{
layerId = "BB68A3FB-67CF-46D6-8942-4DAFE6725C7A";
paths = (
{
closed = 1;
nodes = (
"391 391 LINE",
"391 580 LINE",
"249 580 LINE",
"249 391 LINE",
"60 391 LINE",
"60 249 LINE",
"249 249 LINE",
"249 60 LINE",
"391 60 LINE",
"391 249 LINE",
"580 249 LINE",
"580 391 LINE"
);
}
);
width = 640;
},
{
layerId = "43EC01B8-31A0-4C9A-A12D-FF1A612D1D03";
paths = (
{
closed = 1;
nodes = (
"345 350 LINE",
"345 555 LINE",
"285 555 LINE",
"285 350 LINE",
"80 350 LINE",
"80 290 LINE",
"285 290 LINE",
"285 85 LINE",
"345 85 LINE",
"345 290 LINE",
"550 290 LINE",
"550 350 LINE"
);
}
);
width = 630;
}
);
unicode = 002B;
},
{
glyphname = minus;
lastChange = "2020-04-27 23:38:53 +0000";
layers = (
{
layerId = "BB68A3FB-67CF-46D6-8942-4DAFE6725C7A";
paths = (
{
closed = 1;
nodes = (
"600 248 LINE",
"600 392 LINE",
"80 392 LINE",
"80 248 LINE"
);
}
);
width = 680;
},
{
layerId = "43EC01B8-31A0-4C9A-A12D-FF1A612D1D03";
paths = (
{
closed = 1;
nodes = (
"550 290 LINE",
"550 350 LINE",
"80 350 LINE",
"80 290 LINE"
);
}
);
width = 630;
}
);
unicode = 2212;
},
{
glyphname = multiply;
lastChange = "2020-04-27 23:39:10 +0000";
layers = (
{
layerId = "BB68A3FB-67CF-46D6-8942-4DAFE6725C7A";
paths = (
{
closed = 1;
nodes = (
"420 320 LINE",
"558 458 LINE",
"458 559 LINE",
"319 420 LINE",
"181 559 LINE",
"80 458 LINE",
"219 320 LINE",
"80 181 LINE",
"181 81 LINE",
"319 219 LINE",
"458 81 LINE",
"558 181 LINE"
);
}
);
width = 638;
},
{
layerId = "43EC01B8-31A0-4C9A-A12D-FF1A612D1D03";
paths = (
{
closed = 1;
nodes = (
"310 320 LINE",
"455 465 LINE",
"413 508 LINE",
"268 363 LINE",
"123 508 LINE",
"80 465 LINE",
"225 320 LINE",
"80 175 LINE",
"123 133 LINE",
"268 278 LINE",
"413 133 LINE",
"455 175 LINE"
);
}
);
width = 535;
}
);
unicode = 00D7;
},
{
glyphname = divide;
lastChange = "2020-04-27 23:39:24 +0000";
layers = (
{
layerId = "BB68A3FB-67CF-46D6-8942-4DAFE6725C7A";
paths = (
{
closed = 1;
nodes = (
"600 248 LINE",
"600 392 LINE",
"80 392 LINE",
"80 248 LINE"
);
},
{
closed = 1;
nodes = (
"434 486 OFFCURVE",
"392 444 OFFCURVE",
"340 444 CURVE",
"288 444 OFFCURVE",
"246 486 OFFCURVE",
"246 538 CURVE",
"246 589 OFFCURVE",
"288 631 OFFCURVE",
"340 631 CURVE",
"392 631 OFFCURVE",
"434 589 OFFCURVE",
"434 538 CURVE"
);
},
{
closed = 1;
nodes = (
"434 52 OFFCURVE",
"392 10 OFFCURVE",
"340 10 CURVE",
"288 10 OFFCURVE",
"246 52 OFFCURVE",
"246 104 CURVE",
"246 155 OFFCURVE",
"288 197 OFFCURVE",
"340 197 CURVE",
"392 197 OFFCURVE",
"434 155 OFFCURVE",
"434 104 CURVE"
);
}
);
width = 680;
},
{
layerId = "43EC01B8-31A0-4C9A-A12D-FF1A612D1D03";
paths = (
{
closed = 1;
nodes = (
"550 289 LINE",
"550 349 LINE",
"80 349 LINE",
"80 289 LINE"
);
},
{
closed = 1;
nodes = (
"373 456 OFFCURVE",
"346 429 OFFCURVE",
"313 429 CURVE",
"280 429 OFFCURVE",
"253 456 OFFCURVE",
"253 489 CURVE",
"253 522 OFFCURVE",
"280 549 OFFCURVE",
"313 549 CURVE",
"346 549 OFFCURVE",
"373 522 OFFCURVE",
"373 489 CURVE"
);
},
{
closed = 1;
nodes = (
"373 117 OFFCURVE",
"346 90 OFFCURVE",
"313 90 CURVE",
"280 90 OFFCURVE",
"253 117 OFFCURVE",
"253 150 CURVE",
"253 183 OFFCURVE",
"280 210 OFFCURVE",
"313 210 CURVE",
"346 210 OFFCURVE",
"373 183 OFFCURVE",
"373 150 CURVE"
);
}
);
width = 630;
}
);
unicode = 00F7;
},
{
glyphname = equal;
lastChange = "2020-04-27 23:39:37 +0000";
layers = (
{
layerId = "BB68A3FB-67CF-46D6-8942-4DAFE6725C7A";
paths = (
{
closed = 1;
nodes = (
"600 364 LINE",
"600 508 LINE",
"80 508 LINE",
"80 364 LINE"
);
},
{
closed = 1;
nodes = (
"600 133 LINE",
"600 277 LINE",
"80 277 LINE",
"80 133 LINE"
);
}
);
width = 680;
},
{
layerId = "43EC01B8-31A0-4C9A-A12D-FF1A612D1D03";
paths = (
{
closed = 1;
nodes = (
"540 381 LINE",
"540 441 LINE",
"70 441 LINE",
"70 381 LINE"
);
},
{
closed = 1;
nodes = (
"540 199 LINE",
"540 259 LINE",
"70 259 LINE",
"70 199 LINE"
);
}
);
width = 610;
}
);
unicode = 003D;
},
{
glyphname = notequal;
lastChange = "2020-04-27 23:44:24 +0000";
layers = (
{
layerId = "BB68A3FB-67CF-46D6-8942-4DAFE6725C7A";
paths = (
{
closed = 1;
nodes = (
"600 508 LINE",
"460 508 LINE",
"493 612 LINE",
"370 612 LINE",
"337 508 LINE",
"80 508 LINE",
"80 364 LINE",
"292 364 LINE",
"265 277 LINE",
"80 277 LINE",
"80 133 LINE",
"220 133 LINE",
"188 28 LINE",
"311 28 LINE",
"343 133 LINE",
"600 133 LINE",
"600 277 LINE",
"388 277 LINE",
"415 364 LINE",
"600 364 LINE"
);
}
);
width = 680;
},
{
layerId = "43EC01B8-31A0-4C9A-A12D-FF1A612D1D03";
paths = (
{
closed = 1;
nodes = (
"550 441 LINE",
"388 441 LINE",
"422 550 LINE",
"352 550 LINE",
"318 441 LINE",
"80 441 LINE",
"80 381 LINE",
"299 381 LINE",
"261 259 LINE",
"80 259 LINE",
"80 199 LINE",
"242 199 LINE",
"209 90 LINE",
"279 90 LINE",
"312 199 LINE",
"550 199 LINE",
"550 259 LINE",
"331 259 LINE",
"369 381 LINE",
"550 381 LINE"
);
}
);
width = 630;
}
);
unicode = 2260;
},
{
glyphname = greater;
lastChange = "2020-04-27 23:39:59 +0000";
layers = (
{
layerId = "BB68A3FB-67CF-46D6-8942-4DAFE6725C7A";
paths = (
{
closed = 1;
nodes = (
"80 70 LINE",
"600 320 LINE",
"80 570 LINE",
"80 413 LINE",
"304 320 LINE",
"80 227 LINE"
);
}
);
width = 680;
},
{
layerId = "43EC01B8-31A0-4C9A-A12D-FF1A612D1D03";
paths = (
{
closed = 1;
nodes = (
"45 112 LINE",
"519 321 LINE",
"45 529 LINE",
"45 459 LINE",
"379 321 LINE",
"45 182 LINE"
);
}
);
width = 564;
}
);
unicode = 003E;
},
{
glyphname = greaterequal;
lastChange = "2020-04-27 22:33:35 +0000";
layers = (
{
layerId = "BB68A3FB-67CF-46D6-8942-4DAFE6725C7A";
paths = (
{
closed = 1;
nodes = (
"80 192 LINE",
"600 442 LINE",
"80 692 LINE",
"80 535 LINE",
"304 442 LINE",
"80 349 LINE"
);
},
{
closed = 1;
nodes = (
"600 144 LINE",
"80 144 LINE",
"80 0 LINE",
"600 0 LINE"
);
}
);
width = 680;
},
{
layerId = "43EC01B8-31A0-4C9A-A12D-FF1A612D1D03";
paths = (
{
closed = 1;
nodes = (
"80 149 LINE",
"554 358 LINE",
"80 566 LINE",
"80 496 LINE",
"414 358 LINE",
"80 219 LINE"
);
},
{
closed = 1;
nodes = (
"554 60 LINE",
"84 60 LINE",
"84 0 LINE",
"554 0 LINE"
);
}
);
width = 634;
}
);
unicode = 2265;
},
{
glyphname = lessequal;
lastChange = "2020-04-27 22:32:54 +0000";
layers = (
{
layerId = "BB68A3FB-67CF-46D6-8942-4DAFE6725C7A";
paths = (
{
closed = 1;
nodes = (
"376 442 LINE",
"600 535 LINE",
"600 692 LINE",
"80 442 LINE",
"600 192 LINE",
"600 349 LINE"
);
},
{
closed = 1;
nodes = (
"600 0 LINE",
"600 144 LINE",
"80 144 LINE",
"80 0 LINE"
);
}
);
width = 680;
},
{
layerId = "43EC01B8-31A0-4C9A-A12D-FF1A612D1D03";
paths = (
{
closed = 1;
nodes = (
"220 358 LINE",
"554 496 LINE",
"554 566 LINE",
"80 358 LINE",
"554 149 LINE",
"554 219 LINE"
);
},
{
closed = 1;
nodes = (
"550 0 LINE",
"550 60 LINE",
"80 60 LINE",
"80 0 LINE"
);
}
);
width = 634;
}
);
unicode = 2264;
},
{
glyphname = plusminus;
lastChange = "2020-04-28 03:19:01 +0000";
layers = (
{
layerId = "BB68A3FB-67CF-46D6-8942-4DAFE6725C7A";
paths = (
{
closed = 1;
nodes = (
"376 521 LINE",
"376 700 LINE",
"234 700 LINE",
"234 521 LINE",
"45 521 LINE",
"45 379 LINE",
"234 379 LINE",
"234 200 LINE",
"376 200 LINE",
"376 379 LINE",
"565 379 LINE",
"565 521 LINE"
);
},
{
closed = 1;
nodes = (
"565 0 LINE",
"565 144 LINE",
"45 144 LINE",
"45 0 LINE"
);
}
);
width = 610;
},
{
layerId = "43EC01B8-31A0-4C9A-A12D-FF1A612D1D03";
paths = (
{
closed = 1;
nodes = (
"345 464 LINE",
"345 669 LINE",
"285 669 LINE",
"285 464 LINE",
"80 464 LINE",
"80 404 LINE",
"285 404 LINE",
"285 199 LINE",
"345 199 LINE",
"345 404 LINE",
"550 404 LINE",
"550 464 LINE"
);
},
{
closed = 1;
nodes = (
"550 48 LINE",
"550 108 LINE",
"80 108 LINE",
"80 48 LINE"
);
}
);
width = 630;
}
);
unicode = 00B1;
},
{
glyphname = asciitilde;
lastChange = "2020-04-28 17:31:17 +0000";
layers = (
{
layerId = "BB68A3FB-67CF-46D6-8942-4DAFE6725C7A";
paths = (
{
closed = 1;
nodes = (
"522 343 OFFCURVE",
"548 387 OFFCURVE",
"574 410 CURVE",
"673 347 LINE",
"624 195 OFFCURVE",
"488 179 OFFCURVE",
"338 249 CURVE",
"235 298 OFFCURVE",
"206 254 OFFCURVE",
"179 231 CURVE",
"80 293 LINE",
"112 400 OFFCURVE",
"218 484 OFFCURVE",
"417 391 CURVE"
);
}
);
width = 753;
},
{
layerId = "43EC01B8-31A0-4C9A-A12D-FF1A612D1D03";
paths = (
{
closed = 1;
nodes = (
"464 296 OFFCURVE",
"510 329 OFFCURVE",
"537 362 CURVE",
"582 333 LINE",
"537 250 OFFCURVE",
"464 218 OFFCURVE",
"290 301 CURVE",
"191 349 OFFCURVE",
"150 304 OFFCURVE",
"124 280 CURVE",
"80 310 LINE",
"157 429 OFFCURVE",
"259 395 OFFCURVE",
"369 342 CURVE"
);
}
);
width = 662;
}
);
unicode = 007E;
},
{
glyphname = asciicircum;
lastChange = "2020-04-28 05:29:49 +0000";
layers = (
{
layerId = "BB68A3FB-67CF-46D6-8942-4DAFE6725C7A";
paths = (
{
closed = 1;
nodes = (
"311 428 LINE",
"362 290 LINE",
"519 290 LINE",
"311 724 LINE",
"97 290 LINE",
"254 290 LINE"
);
}
);
width = 600;
},
{
layerId = "43EC01B8-31A0-4C9A-A12D-FF1A612D1D03";
paths = (
{
closed = 1;
nodes = (
"311 584 LINE",
"432 290 LINE",
"502 290 LINE",
"311 724 LINE",
"118 290 LINE",
"188 290 LINE"
);
}
);
width = 600;
}
);
unicode = 005E;
},
{
glyphname = percent;
lastChange = "2020-04-28 16:42:13 +0000";
layers = (
{
layerId = "BB68A3FB-67CF-46D6-8942-4DAFE6725C7A";
paths = (
{
closed = 1;
nodes = (
"196 -23 LINE",
"589 723 LINE",
"754 723 LINE",
"361 -23 LINE"
);
},
{
closed = 1;
nodes = (
"225 601 OFFCURVE",
"203 578 OFFCURVE",
"203 550 CURVE",
"203 522 OFFCURVE",
"225 499 OFFCURVE",
"253 499 CURVE",
"281 499 OFFCURVE",
"304 522 OFFCURVE",
"304 550 CURVE",
"304 578 OFFCURVE",
"281 601 OFFCURVE",
"253 601 CURVE"
);
},
{
closed = 1;
nodes = (
"426 455 OFFCURVE",
"349 377 OFFCURVE",
"253 377 CURVE",
"157 377 OFFCURVE",
"80 455 OFFCURVE",
"80 550 CURVE",
"80 646 OFFCURVE",
"157 723 OFFCURVE",
"253 723 CURVE",
"349 723 OFFCURVE",
"426 646 OFFCURVE",
"426 550 CURVE"
);
},
{
closed = 1;
nodes = (
"672 201 OFFCURVE",
"650 178 OFFCURVE",
"650 150 CURVE",
"650 122 OFFCURVE",
"672 99 OFFCURVE",
"700 99 CURVE",
"728 99 OFFCURVE",
"751 122 OFFCURVE",
"751 150 CURVE",
"751 178 OFFCURVE",
"728 201 OFFCURVE",
"700 201 CURVE"
);
},
{
closed = 1;
nodes = (
"873 55 OFFCURVE",
"796 -23 OFFCURVE",
"700 -23 CURVE",
"604 -23 OFFCURVE",
"527 55 OFFCURVE",
"527 150 CURVE",
"527 246 OFFCURVE",
"604 323 OFFCURVE",
"700 323 CURVE",
"796 323 OFFCURVE",
"873 246 OFFCURVE",
"873 150 CURVE"
);
}
);
width = 953;
},
{
layerId = "43EC01B8-31A0-4C9A-A12D-FF1A612D1D03";
paths = (
{
closed = 1;
nodes = (
"244 -23 LINE",
"637 723 LINE",
"707 723 LINE",
"314 -23 LINE"
);
},
{
closed = 1;
nodes = (
"189 664 OFFCURVE",
"138 613 OFFCURVE",
"138 549 CURVE",
"138 485 OFFCURVE",
"189 433 OFFCURVE",
"253 433 CURVE",
"318 433 OFFCURVE",
"368 485 OFFCURVE",
"368 549 CURVE",
"368 613 OFFCURVE",
"318 664 OFFCURVE",
"253 664 CURVE"
);
},
{
closed = 1;
nodes = (
"426 453 OFFCURVE",
"349 376 OFFCURVE",
"253 376 CURVE",
"158 376 OFFCURVE",
"80 453 OFFCURVE",
"80 549 CURVE",
"80 644 OFFCURVE",
"158 722 OFFCURVE",
"253 722 CURVE",
"349 722 OFFCURVE",
"426 644 OFFCURVE",
"426 549 CURVE"
);
},
{
closed = 1;
nodes = (
"635 265 OFFCURVE",
"585 214 OFFCURVE",
"585 150 CURVE",
"585 86 OFFCURVE",
"635 34 OFFCURVE",
"700 34 CURVE",
"764 34 OFFCURVE",
"814 86 OFFCURVE",
"814 150 CURVE",
"814 214 OFFCURVE",
"764 265 OFFCURVE",
"700 265 CURVE"
);
},
{
closed = 1;
nodes = (
"873 54 OFFCURVE",
"795 -23 OFFCURVE",
"700 -23 CURVE",
"604 -23 OFFCURVE",
"527 54 OFFCURVE",
"527 150 CURVE",
"527 245 OFFCURVE",
"604 323 OFFCURVE",
"700 323 CURVE",
"795 323 OFFCURVE",
"873 245 OFFCURVE",
"873 150 CURVE"
);
}
);
width = 953;
}
);
unicode = 0025;
},
{
glyphname = perthousand;
lastChange = "2020-04-28 16:46:43 +0000";
layers = (
{
layerId = "BB68A3FB-67CF-46D6-8942-4DAFE6725C7A";
paths = (
{
closed = 1;
nodes = (
"196 -23 LINE",
"589 723 LINE",
"754 723 LINE",
"361 -23 LINE"
);
},
{
closed = 1;
nodes = (
"225 601 OFFCURVE",
"203 578 OFFCURVE",
"203 550 CURVE",
"203 522 OFFCURVE",
"225 499 OFFCURVE",
"253 499 CURVE",
"281 499 OFFCURVE",
"304 522 OFFCURVE",
"304 550 CURVE",
"304 578 OFFCURVE",
"281 601 OFFCURVE",
"253 601 CURVE"
);
},
{
closed = 1;
nodes = (
"426 455 OFFCURVE",
"349 377 OFFCURVE",
"253 377 CURVE",
"157 377 OFFCURVE",
"80 455 OFFCURVE",
"80 550 CURVE",
"80 646 OFFCURVE",
"157 723 OFFCURVE",
"253 723 CURVE",
"349 723 OFFCURVE",
"426 646 OFFCURVE",
"426 550 CURVE"
);
},
{
closed = 1;
nodes = (
"672 201 OFFCURVE",
"650 178 OFFCURVE",
"650 150 CURVE",
"650 122 OFFCURVE",
"672 99 OFFCURVE",
"700 99 CURVE",
"728 99 OFFCURVE",
"751 122 OFFCURVE",
"751 150 CURVE",
"751 178 OFFCURVE",
"728 201 OFFCURVE",
"700 201 CURVE"
);
},
{
closed = 1;
nodes = (
"873 55 OFFCURVE",
"796 -23 OFFCURVE",
"700 -23 CURVE",
"604 -23 OFFCURVE",
"527 55 OFFCURVE",
"527 150 CURVE",
"527 246 OFFCURVE",
"604 323 OFFCURVE",
"700 323 CURVE",
"796 323 OFFCURVE",
"873 246 OFFCURVE",
"873 150 CURVE"
);
},
{
closed = 1;
nodes = (
"1060 201 OFFCURVE",
"1038 178 OFFCURVE",
"1038 150 CURVE",
"1038 122 OFFCURVE",
"1060 99 OFFCURVE",
"1088 99 CURVE",
"1116 99 OFFCURVE",
"1139 122 OFFCURVE",
"1139 150 CURVE",
"1139 178 OFFCURVE",
"1116 201 OFFCURVE",
"1088 201 CURVE"
);
},
{
closed = 1;
nodes = (
"1261 55 OFFCURVE",
"1184 -23 OFFCURVE",
"1088 -23 CURVE",
"992 -23 OFFCURVE",
"915 55 OFFCURVE",
"915 150 CURVE",
"915 246 OFFCURVE",
"992 323 OFFCURVE",
"1088 323 CURVE",
"1184 323 OFFCURVE",
"1261 246 OFFCURVE",
"1261 150 CURVE"
);
}
);
width = 1341;
},
{
layerId = "43EC01B8-31A0-4C9A-A12D-FF1A612D1D03";
paths = (
{
closed = 1;
nodes = (
"244 -23 LINE",
"637 723 LINE",
"707 723 LINE",
"314 -23 LINE"
);
},
{
closed = 1;
nodes = (
"189 664 OFFCURVE",
"138 613 OFFCURVE",
"138 549 CURVE",
"138 485 OFFCURVE",
"189 433 OFFCURVE",
"253 433 CURVE",
"318 433 OFFCURVE",
"368 485 OFFCURVE",
"368 549 CURVE",
"368 613 OFFCURVE",
"318 664 OFFCURVE",
"253 664 CURVE"
);
},
{
closed = 1;
nodes = (
"426 453 OFFCURVE",
"349 376 OFFCURVE",
"253 376 CURVE",
"158 376 OFFCURVE",
"80 453 OFFCURVE",
"80 549 CURVE",
"80 644 OFFCURVE",
"158 722 OFFCURVE",
"253 722 CURVE",
"349 722 OFFCURVE",
"426 644 OFFCURVE",
"426 549 CURVE"
);
},
{
closed = 1;
nodes = (
"635 265 OFFCURVE",
"585 214 OFFCURVE",
"585 150 CURVE",
"585 86 OFFCURVE",
"635 34 OFFCURVE",
"700 34 CURVE",
"764 34 OFFCURVE",
"814 86 OFFCURVE",
"814 150 CURVE",
"814 214 OFFCURVE",
"764 265 OFFCURVE",
"700 265 CURVE"
);
},
{
closed = 1;
nodes = (
"873 54 OFFCURVE",
"795 -23 OFFCURVE",
"700 -23 CURVE",
"604 -23 OFFCURVE",
"527 54 OFFCURVE",
"527 150 CURVE",
"527 245 OFFCURVE",
"604 323 OFFCURVE",
"700 323 CURVE",
"795 323 OFFCURVE",
"873 245 OFFCURVE",
"873 150 CURVE"
);
},
{
closed = 1;
nodes = (
"1023 265 OFFCURVE",
"973 214 OFFCURVE",
"973 150 CURVE",
"973 86 OFFCURVE",
"1023 34 OFFCURVE",
"1088 34 CURVE",
"1152 34 OFFCURVE",
"1202 86 OFFCURVE",
"1202 150 CURVE",
"1202 214 OFFCURVE",
"1152 265 OFFCURVE",
"1088 265 CURVE"
);
},
{
closed = 1;
nodes = (
"1261 54 OFFCURVE",
"1183 -23 OFFCURVE",
"1088 -23 CURVE",
"992 -23 OFFCURVE",
"915 54 OFFCURVE",
"915 150 CURVE",
"915 245 OFFCURVE",
"992 323 OFFCURVE",
"1088 323 CURVE",
"1183 323 OFFCURVE",
"1261 245 OFFCURVE",
"1261 150 CURVE"
);
}
);
width = 1341;
}
);
unicode = 2030;
},
{
glyphname = at;
lastChange = "2016-12-14 09:29:57 +0000";
layers = (
{
layerId = "BB68A3FB-67CF-46D6-8942-4DAFE6725C7A";
paths = (
{
closed = 1;
nodes = (
"413 254 OFFCURVE",
"376 296 OFFCURVE",
"383 350 CURVE",
"389 403 OFFCURVE",
"438 446 OFFCURVE",
"491 446 CURVE",
"543 446 OFFCURVE",
"582 403 OFFCURVE",
"575 350 CURVE",
"568 296 OFFCURVE",
"520 254 OFFCURVE",
"467 254 CURVE"
);
},
{
closed = 1;
nodes = (
"712 471 OFFCURVE",
"626 569 OFFCURVE",
"506 569 CURVE",
"385 569 OFFCURVE",
"275 471 OFFCURVE",
"260 350 CURVE",
"245 229 OFFCURVE",
"331 131 OFFCURVE",
"452 131 CURVE",
"498 131 OFFCURVE",
"541 145 OFFCURVE",
"578 168 CURVE",
"619 131 OFFCURVE",
"714 110 OFFCURVE",
"806 185 CURVE",
"895 256 OFFCURVE",
"951 503 OFFCURVE",
"794 660 CURVE",
"714 739 OFFCURVE",
"609 788 OFFCURVE",
"488 788 CURVE",
"247 788 OFFCURVE",
"50 591 OFFCURVE",
"50 350 CURVE",
"50 107 OFFCURVE",
"247 -88 OFFCURVE",
"488 -88 CURVE",
"629 -88 OFFCURVE",
"723 -62 OFFCURVE",
"810 -12 CURVE",
"766 76 LINE",
"672 28 OFFCURVE",
"597 10 OFFCURVE",
"488 10 CURVE",
"301 10 OFFCURVE",
"150 163 OFFCURVE",
"150 350 CURVE",
"150 537 OFFCURVE",
"301 689 OFFCURVE",
"488 689 CURVE",
"582 689 OFFCURVE",
"666 651 OFFCURVE",
"727 590 CURVE",
"839 480 OFFCURVE",
"813 318 OFFCURVE",
"752 256 CURVE",
"717 220 OFFCURVE",
"683 225 OFFCURVE",
"686 256 CURVE",
"698 350 LINE"
);
}
);
width = 943;
},
{
layerId = "43EC01B8-31A0-4C9A-A12D-FF1A612D1D03";
paths = (
{
closed = 1;
nodes = (
"381 207 OFFCURVE",
"324 271 OFFCURVE",
"335 349 CURVE SMOOTH",
"344 429 OFFCURVE",
"417 493 OFFCURVE",
"495 493 CURVE SMOOTH",
"574 493 OFFCURVE",
"631 429 OFFCURVE",
"621 349 CURVE SMOOTH",
"611 271 OFFCURVE",
"539 207 OFFCURVE",
"460 207 CURVE SMOOTH"
);
},
{
closed = 1;
nodes = (
"701 465 OFFCURVE",
"619 558 OFFCURVE",
"504 558 CURVE SMOOTH",
"388 558 OFFCURVE",
"283 465 OFFCURVE",
"269 350 CURVE SMOOTH",
"255 235 OFFCURVE",
"337 142 OFFCURVE",
"452 142 CURVE SMOOTH",
"508 142 OFFCURVE",
"561 164 OFFCURVE",
"603 199 CURVE",
"618 148 OFFCURVE",
"688 112 OFFCURVE",
"781 170 CURVE SMOOTH",
"885 236 OFFCURVE",
"950 503 OFFCURVE",
"793 659 CURVE SMOOTH",
"714 738 OFFCURVE",
"608 787 OFFCURVE",
"488 787 CURVE SMOOTH",
"246 787 OFFCURVE",
"50 591 OFFCURVE",
"50 350 CURVE SMOOTH",
"50 109 OFFCURVE",
"246 -87 OFFCURVE",
"488 -87 CURVE SMOOTH",
"628 -87 OFFCURVE",
"721 -62 OFFCURVE",
"810 -12 CURVE",
"782 47 LINE",
"693 2 OFFCURVE",
"602 -22 OFFCURVE",
"487 -22 CURVE SMOOTH",
"284 -22 OFFCURVE",
"120 144 OFFCURVE",
"120 350 CURVE SMOOTH",
"120 555 OFFCURVE",
"287 715 OFFCURVE",
"487 715 CURVE SMOOTH",
"587 715 OFFCURVE",
"681 680 OFFCURVE",
"747 611 CURVE SMOOTH",
"865 495 OFFCURVE",
"835 293 OFFCURVE",
"751 231 CURVE SMOOTH",
"709 199 OFFCURVE",
"670 208 OFFCURVE",
"674 239 CURVE",
"687 350 LINE"
);
}
);
width = 937;
}
);
unicode = 0040;
},
{
glyphname = ampersand;
lastChange = "2020-04-27 06:44:15 +0000";
layers = (
{
layerId = "BB68A3FB-67CF-46D6-8942-4DAFE6725C7A";
paths = (
{
closed = 1;
nodes = (
"728 128 OFFCURVE",
"684 162 OFFCURVE",
"641 194 CURVE",
"685 269 OFFCURVE",
"702 333 OFFCURVE",
"702 333 CURVE",
"553 381 LINE",
"553 381 OFFCURVE",
"540 343 OFFCURVE",
"516 297 CURVE",
"484 323 OFFCURVE",
"455 351 OFFCURVE",
"426 378 CURVE",
"487 418 OFFCURVE",
"539 467 OFFCURVE",
"539 541 CURVE",
"539 650 OFFCURVE",
"454 724 OFFCURVE",
"344 724 CURVE",
"235 724 OFFCURVE",
"145 636 OFFCURVE",
"145 527 CURVE",
"145 485 OFFCURVE",
"158 441 OFFCURVE",
"191 402 CURVE",
"114 359 OFFCURVE",
"45 303 OFFCURVE",
"45 198 CURVE",
"45 73 OFFCURVE",
"164 -23 OFFCURVE",
"303 -23 CURVE",
"405 -23 OFFCURVE",
"484 19 OFFCURVE",
"544 73 CURVE",
"623 11 OFFCURVE",
"683 -33 OFFCURVE",
"683 -33 CURVE",
"778 93 LINE"
);
},
{
closed = 1;
nodes = (
"312 496 OFFCURVE",
"300 519 OFFCURVE",
"300 537 CURVE",
"300 562 OFFCURVE",
"317 584 OFFCURVE",
"344 584 CURVE",
"372 584 OFFCURVE",
"391 562 OFFCURVE",
"391 537 CURVE",
"391 509 OFFCURVE",
"368 489 OFFCURVE",
"336 470 CURVE"
);
},
{
closed = 1;
nodes = (
"252 120 OFFCURVE",
"213 158 OFFCURVE",
"213 203 CURVE",
"213 240 OFFCURVE",
"242 269 OFFCURVE",
"285 297 CURVE",
"328 255 OFFCURVE",
"376 211 OFFCURVE",
"425 171 CURVE",
"390 140 OFFCURVE",
"351 121 OFFCURVE",
"303 120 CURVE"
);
}
);
width = 823;
},
{
layerId = "43EC01B8-31A0-4C9A-A12D-FF1A612D1D03";
paths = (
{
closed = 1;
nodes = (
"677 62 OFFCURVE",
"613 112 OFFCURVE",
"553 160 CURVE",
"603 249 OFFCURVE",
"621 336 OFFCURVE",
"621 336 CURVE",
"563 352 LINE",
"563 352 OFFCURVE",
"548 276 OFFCURVE",
"506 198 CURVE",
"428 261 OFFCURVE",
"360 321 OFFCURVE",
"303 376 CURVE",
"384 420 OFFCURVE",
"460 467 OFFCURVE",
"460 555 CURVE",
"460 659 OFFCURVE",
"385 723 OFFCURVE",
"301 723 CURVE",
"212 723 OFFCURVE",
"140 651 OFFCURVE",
"140 553 CURVE",
"140 494 OFFCURVE",
"164 447 OFFCURVE",
"205 391 CURVE",
"123 348 OFFCURVE",
"45 294 OFFCURVE",
"45 184 CURVE",
"45 75 OFFCURVE",
"131 -24 OFFCURVE",
"276 -24 CURVE",
"389 -24 OFFCURVE",
"467 38 OFFCURVE",
"520 111 CURVE",
"624 28 OFFCURVE",
"711 -39 OFFCURVE",
"711 -39 CURVE",
"747 9 LINE"
);
},
{
closed = 1;
nodes = (
"215 465 OFFCURVE",
"199 517 OFFCURVE",
"199 559 CURVE",
"199 605 OFFCURVE",
"234 663 OFFCURVE",
"303 663 CURVE",
"364 663 OFFCURVE",
"401 607 OFFCURVE",
"401 560 CURVE",
"402 491 OFFCURVE",
"335 455 OFFCURVE",
"261 418 CURVE"
);
},
{
closed = 1;
nodes = (
"166 37 OFFCURVE",
"105 105 OFFCURVE",
"105 180 CURVE",
"105 260 OFFCURVE",
"171 306 OFFCURVE",
"246 347 CURVE",
"301 293 OFFCURVE",
"389 217 OFFCURVE",
"474 147 CURVE",
"430 87 OFFCURVE",
"367 37 OFFCURVE",
"279 37 CURVE"
);
}
);
width = 792;
}
);
rightKerningGroup = A;
unicode = 0026;
},
{
glyphname = copyright;
lastChange = "2017-12-11 05:30:52 +0000";
layers = (
{
layerId = "BB68A3FB-67CF-46D6-8942-4DAFE6725C7A";
paths = (
{
closed = 1;
nodes = (
"217 -24 OFFCURVE",
"50 143 OFFCURVE",
"50 348 CURVE",
"50 554 OFFCURVE",
"217 721 OFFCURVE",
"422 721 CURVE",
"627 721 OFFCURVE",
"794 554 OFFCURVE",
"794 348 CURVE",
"794 143 OFFCURVE",
"627 -24 OFFCURVE",
"422 -24 CURVE"
);
},
{
closed = 1;
nodes = (
"262 638 OFFCURVE",
"133 508 OFFCURVE",
"133 348 CURVE",
"133 189 OFFCURVE",
"262 59 OFFCURVE",
"422 59 CURVE",
"582 59 OFFCURVE",
"711 189 OFFCURVE",
"711 348 CURVE",
"711 508 OFFCURVE",
"582 638 OFFCURVE",
"422 638 CURVE"
);
},
{
closed = 1;
nodes = (
"475 293 OFFCURVE",
"454 281 OFFCURVE",
"430 281 CURVE",
"392 281 OFFCURVE",
"362 311 OFFCURVE",
"362 348 CURVE",
"362 386 OFFCURVE",
"392 416 OFFCURVE",
"430 416 CURVE",
"454 416 OFFCURVE",
"475 403 OFFCURVE",
"487 384 CURVE",
"587 447 LINE",
"555 500 OFFCURVE",
"496 534 OFFCURVE",
"430 534 CURVE",
"327 534 OFFCURVE",
"244 451 OFFCURVE",
"244 348 CURVE",
"244 246 OFFCURVE",
"327 162 OFFCURVE",
"430 162 CURVE",
"496 162 OFFCURVE",
"555 197 OFFCURVE",
"587 250 CURVE",
"487 313 LINE"
);
}
);
width = 844;
},
{
layerId = "43EC01B8-31A0-4C9A-A12D-FF1A612D1D03";
paths = (
{
closed = 1;
nodes = (
"217 -24 OFFCURVE",
"50 142 OFFCURVE",
"50 348 CURVE",
"50 553 OFFCURVE",
"217 720 OFFCURVE",
"422 720 CURVE",
"628 720 OFFCURVE",
"794 553 OFFCURVE",
"794 348 CURVE",
"794 142 OFFCURVE",
"628 -24 OFFCURVE",
"422 -24 CURVE"
);
},
{
closed = 1;
nodes = (
"243 673 OFFCURVE",
"97 527 OFFCURVE",
"97 348 CURVE",
"97 169 OFFCURVE",
"243 22 OFFCURVE",
"422 22 CURVE",
"601 22 OFFCURVE",
"748 169 OFFCURVE",
"748 348 CURVE",
"748 527 OFFCURVE",
"601 673 OFFCURVE",
"422 673 CURVE"
);
},
{
closed = 1;
nodes = (
"526 231 OFFCURVE",
"481 205 OFFCURVE",
"430 205 CURVE",
"351 205 OFFCURVE",
"287 269 OFFCURVE",
"287 348 CURVE",
"287 427 OFFCURVE",
"351 491 OFFCURVE",
"430 491 CURVE",
"481 491 OFFCURVE",
"526 464 OFFCURVE",
"551 424 CURVE",
"587 446 LINE",
"554 498 OFFCURVE",
"496 533 OFFCURVE",
"430 533 CURVE",
"328 533 OFFCURVE",
"245 450 OFFCURVE",
"245 348 CURVE",
"245 245 OFFCURVE",
"328 161 OFFCURVE",
"430 161 CURVE",
"496 161 OFFCURVE",
"554 197 OFFCURVE",
"587 250 CURVE",
"551 272 LINE"
);
}
);
width = 844;
}
);
unicode = 00A9;
},
{
glyphname = registered;
lastChange = "2019-12-17 06:17:39 +0000";
layers = (
{
layerId = "BB68A3FB-67CF-46D6-8942-4DAFE6725C7A";
paths = (
{
closed = 1;
nodes = (
"251 511 LINE",
"268 524 OFFCURVE",
"279 544 OFFCURVE",
"279 567 CURVE",
"279 607 OFFCURVE",
"247 639 OFFCURVE",
"208 639 CURVE",
"105 639 LINE",
"105 425 LINE",
"162 425 LINE",
"162 496 LINE",
"167 496 OFFCURVE",
"175 496 OFFCURVE",
"180 496 CURVE",
"184 496 OFFCURVE",
"188 496 OFFCURVE",
"193 496 CURVE",
"222 425 LINE",
"286 425 LINE"
);
},
{
closed = 1;
nodes = (
"162 589 LINE",
"201 589 LINE",
"213 589 OFFCURVE",
"222 579 OFFCURVE",
"222 567 CURVE",
"222 556 OFFCURVE",
"213 546 OFFCURVE",
"201 546 CURVE",
"162 546 LINE"
);
},
{
closed = 1;
nodes = (
"84 340 OFFCURVE",
"-2 426 OFFCURVE",
"-2 532 CURVE",
"-2 638 OFFCURVE",
"84 724 OFFCURVE",
"190 724 CURVE",
"296 724 OFFCURVE",
"382 638 OFFCURVE",
"382 532 CURVE",
"382 426 OFFCURVE",
"296 340 OFFCURVE",
"190 340 CURVE"
);
},
{
closed = 1;
nodes = (
"108 681 OFFCURVE",
"41 614 OFFCURVE",
"41 532 CURVE",
"41 450 OFFCURVE",
"108 383 OFFCURVE",
"190 383 CURVE",
"273 383 OFFCURVE",
"340 450 OFFCURVE",
"340 532 CURVE",
"340 614 OFFCURVE",
"273 681 OFFCURVE",
"190 681 CURVE"
);
}
);
width = 444;
},
{
layerId = "43EC01B8-31A0-4C9A-A12D-FF1A612D1D03";
paths = (
{
closed = 1;
nodes = (
"251 511 LINE",
"268 524 OFFCURVE",
"279 544 OFFCURVE",
"279 567 CURVE",
"279 607 OFFCURVE",
"247 639 OFFCURVE",
"208 639 CURVE",
"105 639 LINE",
"105 425 LINE",
"162 425 LINE",
"162 496 LINE",
"167 496 OFFCURVE",
"175 496 OFFCURVE",
"180 496 CURVE",
"184 496 OFFCURVE",
"188 496 OFFCURVE",
"193 496 CURVE",
"222 425 LINE",
"286 425 LINE"
);
},
{
closed = 1;
nodes = (
"162 589 LINE",
"201 589 LINE",
"213 589 OFFCURVE",
"222 579 OFFCURVE",
"222 567 CURVE",
"222 556 OFFCURVE",
"213 546 OFFCURVE",
"201 546 CURVE",
"162 546 LINE"
);
},
{
closed = 1;
nodes = (
"84 340 OFFCURVE",
"-2 426 OFFCURVE",
"-2 532 CURVE",
"-2 638 OFFCURVE",
"84 724 OFFCURVE",
"190 724 CURVE",
"296 724 OFFCURVE",
"382 638 OFFCURVE",
"382 532 CURVE",
"382 426 OFFCURVE",
"296 340 OFFCURVE",
"190 340 CURVE"
);
},
{
closed = 1;
nodes = (
"108 681 OFFCURVE",
"41 614 OFFCURVE",
"41 532 CURVE",
"41 450 OFFCURVE",
"108 383 OFFCURVE",
"190 383 CURVE",
"273 383 OFFCURVE",
"340 450 OFFCURVE",
"340 532 CURVE",
"340 614 OFFCURVE",
"273 681 OFFCURVE",
"190 681 CURVE"
);
}
);
width = 444;
}
);
unicode = 00AE;
},
{
glyphname = degree;
lastChange = "2020-04-28 17:01:46 +0000";
layers = (
{
layerId = "BB68A3FB-67CF-46D6-8942-4DAFE6725C7A";
paths = (
{
closed = 1;
nodes = (
"205 601 OFFCURVE",
"183 578 OFFCURVE",
"183 550 CURVE",
"183 522 OFFCURVE",
"205 499 OFFCURVE",
"233 499 CURVE",
"261 499 OFFCURVE",
"284 522 OFFCURVE",
"284 550 CURVE",
"284 578 OFFCURVE",
"261 601 OFFCURVE",
"233 601 CURVE"
);
},
{
closed = 1;
nodes = (
"406 455 OFFCURVE",
"329 377 OFFCURVE",
"233 377 CURVE",
"137 377 OFFCURVE",
"60 455 OFFCURVE",
"60 550 CURVE",
"60 646 OFFCURVE",
"137 723 OFFCURVE",
"233 723 CURVE",
"329 723 OFFCURVE",
"406 646 OFFCURVE",
"406 550 CURVE"
);
}
);
width = 486;
},
{
layerId = "43EC01B8-31A0-4C9A-A12D-FF1A612D1D03";
paths = (
{
closed = 1;
nodes = (
"169 664 OFFCURVE",
"118 613 OFFCURVE",
"118 549 CURVE",
"118 485 OFFCURVE",
"169 433 OFFCURVE",
"233 433 CURVE",
"298 433 OFFCURVE",
"348 485 OFFCURVE",
"348 549 CURVE",
"348 613 OFFCURVE",
"298 664 OFFCURVE",
"233 664 CURVE"
);
},
{
closed = 1;
nodes = (
"406 453 OFFCURVE",
"329 376 OFFCURVE",
"233 376 CURVE",
"138 376 OFFCURVE",
"60 453 OFFCURVE",
"60 549 CURVE",
"60 644 OFFCURVE",
"138 722 OFFCURVE",
"233 722 CURVE",
"329 722 OFFCURVE",
"406 644 OFFCURVE",
"406 549 CURVE"
);
}
);
width = 486;
}
);
unicode = 00B0;
},
{
glyphname = bar;
lastChange = "2020-04-28 16:55:28 +0000";
layers = (
{
layerId = "BB68A3FB-67CF-46D6-8942-4DAFE6725C7A";
paths = (
{
closed = 1;
nodes = (
"80 -92 LINE",
"80 700 LINE",
"224 700 LINE",
"224 -92 LINE"
);
}
);
width = 304;
},
{
layerId = "43EC01B8-31A0-4C9A-A12D-FF1A612D1D03";
paths = (
{
closed = 1;
nodes = (
"80 -92 LINE",
"80 700 LINE",
"140 700 LINE",
"140 -92 LINE"
);
}
);
width = 220;
}
);
unicode = 007C;
},
{
glyphname = brokenbar;
lastChange = "2020-04-28 16:59:16 +0000";
layers = (
{
layerId = "BB68A3FB-67CF-46D6-8942-4DAFE6725C7A";
paths = (
{
closed = 1;
nodes = (
"80 390 LINE",
"80 700 LINE",
"224 700 LINE",
"224 390 LINE"
);
},
{
closed = 1;
nodes = (
"80 -92 LINE",
"80 218 LINE",
"224 218 LINE",
"224 -92 LINE"
);
}
);
width = 304;
},
{
layerId = "43EC01B8-31A0-4C9A-A12D-FF1A612D1D03";
paths = (
{
closed = 1;
nodes = (
"80 390 LINE",
"80 700 LINE",
"140 700 LINE",
"140 390 LINE"
);
},
{
closed = 1;
nodes = (
"80 -92 LINE",
"80 218 LINE",
"140 218 LINE",
"140 -92 LINE"
);
}
);
width = 220;
}
);
unicode = 00A6;
},
{
glyphname = commaaccentcomb;
lastChange = "2020-05-02 06:51:10 +0000";
layers = (
{
layerId = "BB68A3FB-67CF-46D6-8942-4DAFE6725C7A";
paths = (
{
closed = 1;
nodes = (
"60 -229 LINE",
"146 -229 LINE",
"216 -62 LINE",
"78 -62 LINE"
);
}
);
width = 296;
},
{
layerId = "43EC01B8-31A0-4C9A-A12D-FF1A612D1D03";
paths = (
{
closed = 1;
nodes = (
"45 -229 LINE",
"81 -229 LINE",
"135 -62 LINE",
"73 -62 LINE"
);
}
);
width = 215;
}
);
unicode = 0326;
},
{
glyphname = dotaccent;
lastChange = "2020-04-28 17:12:14 +0000";
layers = (
{
layerId = "BB68A3FB-67CF-46D6-8942-4DAFE6725C7A";
paths = (
{
closed = 1;
nodes = (
"267 555 OFFCURVE",
"225 513 OFFCURVE",
"174 513 CURVE SMOOTH",
"122 513 OFFCURVE",
"80 555 OFFCURVE",
"80 607 CURVE SMOOTH",
"80 658 OFFCURVE",
"122 700 OFFCURVE",
"174 700 CURVE SMOOTH",
"225 700 OFFCURVE",
"267 658 OFFCURVE",
"267 607 CURVE SMOOTH"
);
}
);
width = 347;
},
{
layerId = "43EC01B8-31A0-4C9A-A12D-FF1A612D1D03";
paths = (
{
closed = 1;
nodes = (
"173 581 OFFCURVE",
"152 560 OFFCURVE",
"126 560 CURVE SMOOTH",
"101 560 OFFCURVE",
"80 581 OFFCURVE",
"80 607 CURVE SMOOTH",
"80 632 OFFCURVE",
"101 653 OFFCURVE",
"126 653 CURVE SMOOTH",
"152 653 OFFCURVE",
"173 632 OFFCURVE",
"173 607 CURVE SMOOTH"
);
}
);
width = 253;
}
);
unicode = 02D9;
},
{
glyphname = grave;
lastChange = "2020-04-30 07:34:56 +0000";
layers = (
{
layerId = "BB68A3FB-67CF-46D6-8942-4DAFE6725C7A";
paths = (
{
closed = 1;
nodes = (
"60 700 LINE",
"203 533 LINE",
"301 533 LINE",
"228 700 LINE"
);
}
);
width = 381;
},
{
layerId = "43EC01B8-31A0-4C9A-A12D-FF1A612D1D03";
paths = (
{
closed = 1;
nodes = (
"60 700 LINE",
"181 533 LINE",
"215 533 LINE",
"127 700 LINE"
);
}
);
width = 295;
}
);
unicode = 0060;
},
{
glyphname = acute;
lastChange = "2020-04-30 07:35:19 +0000";
layers = (
{
layerId = "BB68A3FB-67CF-46D6-8942-4DAFE6725C7A";
paths = (
{
closed = 1;
nodes = (
"80 533 LINE",
"178 533 LINE",
"321 700 LINE",
"153 700 LINE"
);
}
);
width = 381;
},
{
layerId = "43EC01B8-31A0-4C9A-A12D-FF1A612D1D03";
paths = (
{
closed = 1;
nodes = (
"80 533 LINE",
"114 533 LINE",
"235 700 LINE",
"168 700 LINE"
);
}
);
width = 295;
}
);
unicode = 00B4;
},
{
glyphname = hungarumlaut;
lastChange = "2020-05-01 01:12:22 +0000";
layers = (
{
layerId = "BB68A3FB-67CF-46D6-8942-4DAFE6725C7A";
paths = (
{
closed = 1;
nodes = (
"80 533 LINE",
"168 533 LINE",
"291 700 LINE",
"133 700 LINE"
);
},
{
closed = 1;
nodes = (
"294 533 LINE",
"382 533 LINE",
"505 700 LINE",
"347 700 LINE"
);
}
);
width = 535;
},
{
layerId = "43EC01B8-31A0-4C9A-A12D-FF1A612D1D03";
paths = (
{
closed = 1;
nodes = (
"80 533 LINE",
"114 533 LINE",
"204 700 LINE",
"137 700 LINE"
);
},
{
closed = 1;
nodes = (
"203 533 LINE",
"237 533 LINE",
"327 700 LINE",
"260 700 LINE"
);
}
);
width = 367;
}
);
unicode = 02DD;
},
{
glyphname = circumflex;
lastChange = "2020-04-29 07:40:54 +0000";
layers = (
{
layerId = "BB68A3FB-67CF-46D6-8942-4DAFE6725C7A";
paths = (
{
closed = 1;
nodes = (
"484 533 LINE",
"353 700 LINE",
"212 700 LINE",
"80 533 LINE",
"215 533 LINE",
"282 601 LINE",
"348 533 LINE"
);
}
);
width = 564;
},
{
layerId = "43EC01B8-31A0-4C9A-A12D-FF1A612D1D03";
paths = (
{
closed = 1;
nodes = (
"384 533 LINE",
"263 700 LINE",
"202 700 LINE",
"80 533 LINE",
"134 533 LINE",
"232 651 LINE",
"326 533 LINE"
);
}
);
width = 464;
}
);
unicode = 02C6;
},
{
glyphname = breve;
lastChange = "2020-04-30 08:13:36 +0000";
layers = (
{
layerId = "BB68A3FB-67CF-46D6-8942-4DAFE6725C7A";
paths = (
{
closed = 1;
nodes = (
"413 608 OFFCURVE",
"338 533 OFFCURVE",
"247 533 CURVE",
"155 533 OFFCURVE",
"80 608 OFFCURVE",
"80 700 CURVE",
"179 700 LINE",
"179 662 OFFCURVE",
"209 632 OFFCURVE",
"247 632 CURVE",
"284 632 OFFCURVE",
"314 662 OFFCURVE",
"314 700 CURVE",
"413 700 LINE"
);
}
);
width = 493;
},
{
layerId = "43EC01B8-31A0-4C9A-A12D-FF1A612D1D03";
paths = (
{
closed = 1;
nodes = (
"296 638 OFFCURVE",
"259 601 OFFCURVE",
"213 601 CURVE",
"167 601 OFFCURVE",
"129 638 OFFCURVE",
"129 684 CURVE",
"80 684 LINE",
"80 611 OFFCURVE",
"139 551 OFFCURVE",
"213 551 CURVE",
"286 551 OFFCURVE",
"345 611 OFFCURVE",
"345 684 CURVE",
"296 684 LINE"
);
}
);
width = 425;
}
);
unicode = 02D8;
},
{
glyphname = ring;
lastChange = "2020-04-30 07:57:51 +0000";
layers = (
{
layerId = "BB68A3FB-67CF-46D6-8942-4DAFE6725C7A";
paths = (
{
closed = 1;
nodes = (
"310 560 OFFCURVE",
"261 511 OFFCURVE",
"201 511 CURVE SMOOTH",
"140 511 OFFCURVE",
"91 560 OFFCURVE",
"91 621 CURVE SMOOTH",
"91 681 OFFCURVE",
"140 730 OFFCURVE",
"201 730 CURVE SMOOTH",
"261 730 OFFCURVE",
"310 681 OFFCURVE",
"310 621 CURVE SMOOTH"
);
},
{
closed = 1;
nodes = (
"237 641 OFFCURVE",
"221 657 OFFCURVE",
"201 657 CURVE SMOOTH",
"180 657 OFFCURVE",
"164 641 OFFCURVE",
"164 621 CURVE SMOOTH",
"164 600 OFFCURVE",
"180 584 OFFCURVE",
"201 584 CURVE SMOOTH",
"221 584 OFFCURVE",
"237 600 OFFCURVE",
"237 621 CURVE SMOOTH"
);
}
);
width = 401;
},
{
layerId = "43EC01B8-31A0-4C9A-A12D-FF1A612D1D03";
paths = (
{
closed = 1;
nodes = (
"273 574 OFFCURVE",
"236 537 OFFCURVE",
"190 537 CURVE SMOOTH",
"143 537 OFFCURVE",
"106 574 OFFCURVE",
"106 621 CURVE SMOOTH",
"106 667 OFFCURVE",
"143 704 OFFCURVE",
"190 704 CURVE SMOOTH",
"236 704 OFFCURVE",
"273 667 OFFCURVE",
"273 621 CURVE SMOOTH"
);
},
{
closed = 1;
nodes = (
"232 645 OFFCURVE",
"214 663 OFFCURVE",
"190 663 CURVE SMOOTH",
"165 663 OFFCURVE",
"147 645 OFFCURVE",
"147 621 CURVE SMOOTH",
"147 596 OFFCURVE",
"165 578 OFFCURVE",
"190 578 CURVE SMOOTH",
"214 578 OFFCURVE",
"232 596 OFFCURVE",
"232 621 CURVE SMOOTH"
);
}
);
width = 379;
}
);
unicode = 02DA;
},
{
glyphname = tilde;
lastChange = "2020-04-28 17:11:00 +0000";
layers = (
{
layerId = "BB68A3FB-67CF-46D6-8942-4DAFE6725C7A";
paths = (
{
closed = 1;
nodes = (
"374 652 OFFCURVE",
"405 668 OFFCURVE",
"424 687 CURVE",
"499 602 LINE",
"432 518 OFFCURVE",
"340 520 OFFCURVE",
"269 544 CURVE SMOOTH",
"206 565 OFFCURVE",
"174 548 OFFCURVE",
"155 529 CURVE",
"80 614 LINE",
"120 666 OFFCURVE",
"188 713 OFFCURVE",
"311 672 CURVE"
);
}
);
width = 579;
},
{
layerId = "43EC01B8-31A0-4C9A-A12D-FF1A612D1D03";
paths = (
{
closed = 1;
nodes = (
"352 603 OFFCURVE",
"400 629 OFFCURVE",
"425 657 CURVE",
"459 625 LINE",
"409 548 OFFCURVE",
"349 544 OFFCURVE",
"249 584 CURVE",
"183 611 OFFCURVE",
"139 586 OFFCURVE",
"113 557 CURVE",
"80 590 LINE",
"131 672 OFFCURVE",
"204 668 OFFCURVE",
"290 630 CURVE"
);
}
);
width = 539;
}
);
leftKerningGroup = T;
rightKerningGroup = T;
unicode = 02DC;
},
{
glyphname = macron;
lastChange = "2020-05-02 08:41:10 +0000";
layers = (
{
layerId = "BB68A3FB-67CF-46D6-8942-4DAFE6725C7A";
paths = (
{
closed = 1;
nodes = (
"431 666 LINE",
"80 666 LINE",
"80 538 LINE",
"431 538 LINE"
);
}
);
width = 511;
},
{
layerId = "43EC01B8-31A0-4C9A-A12D-FF1A612D1D03";
paths = (
{
closed = 1;
nodes = (
"393 632 LINE",
"80 632 LINE",
"80 574 LINE",
"393 574 LINE"
);
}
);
width = 473;
}
);
unicode = 00AF;
},
{
glyphname = cedilla;
lastChange = "2020-05-02 13:54:37 +0000";
layers = (
{
layerId = "BB68A3FB-67CF-46D6-8942-4DAFE6725C7A";
paths = (
{
closed = 1;
nodes = (
"255 11 LINE",
"145 11 LINE",
"112 -52 LINE",
"112 -109 LINE",
"130 -107 OFFCURVE",
"152 -106 OFFCURVE",
"167 -108 CURVE",
"185 -112 OFFCURVE",
"197 -120 OFFCURVE",
"197 -132 CURVE",
"197 -144 OFFCURVE",
"185 -153 OFFCURVE",
"167 -155 CURVE",
"137 -158 OFFCURVE",
"79 -149 OFFCURVE",
"79 -149 CURVE",
"79 -233 LINE",
"79 -233 OFFCURVE",
"129 -260 OFFCURVE",
"207 -255 CURVE",
"289 -249 OFFCURVE",
"340 -203 OFFCURVE",
"340 -136 CURVE",
"340 -77 OFFCURVE",
"294 -42 OFFCURVE",
"233 -33 CURVE"
);
}
);
width = 421;
},
{
layerId = "43EC01B8-31A0-4C9A-A12D-FF1A612D1D03";
paths = (
{
closed = 1;
nodes = (
"207 11 LINE",
"157 11 LINE",
"124 -56 LINE",
"124 -83 LINE",
"124 -83 OFFCURVE",
"155 -81 OFFCURVE",
"170 -84 CURVE SMOOTH",
"197 -89 OFFCURVE",
"226 -102 OFFCURVE",
"226 -132 CURVE SMOOTH",
"226 -163 OFFCURVE",
"194 -177 OFFCURVE",
"158 -179 CURVE SMOOTH",
"128 -180 OFFCURVE",
"80 -171 OFFCURVE",
"80 -171 CURVE",
"80 -211 LINE",
"80 -211 OFFCURVE",
"130 -229 OFFCURVE",
"190 -226 CURVE SMOOTH",
"239 -224 OFFCURVE",
"284 -195 OFFCURVE",
"284 -136 CURVE SMOOTH",
"284 -81 OFFCURVE",
"237 -47 OFFCURVE",
"179 -47 CURVE"
);
}
);
width = 364;
}
);
unicode = 00B8;
},
{
glyphname = ogonek;
lastChange = "2020-05-02 08:23:03 +0000";
layers = (
{
layerId = "BB68A3FB-67CF-46D6-8942-4DAFE6725C7A";
paths = (
{
closed = 1;
nodes = (
"271 -28 OFFCURVE",
"224 -48 OFFCURVE",
"224 -73 CURVE",
"224 -85 OFFCURVE",
"236 -91 OFFCURVE",
"245 -91 CURVE",
"261 -91 OFFCURVE",
"280 -82 OFFCURVE",
"280 -82 CURVE",
"329 -158 LINE",
"329 -158 OFFCURVE",
"281 -200 OFFCURVE",
"216 -200 CURVE",
"154 -200 OFFCURVE",
"106 -180 OFFCURVE",
"86 -133 CURVE",
"67 -87 OFFCURVE",
"95 -29 OFFCURVE",
"143 0 CURVE",
"209 40 OFFCURVE",
"274 52 OFFCURVE",
"274 52 CURVE",
"329 0 LINE"
);
}
